<?xml version="1.0" encoding="UTF-8" standalone="no"?>
<!-- Created with Inkscape (http://www.inkscape.org/) -->

<svg
   xmlns:dc="http://purl.org/dc/elements/1.1/"
   xmlns:cc="http://creativecommons.org/ns#"
   xmlns:rdf="http://www.w3.org/1999/02/22-rdf-syntax-ns#"
   xmlns:svg="http://www.w3.org/2000/svg"
   xmlns="http://www.w3.org/2000/svg"
   xmlns:sodipodi="http://sodipodi.sourceforge.net/DTD/sodipodi-0.dtd"
   xmlns:inkscape="http://www.inkscape.org/namespaces/inkscape"
   inkscape:version="0.91 r13725"
   version="1.1"
   id="svg2"
   viewBox="0 0 630.64644 198.22887"
   height="55.944595mm"
   width="177.98244mm"
   sodipodi:docname="logo.svg">
  <sodipodi:namedview
     inkscape:window-maximized="0"
     inkscape:window-y="0"
     inkscape:window-x="0"
     inkscape:window-height="879"
     inkscape:window-width="1438"
     inkscape:snap-center="true"
     showgrid="false"
     inkscape:current-layer="layer1"
     inkscape:document-units="px"
     inkscape:cy="119.93798"
     inkscape:cx="317.22745"
     inkscape:zoom="1.4"
     inkscape:pageshadow="2"
     inkscape:pageopacity="0.0"
     borderopacity="1.0"
     bordercolor="#666666"
     pagecolor="#ffffff"
     id="base"
     inkscape:snap-object-midpoints="false"
     fit-margin-top="0"
     fit-margin-left="0"
     fit-margin-right="0"
     fit-margin-bottom="0"
     inkscape:snap-text-baseline="true">
    <inkscape:grid
       id="grid4224"
       type="xygrid"
       originx="-92.515827"
       originy="-742.61814" />
  </sodipodi:namedview>
  <defs
     id="defs4">
    <inkscape:path-effect
       effect="skeletal"
       id="path-effect5336"
       is_visible="true"
       pattern="M 9.94924,0 C 4.45443,0 0,4.45443 0,9.94924 c 0,5.49481 4.45443,9.94924 9.94924,9.94924 l 50.10152,0 C 65.54557,19.89848 70,15.44405 70,9.94924 70,4.45443 65.54557,0 60.05076,0 Z"
       copytype="repeated_stretched"
       prop_scale="1"
       scale_y_rel="false"
       spacing="8.4"
       normal_offset="0"
       tang_offset="0"
       prop_units="false"
       vertical_pattern="false"
       fuse_tolerance="0" />
    <inkscape:path-effect
       fuse_tolerance="0"
       vertical_pattern="false"
       prop_units="false"
       tang_offset="0"
       normal_offset="0"
       spacing="5"
       scale_y_rel="false"
       prop_scale="1"
       copytype="repeated_stretched"
       pattern="M 9.94924,0 C 4.45443,0 0,4.45443 0,9.94924 c 0,5.49481 4.45443,9.94924 9.94924,9.94924 l 50.10152,0 C 65.54557,19.89848 70,15.44405 70,9.94924 70,4.45443 65.54557,0 60.05076,0 Z"
       is_visible="true"
       id="path-effect4295"
       effect="skeletal" />
    <inkscape:path-effect
       fuse_tolerance="0"
       vertical_pattern="false"
       prop_units="false"
       tang_offset="0"
       normal_offset="0"
       spacing="4.4"
       scale_y_rel="false"
       prop_scale="0.5"
       copytype="repeated"
       pattern="M 85.28572,9.21429 A 42.142857,8.2142859 0 0 1 43.14286,17.42858 42.142857,8.2142859 0 0 1 1,9.21429 42.142857,8.2142859 0 0 1 43.14286,1 42.142857,8.2142859 0 0 1 85.28572,9.21429 Z"
       is_visible="true"
       id="path-effect4146"
       effect="skeletal" />
    <inkscape:path-effect
       fuse_tolerance="0"
       vertical_pattern="false"
       prop_units="false"
       tang_offset="0"
       normal_offset="0"
       spacing="0"
       scale_y_rel="false"
       prop_scale="1"
       copytype="repeated"
       pattern="M 0,0 1,0"
       is_visible="true"
       id="path-effect4144"
       effect="skeletal" />
  </defs>
  <metadata
     id="metadata7">
    <rdf:RDF>
      <cc:Work
         rdf:about="">
        <dc:format>image/svg+xml</dc:format>
        <dc:type
           rdf:resource="http://purl.org/dc/dcmitype/StillImage" />
        <dc:title />
      </cc:Work>
    </rdf:RDF>
  </metadata>
  <g
     id="layer1"
     inkscape:groupmode="layer"
     inkscape:label="Layer 1"
     transform="translate(-92.515824,-111.51513)">
    <g
       style="font-style:normal;font-weight:normal;font-size:208.59706116px;line-height:125%;font-family:Sans;text-align:start;letter-spacing:0px;word-spacing:0px;text-anchor:start;fill:#000000;fill-opacity:1;stroke:none;stroke-width:1px;stroke-linecap:butt;stroke-linejoin:miter;stroke-opacity:1"
       id="text4136">
      <path
         d="m 142.78772,274.44815 c 26.07463,0 46.30854,-23.36287 46.30854,-53.19225 0,-27.952 -17.52215,-53.19225 -46.09995,-53.19225 -9.17827,0 -22.94567,2.50317 -31.70675,13.14162 l 0,-65.29088 -18.773736,0 0,156.44779 16.687766,0 2.08597,-12.93302 c 7.71809,10.01266 22.31988,15.01899 31.49816,15.01899 z m -2.08598,-89.69673 c 17.93935,0 29.20359,15.64478 29.20359,36.50448 0,20.02532 -11.26424,36.50449 -29.20359,36.50449 -15.01898,0 -30.45517,-10.84705 -30.45517,-36.50449 0,-24.61445 15.43619,-36.50448 30.45517,-36.50448 z"
         style="font-style:normal;font-variant:normal;font-weight:normal;font-stretch:normal;font-family:Cabin;-inkscape-font-specification:'Cabin Bold'"
         id="path3371" />
      <path
         d="m 294.164,259.42916 -1.87738,0 c -10.84704,0 -11.68143,-6.8837 -11.68143,-21.48549 l 0,-20.85971 c 0,-36.92168 -10.22126,-49.02031 -36.08729,-49.02031 -13.55881,0 -26.49183,4.38054 -34.62712,10.63845 l 2.71177,15.22759 c 10.84704,-7.5095 19.19093,-9.17827 26.90902,-9.17827 14.39319,0 22.31988,4.17194 22.31988,23.57146 -26.07463,0.4172 -61.11894,7.7181 -61.11894,36.50449 0,17.10496 12.51583,29.62078 31.49816,29.62078 13.14161,0 23.57147,-6.04931 31.28956,-15.01899 4.17194,9.59547 8.13528,15.01899 26.28323,15.01899 l 1.46018,0 2.92036,-15.01899 z m -32.33255,-13.7674 c -6.04931,8.34388 -16.06197,13.7674 -26.07463,13.7674 -9.38687,0 -15.85338,-4.58913 -15.85338,-15.64477 0,-15.22759 12.09863,-21.4855 41.92801,-22.52849 l 0,24.40586 z"
         style="font-style:normal;font-variant:normal;font-weight:normal;font-stretch:normal;font-family:Cabin;-inkscape-font-specification:'Cabin Bold'"
         id="path3373" />
    </g>
    <path
       style="opacity:1;fill:#8f00ff;fill-opacity:1;stroke:#000000;stroke-width:5.39489698;stroke-linecap:butt;stroke-linejoin:round;stroke-miterlimit:4;stroke-dasharray:none;stroke-dashoffset:0;stroke-opacity:1"
       id="path5321"
       inkscape:path-effect="#path-effect5336"
       sodipodi:type="arc"
       sodipodi:cx="366.43283"
       sodipodi:cy="316.7186"
       sodipodi:rx="65.912453"
       sodipodi:ry="65.912453"
       d="m 436.60881,345.22144 c 2.74974,-6.5561 -0.60249,-12.5778 -5.92519,-13.79614 -5.3093,-1.21527 -10.62016,2.00902 -12.34739,6.15047 -5.70512,13.67938 -17.47823,25.24738 -31.23826,31.02454 -4.18485,1.75701 -7.37067,7.10057 -6.1283,12.37536 1.24518,5.28676 7.25243,8.61968 13.77056,5.90273 18.68535,-7.7886 34.00189,-22.90073 41.86858,-41.65696 z m -75.69166,47.0102 c 7.06626,0.59846 11.76502,-4.43068 11.30489,-9.85917 -0.459,-5.41511 -5.14583,-9.49595 -9.63412,-9.87573 -14.80181,-1.25247 -29.47614,-8.82082 -39.17592,-20.11678 -2.9457,-3.43044 -9.00292,-4.83218 -13.65119,-2.03406 -4.65937,2.80479 -5.98849,9.55049 -1.3866,14.92528 13.18339,15.39758 32.31339,25.24716 52.54294,26.96046 z m -67.99918,-57.52078 c 1.60215,6.89194 7.82337,9.81897 12.8438,7.72809 5.00849,-2.0859 7.46902,-7.7956 6.45152,-12.20125 -3.35047,-14.50719 -0.75041,-30.81228 7.01254,-43.47714 2.35393,-3.84031 1.84437,-10.03385 -2.2454,-13.61265 -4.09989,-3.58764 -10.93535,-2.78322 -14.64088,3.2632 -10.60833,17.30992 -14.0114,38.55587 -9.42158,58.29975 z m 33.77765,-82.3713 c -6.05122,3.64014 -6.92659,10.45403 -3.40611,14.59003 3.51252,4.12664 9.70464,4.72719 13.5999,2.39759 12.80784,-7.65985 29.10262,-10.28752 43.5021,-6.77628 4.35946,1.06303 10.10388,-1.30401 12.27138,-6.30077 2.17297,-5.00936 -0.69083,-11.27809 -7.60121,-12.94847 -19.76978,-4.77875 -41.01922,-1.39722 -58.36606,9.0379 z"
       sodipodi:start="0.22501893"
       sodipodi:end="5.1216735"
       sodipodi:open="true"
       transform="matrix(1.1471001,0.53567313,-0.53567313,1.1471001,155.50541,-348.99685)" />
    <g
       style="font-style:normal;font-weight:normal;font-size:208.59706116px;line-height:125%;font-family:Sans;text-align:start;letter-spacing:0px;word-spacing:0px;text-anchor:start;fill:#000000;fill-opacity:1;stroke:none;stroke-width:1px;stroke-linecap:butt;stroke-linejoin:miter;stroke-opacity:1"
       id="text4136-3">
      <path
         d="m 546.33387,259.42916 -4.79774,0 c -20.23391,0 -21.48549,-1.25158 -21.48549,-20.8597 l 0,-53.81804 26.90902,0 0,-14.6018 -26.90902,0 0,-27.11762 -18.77374,1.87738 0,25.24024 -15.85338,0 -1.66877,14.6018 17.52215,0 0,65.29088 c 0,12.30722 7.3009,24.40585 26.70042,24.40585 l 16.89637,0 1.46018,-15.01899 z"
         style="font-style:normal;font-variant:normal;font-weight:normal;font-stretch:normal;font-family:Cabin;-inkscape-font-specification:'Cabin Bold'"
         id="path3376" />
      <path
         d="m 649.37755,221.2559 c 0.6258,-3.54615 0.83439,-7.0923 0.83439,-10.01266 0,-27.53481 -18.56514,-43.17959 -44.01398,-43.17959 -31.70675,0 -50.06329,23.78007 -50.06329,52.35786 0,29.41219 19.19093,54.02664 55.27822,54.02664 14.81039,0 26.28323,-4.38054 34.20992,-7.92669 l -2.50317,-14.81039 c -9.17827,4.17194 -20.02531,6.04932 -29.41218,6.04932 -19.39953,0 -35.6701,-8.13529 -38.38186,-36.50449 l 74.05195,0 z m -43.59678,-36.50448 c 17.10496,0 25.03165,9.17827 25.03165,23.57146 l -53.81805,0 c 3.75475,-14.81039 12.09863,-23.57146 28.7864,-23.57146 z"
         style="font-style:normal;font-variant:normal;font-weight:normal;font-stretch:normal;font-family:Cabin;-inkscape-font-specification:'Cabin Bold'"
         id="path3378" />
      <path
         d="m 723.16225,166.39488 -1.66877,0 c -12.51583,0 -22.31989,6.6751 -34.62712,20.6511 l -2.29456,-16.89636 -15.43619,0 0,102.21256 20.02532,0 0,-72.17458 c 3.54615,-6.46651 14.81039,-13.14162 23.36287,-13.14162 l 6.46651,0 4.17194,-20.6511 z"
         style="font-style:normal;font-variant:normal;font-weight:normal;font-stretch:normal;font-family:Cabin;-inkscape-font-specification:'Cabin Bold'"
         id="path3380" />
    </g>
  </g>
</svg>
