<?xml version="1.0" encoding="UTF-8" standalone="no"?>
<!-- Created with Inkscape (http://www.inkscape.org/) -->

<svg
   xmlns:dc="http://purl.org/dc/elements/1.1/"
   xmlns:cc="http://creativecommons.org/ns#"
   xmlns:rdf="http://www.w3.org/1999/02/22-rdf-syntax-ns#"
   xmlns:svg="http://www.w3.org/2000/svg"
   xmlns="http://www.w3.org/2000/svg"
   xmlns:sodipodi="http://sodipodi.sourceforge.net/DTD/sodipodi-0.dtd"
   xmlns:inkscape="http://www.inkscape.org/namespaces/inkscape"
   width="300"
   height="257"
   viewBox="0 0 299.99998 257"
   id="svg2"
   version="1.1"
   inkscape:version="0.91 r13725"
   sodipodi:docname="skyline.svg">
  <defs
     id="defs4">
    <marker
       inkscape:stockid="Arrow2Mend"
       orient="auto"
       refY="0"
       refX="0"
       id="Arrow2Mend"
       style="overflow:visible"
       inkscape:isstock="true">
      <path
         id="path4173"
         style="fill:#000000;fill-opacity:1;fill-rule:evenodd;stroke:#000000;stroke-width:0.625;stroke-linejoin:round;stroke-opacity:1"
         d="M 8.7185878,4.0337352 -2.2072895,0.01601326 8.7185884,-4.0017078 c -1.7454984,2.3720609 -1.7354408,5.6174519 -6e-7,8.035443 z"
         transform="scale(-0.6,-0.6)"
         inkscape:connector-curvature="0" />
    </marker>
    <marker
       inkscape:stockid="Arrow2Mstart"
       orient="auto"
       refY="0"
       refX="0"
       id="Arrow2Mstart"
       style="overflow:visible"
       inkscape:isstock="true">
      <path
         id="path4170"
         style="fill:#000000;fill-opacity:1;fill-rule:evenodd;stroke:#000000;stroke-width:0.625;stroke-linejoin:round;stroke-opacity:1"
         d="M 8.7185878,4.0337352 -2.2072895,0.01601326 8.7185884,-4.0017078 c -1.7454984,2.3720609 -1.7354408,5.6174519 -6e-7,8.035443 z"
         transform="scale(0.6,0.6)"
         inkscape:connector-curvature="0" />
    </marker>
    <marker
       inkscape:stockid="Arrow2Lend"
       orient="auto"
       refY="0"
       refX="0"
       id="Arrow2Lend"
       style="overflow:visible"
       inkscape:isstock="true">
      <path
         id="path4167"
         style="fill:#000000;fill-opacity:1;fill-rule:evenodd;stroke:#000000;stroke-width:0.625;stroke-linejoin:round;stroke-opacity:1"
         d="M 8.7185878,4.0337352 -2.2072895,0.01601326 8.7185884,-4.0017078 c -1.7454984,2.3720609 -1.7354408,5.6174519 -6e-7,8.035443 z"
         transform="matrix(-1.1,0,0,-1.1,-1.1,0)"
         inkscape:connector-curvature="0" />
    </marker>
    <marker
       inkscape:stockid="Arrow2Lstart"
       orient="auto"
       refY="0"
       refX="0"
       id="Arrow2Lstart"
       style="overflow:visible"
       inkscape:isstock="true">
      <path
         id="path4164"
         style="fill:#000000;fill-opacity:1;fill-rule:evenodd;stroke:#000000;stroke-width:0.625;stroke-linejoin:round;stroke-opacity:1"
         d="M 8.7185878,4.0337352 -2.2072895,0.01601326 8.7185884,-4.0017078 c -1.7454984,2.3720609 -1.7354408,5.6174519 -6e-7,8.035443 z"
         transform="matrix(1.1,0,0,1.1,1.1,0)"
         inkscape:connector-curvature="0" />
    </marker>
  </defs>
  <sodipodi:namedview
     id="base"
     pagecolor="#ffffff"
     bordercolor="#666666"
     borderopacity="1.0"
     inkscape:pageopacity="0.0"
     inkscape:pageshadow="2"
     inkscape:zoom="2.8"
     inkscape:cx="138.69252"
     inkscape:cy="151.05392"
     inkscape:document-units="px"
     inkscape:current-layer="layer1"
     showgrid="false"
     inkscape:snap-bbox="true"
     inkscape:snap-object-midpoints="true"
     inkscape:snap-grids="true"
     inkscape:snap-to-guides="false"
     inkscape:object-nodes="true"
     inkscape:bbox-nodes="true"
     fit-margin-top="0"
     fit-margin-left="0"
     fit-margin-right="0"
     fit-margin-bottom="0"
     inkscape:window-width="1920"
     inkscape:window-height="1200"
     inkscape:window-x="0"
     inkscape:window-y="0"
     inkscape:window-maximized="0"
     units="px">
    <inkscape:grid
       type="xygrid"
       id="grid4136"
       originx="-94.93221"
       originy="-582.74722" />
  </sodipodi:namedview>
  <metadata
     id="metadata7">
    <rdf:RDF>
      <cc:Work
         rdf:about="">
        <dc:format>image/svg+xml</dc:format>
        <dc:type
           rdf:resource="http://purl.org/dc/dcmitype/StillImage" />
        <dc:title />
      </cc:Work>
    </rdf:RDF>
  </metadata>
  <g
     inkscape:label="Layer 1"
     inkscape:groupmode="layer"
     id="layer1"
     transform="translate(-94.932212,-212.61496)">
    <g
       transform="matrix(0,-1,1,0,0,0)"
       style="font-style:normal;font-weight:normal;font-size:26.06452179px;line-height:125%;font-family:Sans;text-align:start;letter-spacing:0px;word-spacing:0px;text-anchor:start;fill:#000000;fill-opacity:1;stroke:none;stroke-width:1px;stroke-linecap:butt;stroke-linejoin:miter;stroke-opacity:1"
       id="text4612">
      <path
         d="m -346.9301,99.4849 3.46169,0 8.42516,15.89579 0,-15.89579 2.49445,0 0,19.00114 -3.46169,0 -8.42515,-15.8958 0,15.8958 -2.49446,0 0,-19.00114 z"
         style=""
         id="path3351" />
      <path
         d="m -320.46914,118.68585 0,0.74452 -6.99847,0 q 0.0993,1.57176 0.94305,2.399 0.85206,0.81897 2.36592,0.81897 0.87688,0 1.69585,-0.21508 0.82724,-0.21508 1.63794,-0.64525 l 0,1.4394 q -0.81897,0.34745 -1.67931,0.52944 -0.86033,0.18199 -1.74548,0.18199 -2.21701,0 -3.51578,-1.2905 -1.2905,-1.2905 -1.2905,-3.49096 0,-2.27492 1.22432,-3.60678 1.23259,-1.34014 3.31724,-1.34014 1.86957,0 2.95326,1.20778 1.09196,1.1995 1.09196,3.26761 z m -1.52212,-0.44671 q -0.0165,-1.24914 -0.70316,-1.99366 -0.67834,-0.74452 -1.80339,-0.74452 -1.27396,0 -2.04329,0.71971 -0.76107,0.7197 -0.87688,2.02674 l 5.42672,-0.008 z"
         style="font-size:64.99999762%;baseline-shift:sub"
         id="path3353" />
    </g>
    <path
       id="path5577-5"
       style="fill:#6f00ff;fill-opacity:0.53333327;fill-rule:evenodd;stroke:none;stroke-width:1px;stroke-linecap:butt;stroke-linejoin:miter;stroke-opacity:1"
       d="m 129.99998,377.3622 c 35,0 17.17459,-10.56576 70,-20 34.80464,-6.21586 10.22523,-44.74046 60,-40 l 105,10 0,-55 -105,10 c -49.77477,4.74046 -26.67941,7.40026 -60,50 -28.21429,36.07143 -35,20 -70,20 z"
       inkscape:connector-curvature="0"
       sodipodi:nodetypes="cssccsscc" />
    <path
       style="fill:none;fill-rule:evenodd;stroke:#6f00ff;stroke-width:3;stroke-linecap:butt;stroke-linejoin:miter;stroke-opacity:1;stroke-miterlimit:4;stroke-dasharray:none"
       d="m 129.99998,367.3622 c 15,0 40,-5 50,-10 10,-5 25,-5 30,-15 5,-10 15,-30 20,-35 13.98751,-12.99325 96.91783,-5 135,-5"
       id="path5594"
       inkscape:connector-curvature="0"
       sodipodi:nodetypes="csscc" />
    <path
       style="fill:none;fill-rule:evenodd;stroke:#000000;stroke-width:3.79225349;stroke-linecap:butt;stroke-linejoin:miter;stroke-miterlimit:4;stroke-dasharray:none;stroke-opacity:1;marker-start:url(#Arrow2Mstart);marker-end:url(#Arrow2Mend)"
       d="m 130.37092,247.58368 0,164.33098 252.8169,0"
       id="path4138"
       inkscape:connector-curvature="0"
       sodipodi:nodetypes="ccc" />
    <g
       style="font-style:normal;font-weight:normal;font-size:26.06452179px;line-height:125%;font-family:Sans;text-align:start;letter-spacing:0px;word-spacing:0px;text-anchor:start;fill:#000000;fill-opacity:1;stroke:none;stroke-width:1px;stroke-linecap:butt;stroke-linejoin:miter;stroke-opacity:1"
       id="text4612-8">
      <path
         d="m 239.10616,422.47995 -3.48715,9.45603 6.98702,0 -3.49987,-9.45603 z m -1.45086,-2.53263 2.91444,0 7.24156,19.00114 -2.67263,0 -1.73085,-4.87438 -8.56514,0 -1.73085,4.87438 -2.71081,0 7.25428,-19.00114 z"
         style=""
         id="path3356" />
      <path
         d="m 259.85087,431.65599 q 0,-2.54536 -1.05632,-3.94531 -1.0436,-1.39995 -2.9399,-1.39995 -1.88357,0 -2.93989,1.39995 -1.0436,1.39995 -1.0436,3.94531 0,2.53264 1.0436,3.93259 1.05632,1.39995 2.93989,1.39995 1.8963,0 2.9399,-1.39995 1.05632,-1.39995 1.05632,-3.93259 z m 2.34174,5.52344 q 0,3.63987 -1.61631,5.4089 -1.6163,1.78175 -4.95073,1.78175 -1.2345,0 -2.32901,-0.1909 -1.0945,-0.17818 -2.12538,-0.55998 l 0,-2.2781 q 1.03088,0.55998 2.03629,0.82724 1.00542,0.26726 2.04902,0.26726 2.30356,0 3.44897,-1.20904 1.14541,-1.19632 1.14541,-3.62715 l 0,-1.15814 q -0.72543,1.25996 -1.85811,1.88357 -1.13269,0.62362 -2.71081,0.62362 -2.62173,0 -4.22531,-1.99811 -1.60358,-1.99811 -1.60358,-5.29436 0,-3.30897 1.60358,-5.30708 1.60358,-1.99811 4.22531,-1.99811 1.57812,0 2.71081,0.62361 1.13268,0.62361 1.85811,1.88357 l 0,-2.16356 2.34174,0 0,12.48501 z"
         style=""
         id="path3358" />
      <path
         d="m 279.20836,431.236 0,1.14542 -10.76689,0 q 0.15273,2.41809 1.45086,3.69078 1.31086,1.25995 3.63987,1.25995 1.34904,0 2.609,-0.3309 1.27268,-0.33089 2.51991,-0.99269 l 0,2.21447 q -1.25996,0.53452 -2.58354,0.81451 -1.32359,0.27999 -2.68536,0.27999 -3.41079,0 -5.4089,-1.98538 -1.98538,-1.98538 -1.98538,-5.37072 0,-3.49987 1.88356,-5.54889 1.8963,-2.06174 5.10346,-2.06174 2.87626,0 4.54347,1.85811 1.67994,1.84539 1.67994,5.02709 z m -2.34173,-0.68724 q -0.0255,-1.92175 -1.08178,-3.06717 -1.0436,-1.14541 -2.77445,-1.14541 -1.95993,0 -3.14352,1.10723 -1.17087,1.10724 -1.34904,3.11807 l 8.34879,-0.0127 z"
         style=""
         id="path3360" />
    </g>
  </g>
</svg>
