<?xml version="1.0" encoding="UTF-8" standalone="no"?>
<svg
   xmlns:dc="http://purl.org/dc/elements/1.1/"
   xmlns:cc="http://creativecommons.org/ns#"
   xmlns:rdf="http://www.w3.org/1999/02/22-rdf-syntax-ns#"
   xmlns:svg="http://www.w3.org/2000/svg"
   xmlns="http://www.w3.org/2000/svg"
   viewBox="0 0 458.39749 152.16322"
   height="152.16322"
   width="458.39749"
   xml:space="preserve"
   version="1.1"
   id="svg2"><metadata
     id="metadata8"><rdf:RDF><cc:Work
         rdf:about=""><dc:format>image/svg+xml</dc:format><dc:type
           rdf:resource="http://purl.org/dc/dcmitype/StillImage" /><dc:title></dc:title></cc:Work></rdf:RDF></metadata><defs
     id="defs6" /><g
     transform="matrix(1.25,0,0,-1.25,0,152.16323)"
     id="g10"><g
       id="g12"><path
         id="path14"
         style="fill:#ffffff;fill-opacity:1;fill-rule:evenodd;stroke:none"
         d="m 28.234,57.879 c 25.09,10.625 27.508,32.25 27.508,35.5 l 0,28.063 -55.012,0 0,-28.063 c 0,-3.25 2.415,-24.875 27.504,-35.5" /><g
         transform="matrix(0,-1,0.991239,0,0,121.73058)"
         id="g16"><path
           id="path18"
           style="fill:none;stroke:#231f20;stroke-width:0.606677;stroke-linecap:butt;stroke-linejoin:miter;stroke-miterlimit:10;stroke-dasharray:none;stroke-opacity:1"
           d="M 63.855,28.484 C 53.23,53.796 31.605,56.231 28.355,56.231 l -28.058,0 0,-55.494 28.058,0 c 3.25,0 24.875,2.435 35.5,27.747" /></g><path
         id="path20"
         style="fill:#104e8a;fill-opacity:1;fill-rule:evenodd;stroke:none"
         d="m 55.742,104.692 -0.621,0 c -1.609,0 -3.16,-0.438 -4.461,-1.188 -1.301,-0.812 -2.851,-1.25 -4.461,-1.25 -1.672,0 -3.156,0.438 -4.519,1.25 -1.301,0.75 -2.852,1.25 -4.461,1.25 -1.672,0 -3.16,-0.5 -4.461,-1.25 l -0.063,0 c -1.3,-0.812 -2.847,-1.25 -4.461,-1.25 -1.609,0 -3.16,0.438 -4.461,1.25 -1.363,0.813 -2.847,1.25 -4.523,1.25 -1.609,0 -3.16,-0.437 -4.457,-1.25 -1.301,-0.75 -2.852,-1.187 -4.461,-1.187 -1.672,0 -3.16,0.437 -4.523,1.187 -1.301,0.813 -2.848,1.25 -4.461,1.25 -0.184,0 -0.246,0 -0.496,-0.062 l -0.122,0 0,-11.313 c 0,-3.25 2.415,-24.875 27.504,-35.5 25.09,10.625 27.508,32.25 27.508,35.5 l 0,11.313" /><g
         transform="matrix(0,-1,0.991239,0,0,121.73058)"
         id="g22"><path
           id="path24"
           style="fill:none;stroke:#231f20;stroke-width:0.606677;stroke-linecap:butt;stroke-linejoin:miter;stroke-miterlimit:10;stroke-dasharray:none;stroke-opacity:1"
           d="m 17.047,56.231 0,-0.623 c 0,-1.627 0.433,-3.188 1.183,-4.5 0.813,-1.312 1.25,-2.873 1.25,-4.5 0,-1.687 -0.437,-3.185 -1.25,-4.564 -0.75,-1.312 -1.25,-2.873 -1.25,-4.5 0,-1.687 0.5,-3.184 1.25,-4.497 l 0,-0.063 c 0.813,-1.312 1.25,-2.876 1.25,-4.5 0,-1.624 -0.437,-3.188 -1.25,-4.5 -0.812,-1.376 -1.25,-2.873 -1.25,-4.56 0,-1.627 0.438,-3.188 1.25,-4.5 0.75,-1.316 1.188,-2.877 1.188,-4.501 0,-1.69 -0.438,-3.188 -1.188,-4.563 -0.812,-1.312 -1.25,-2.873 -1.25,-4.5 0,-0.186 0,-0.249 0.067,-0.501 l 0,-0.122 11.308,0 c 3.25,0 24.875,2.435 35.5,27.747 -10.625,25.312 -32.25,27.747 -35.5,27.747 l -11.308,0" /></g><path
         id="path26"
         style="fill:#ffffff;fill-opacity:1;fill-rule:evenodd;stroke:none"
         d="m 28.234,90.129 c 2.789,1.938 5.578,2.25 8.176,1.125 2.168,-0.937 3.719,-1 5.766,-0.562 l 2.785,-1.375 0.621,0 c 0.184,0.187 0.492,0.312 0.805,0.312 0.496,0 0.929,-0.375 0.929,-0.875 0,-0.562 -0.433,-0.937 -0.929,-0.937 -0.313,0 -0.621,0.125 -0.805,0.312 l -0.621,0 0,-0.75 0.621,0 c 0.184,0.25 0.492,0.375 0.805,0.375 0.496,0 0.929,-0.437 0.929,-0.937 0,-0.5 -0.433,-0.938 -0.929,-0.938 -0.313,0 -0.621,0.125 -0.805,0.375 l -0.621,0 0,-0.75 0.621,0 c 0.184,0.188 0.492,0.313 0.805,0.313 0.496,0 0.929,-0.375 0.929,-0.938 0,-0.5 -0.433,-0.875 -0.929,-0.875 -0.313,0 -0.621,0.125 -0.742,0.313 l -0.684,0 0,-0.75 0.684,0 c 0.121,0.187 0.429,0.375 0.742,0.375 0.496,0 0.929,-0.438 0.929,-0.938 0,-0.5 -0.433,-0.937 -0.929,-0.937 -0.313,0 -0.621,0.125 -0.742,0.375 l -0.684,0 0,-0.813 0.684,0 c 0.121,0.25 0.429,0.375 0.742,0.375 0.554,0 0.992,-0.375 0.992,-0.937 0,-0.5 -0.438,-0.875 -0.992,-0.875 -0.313,0 -0.559,0.125 -0.742,0.312 l -0.684,0 0,-0.75 0.684,0 c 0.183,0.188 0.429,0.375 0.742,0.375 0.554,0 0.992,-0.437 0.992,-0.937 0,-0.5 -0.438,-0.938 -0.992,-0.938 -0.313,0 -0.559,0.125 -0.742,0.375 l -0.684,0 0,-0.812 0.684,0 c 0.183,0.25 0.429,0.375 0.742,0.375 0.554,0 0.992,-0.438 0.992,-0.938 0,-0.5 -0.438,-0.937 -0.992,-0.937 -0.313,0 -0.559,0.187 -0.742,0.375 l -0.684,0 c -1.609,-1.375 -3.281,-1.938 -5.203,-1.938 -1.672,0 -2.602,0.25 -3.656,0.938 -1.735,1.187 -3.778,1.187 -5.512,0 0.371,-0.188 0.617,-0.563 0.617,-1 0,-0.625 -0.496,-1.125 -1.113,-1.125 l -3.719,0 c -0.617,0 -1.113,0.5 -1.113,1.125 0,0.437 0.246,0.812 0.617,1 -1.672,1.187 -3.777,1.187 -5.512,0 -1.055,-0.688 -1.984,-0.938 -3.656,-0.938 -1.918,0 -3.59,0.563 -5.203,1.938 l -0.68,0 c -0.187,-0.188 -0.433,-0.375 -0.746,-0.375 -0.496,0 -0.926,0.437 -0.926,0.937 0,0.5 0.43,0.938 0.926,0.938 0.313,0 0.621,-0.125 0.746,-0.375 l 0.68,0 0,0.812 -0.68,0 c -0.125,-0.25 -0.433,-0.375 -0.746,-0.375 -0.496,0 -0.926,0.438 -0.926,0.938 0,0.5 0.43,0.937 0.926,0.937 0.313,0 0.621,-0.187 0.746,-0.375 l 0.68,0 0,0.75 -0.68,0 c -0.125,-0.187 -0.433,-0.312 -0.746,-0.312 -0.496,0 -0.926,0.375 -0.926,0.875 0,0.562 0.43,0.937 0.926,0.937 0.313,0 0.621,-0.125 0.809,-0.375 l 0.617,0 0,0.813 -0.617,0 c -0.188,-0.25 -0.496,-0.375 -0.809,-0.375 -0.496,0 -0.926,0.437 -0.926,0.937 0,0.5 0.43,0.938 0.926,0.938 0.313,0 0.621,-0.188 0.809,-0.375 l 0.617,0 0,0.75 -0.617,0 c -0.188,-0.188 -0.496,-0.313 -0.809,-0.313 -0.496,0 -0.926,0.375 -0.926,0.875 0,0.563 0.43,0.938 0.926,0.938 0.313,0 0.621,-0.125 0.809,-0.313 l 0.617,0 0,0.75 -0.617,0 c -0.188,-0.25 -0.496,-0.375 -0.809,-0.375 -0.496,0 -0.926,0.438 -0.926,0.938 0,0.5 0.43,0.937 0.926,0.937 0.313,0 0.621,-0.125 0.809,-0.375 l 0.617,0 0,0.75 -0.617,0 c -0.188,-0.187 -0.496,-0.312 -0.809,-0.312 -0.496,0 -0.926,0.375 -0.926,0.937 0,0.5 0.43,0.875 0.926,0.875 0.313,0 0.621,-0.125 0.809,-0.312 l 0.617,0 2.851,1.375 c 2.043,-0.438 3.528,-0.375 5.7,0.562 2.601,1.125 5.386,0.813 8.175,-1.125" /><g
         transform="matrix(0,-1,0.991239,0,0,121.73058)"
         id="g28"><path
           id="path30"
           style="fill:none;stroke:#231f20;stroke-width:0.606677;stroke-linecap:round;stroke-linejoin:miter;stroke-miterlimit:10;stroke-dasharray:none;stroke-opacity:1"
           d="m 31.605,28.484 c -1.937,2.814 -2.25,5.623 -1.125,8.248 0.938,2.187 1,3.752 0.563,5.813 l 1.375,2.813 0,0.627 c -0.188,0.185 -0.313,0.5 -0.313,0.812 0,0.5 0.375,0.934 0.875,0.934 0.563,0 0.938,-0.434 0.938,-0.934 0,-0.312 -0.125,-0.627 -0.313,-0.812 l 0,-0.627 0.75,0 0,0.627 c -0.25,0.185 -0.375,0.5 -0.375,0.812 0,0.5 0.438,0.934 0.938,0.934 0.5,0 0.937,-0.434 0.937,-0.934 0,-0.312 -0.125,-0.627 -0.375,-0.812 l 0,-0.627 0.75,0 0,0.627 c -0.187,0.185 -0.312,0.5 -0.312,0.812 0,0.5 0.375,0.934 0.937,0.934 0.5,0 0.875,-0.434 0.875,-0.934 0,-0.312 -0.125,-0.627 -0.312,-0.753 l 0,-0.686 0.75,0 0,0.686 c -0.188,0.126 -0.375,0.441 -0.375,0.753 0,0.5 0.437,0.934 0.937,0.934 0.5,0 0.938,-0.434 0.938,-0.934 0,-0.312 -0.125,-0.627 -0.375,-0.753 l 0,-0.686 0.812,0 0,0.686 c -0.25,0.126 -0.375,0.441 -0.375,0.753 0,0.559 0.375,1.001 0.938,1.001 0.5,0 0.875,-0.442 0.875,-1.001 0,-0.312 -0.125,-0.564 -0.313,-0.753 l 0,-0.686 0.75,0 0,0.686 c -0.187,0.189 -0.375,0.441 -0.375,0.753 0,0.559 0.438,1.001 0.938,1.001 0.5,0 0.937,-0.442 0.937,-1.001 0,-0.312 -0.125,-0.564 -0.375,-0.753 l 0,-0.686 0.813,0 0,0.686 c -0.25,0.189 -0.375,0.441 -0.375,0.753 0,0.559 0.437,1.001 0.937,1.001 0.5,0 0.938,-0.442 0.938,-1.001 0,-0.312 -0.188,-0.564 -0.375,-0.753 l 0,-0.686 c 1.375,-1.623 1.937,-3.314 1.937,-5.249 0,-1.686 -0.25,-2.624 -0.937,-3.688 -1.188,-1.75 -1.188,-3.811 0,-5.565 0.187,0.379 0.562,0.627 1,0.627 0.625,0 1.125,-0.501 1.125,-1.123 l 0,-3.752 c 0,-0.626 -0.5,-1.123 -1.125,-1.123 -0.438,0 -0.813,0.248 -1,0.627 -1.188,-1.691 -1.188,-3.815 0,-5.565 0.687,-1.064 0.937,-2.002 0.937,-3.688 0,-1.935 -0.562,-3.626 -1.937,-5.249 l 0,-0.686 c 0.187,-0.189 0.375,-0.442 0.375,-0.753 0,-0.496 -0.438,-0.934 -0.938,-0.934 -0.5,0 -0.937,0.438 -0.937,0.934 0,0.311 0.125,0.627 0.375,0.753 l 0,0.686 -0.813,0 0,-0.686 c 0.25,-0.126 0.375,-0.442 0.375,-0.753 0,-0.496 -0.437,-0.934 -0.937,-0.934 -0.5,0 -0.938,0.438 -0.938,0.934 0,0.311 0.188,0.627 0.375,0.753 l 0,0.686 -0.75,0 0,-0.686 c 0.188,-0.126 0.313,-0.442 0.313,-0.753 0,-0.496 -0.375,-0.934 -0.875,-0.934 -0.563,0 -0.938,0.438 -0.938,0.934 0,0.311 0.125,0.627 0.375,0.816 l 0,0.623 -0.812,0 0,-0.623 c 0.25,-0.189 0.375,-0.505 0.375,-0.816 0,-0.496 -0.438,-0.934 -0.938,-0.934 -0.5,0 -0.937,0.438 -0.937,0.934 0,0.311 0.187,0.627 0.375,0.816 l 0,0.623 -0.75,0 0,-0.623 c 0.187,-0.189 0.312,-0.505 0.312,-0.816 0,-0.496 -0.375,-0.934 -0.875,-0.934 -0.562,0 -0.937,0.438 -0.937,0.934 0,0.311 0.125,0.627 0.312,0.816 l 0,0.623 -0.75,0 0,-0.623 c 0.25,-0.189 0.375,-0.505 0.375,-0.816 0,-0.496 -0.437,-0.934 -0.937,-0.934 -0.5,0 -0.938,0.438 -0.938,0.934 0,0.311 0.125,0.627 0.375,0.816 l 0,0.623 -0.75,0 0,-0.623 c 0.188,-0.189 0.313,-0.505 0.313,-0.816 0,-0.496 -0.375,-0.934 -0.938,-0.934 -0.5,0 -0.875,0.438 -0.875,0.934 0,0.311 0.125,0.627 0.313,0.816 l 0,0.623 -1.375,2.876 c 0.437,2.061 0.375,3.563 -0.563,5.75 -1.125,2.624 -0.812,5.434 1.125,8.248 m 15.375,-1.502 0,3.003 m -15.375,-1.501 15.375,0 m -15.625,14.372 12.5,0 c 0.938,-1.75 1.25,-3.184 -0.187,-5.935 -1.625,-3.188 -0.625,-6.498 1.312,-8.437 -1.937,-1.939 -2.937,-5.249 -1.312,-8.437 1.437,-2.751 1.125,-4.185 0.187,-5.939 l -12.5,0" /></g><g
         transform="matrix(0,-1,0.991239,0,0,121.73058)"
         id="g32"><path
           id="path34"
           style="fill:none;stroke:#231f20;stroke-width:0.606677;stroke-linecap:round;stroke-linejoin:bevel;stroke-miterlimit:10;stroke-dasharray:none;stroke-opacity:1"
           d="m 31.855,44.046 12.688,0 c 1.562,-2.498 1.625,-4.938 0.437,-7.062 -1.562,-2.75 -1.437,-6.502 2,-8.5 -3.437,-1.998 -3.562,-5.75 -2,-8.5 1.188,-2.061 1.125,-4.564 -0.437,-7.062 l -12.688,0" /></g><path
         id="path36"
         style="fill:#ffffff;fill-opacity:1;fill-rule:evenodd;stroke:none"
         d="m 17.453,102.254 1.055,-3.437 3.594,0 -2.973,-2.125 1.051,-3.375 -2.727,2.125 -2.785,-2.125 1.055,3.375 -2.914,2.125 3.531,0 1.113,3.437" /><g
         transform="matrix(0,-1,0.991239,0,0,121.73058)"
         id="g38"><path
           id="path40"
           style="fill:none;stroke:#231f20;stroke-width:0.606677;stroke-linecap:butt;stroke-linejoin:miter;stroke-miterlimit:10;stroke-dasharray:none;stroke-opacity:1"
           d="m 19.48,17.611 3.438,1.06 0,3.626 2.125,-2.999 3.379,1.06 -2.129,-2.747 2.129,-2.813 -3.379,1.064 -2.125,-2.94 0,3.562 -3.438,1.127" /></g><path
         id="path42"
         style="fill:#ffffff;fill-opacity:1;fill-rule:evenodd;stroke:none"
         d="m 39.012,102.254 1.117,-3.375 3.531,0 -2.914,-2.125 1.055,-3.375 -2.789,2.125 -2.723,-2.125 1.051,3.375 -2.973,2.125 3.594,0 1.051,3.375" /><g
         transform="matrix(0,-1,0.991239,0,0,121.73058)"
         id="g44"><path
           id="path46"
           style="fill:none;stroke:#231f20;stroke-width:0.606677;stroke-linecap:butt;stroke-linejoin:miter;stroke-miterlimit:10;stroke-dasharray:none;stroke-opacity:1"
           d="m 19.48,39.357 3.375,1.127 0,3.562 2.125,-2.94 3.375,1.064 -2.125,-2.813 2.125,-2.747 -3.375,1.064 -2.125,-3.003 0,3.625 -3.375,1.061" /></g><path
         id="path48"
         style="fill:#ffffff;fill-opacity:1;fill-rule:evenodd;stroke:none"
         d="m 28.234,70.817 1.055,-3.438 3.594,0 -2.914,-2.125 1.054,-3.375 -2.789,2.125 -2.789,-2.125 1.055,3.375 -2.91,2.125 3.59,0 1.054,3.438" /><g
         transform="matrix(0,-1,0.991239,0,0,121.73058)"
         id="g50"><path
           id="path52"
           style="fill:none;stroke:#231f20;stroke-width:0.606677;stroke-linecap:butt;stroke-linejoin:miter;stroke-miterlimit:10;stroke-dasharray:none;stroke-opacity:1"
           d="m 50.918,28.484 3.437,1.064 0,3.625 2.125,-2.939 3.375,1.064 -2.125,-2.814 2.125,-2.814 -3.375,1.064 -2.125,-2.936 0,3.622 -3.437,1.064" /></g><path
         id="path54"
         style="fill:#231f20;fill-opacity:1;fill-rule:evenodd;stroke:none"
         d="m 8.906,117.254 c 1.055,1.188 2.356,1.313 2.91,1.313 4.274,0.125 6.383,-3.063 6.321,-5.625 -0.125,-2.875 -2.293,-3.563 -2.602,-3.688 0,0 -0.062,-0.625 0.434,-1.437 0.062,-0.063 0.121,-0.188 0.062,-0.313 -0.062,-0.062 -0.125,-0.187 -0.125,-0.25 -0.062,0 -0.062,-0.125 -0.062,-0.187 0.062,-0.188 0,-0.438 -0.121,-0.688 -0.125,-0.25 0,-0.812 0.058,-1.25 0,-0.062 -0.058,-0.062 -0.121,0 -0.25,0.188 -0.433,0.688 -0.496,1 -0.559,-0.125 -1.117,-0.875 -1.363,-1.312 0,-0.063 -0.125,-0.125 -0.125,0 0,0 -0.125,0.875 0.742,1.5 -0.43,0.125 -0.867,-0.063 -1.176,-0.25 0,0 -0.121,-0.063 -0.062,0.062 0.062,0.063 0.25,0.563 1.363,0.75 0,0.063 0.25,0.375 0.371,0.688 -0.059,0.437 -0.246,0.937 -0.496,1.437 -0.059,0 -0.867,-0.062 -1.422,-0.5 0,-0.062 -0.062,-0.125 -0.062,-0.25 l 0,-0.187 c 0,-0.063 -0.063,-0.313 -0.372,-0.375 0,0 -0.929,-0.313 -1.363,-0.5 0,-0.063 -0.433,-0.25 -0.742,-0.625 -0.062,-0.063 -0.25,-0.438 -0.621,-0.563 -0.063,0 -0.25,-0.125 -0.371,-0.25 -0.125,-0.125 -0.25,-0.25 -0.371,-0.312 -0.125,-0.063 -0.375,-0.375 -0.559,-0.75 0,0 -0.062,-0.063 -0.062,0 l 0,0.375 c 0.125,0.5 0.308,0.687 0.496,0.937 -0.063,0 -0.063,0 -0.125,0.063 -0.309,-0.063 -1.426,0 -2.043,-0.313 -0.063,0 -0.063,0 -0.063,0.063 0.125,0.187 0.371,0.812 1.797,0.812 0,0.188 -0.621,0.5 -0.992,0.5 -0.063,0 0,0.063 0,0.063 0.125,0 0.742,0.312 1.488,-0.188 0,0 0.555,0.188 0.805,0.25 0.371,0.25 1.117,1 1.426,1.125 l 0,0.375 c -0.434,0.563 -0.496,1.438 -0.496,1.875 -0.805,0.125 -1.672,0.813 -2.168,1.438 -0.559,0.062 -1.735,0.562 -2.418,1.875 -2.106,-1.563 -3.532,-4.375 -3.594,-4.5 -0.063,-0.063 -0.121,-0.063 -0.121,0 -0.25,0.437 -0.309,1.062 -0.25,1.25 0.433,1.187 1.426,2.75 2.539,4.187 -0.434,2.375 1.734,3.188 2.601,3.125 0.868,0 1.489,-0.562 1.551,-0.75" /><path
         id="path56"
         style="fill:#ffffff;fill-opacity:1;fill-rule:evenodd;stroke:none"
         d="m 8.781,116.192 c 0,0 0.992,1.687 2.356,1.687 -0.371,-0.312 -0.496,-0.562 -0.496,-0.562 l 0,-0.125 c 0,0 0.621,0.687 1.797,0.687 -0.434,-0.312 -0.559,-0.625 -0.559,-0.625 l 0,-0.062 c -0.063,-0.063 0.805,0.562 2.047,0.062 -0.313,0 -0.746,-0.187 -0.746,-0.312 -0.059,-0.063 0,-0.063 0,-0.063 1.488,0.188 2.851,-1.437 2.851,-3 -0.062,-1.125 -0.804,-2.25 -2.23,-2.562 -0.188,-0.25 -0.496,-1.188 -0.496,-1.188 -0.68,-0.187 -1.489,-0.812 -1.61,-0.937 l -0.062,0 -0.063,0.062 c -0.246,0.438 -0.246,1.75 -0.246,1.938 -1.488,-0.125 -2.293,1.25 -2.48,1.375 -1.672,0.125 -2.418,2 -2.539,2.125 -1.239,-0.75 -2.477,-2.313 -3.285,-3.563 0,0.063 -0.059,0 0,0.063 0.929,2 2.046,2.937 2.355,3.562 -0.742,1.625 1.176,2.75 1.98,2.625 1.18,0 1.426,-1.187 1.426,-1.187" /><path
         id="path58"
         style="fill:#231f20;fill-opacity:1;fill-rule:evenodd;stroke:none"
         d="m 5.684,115.442 c 0,0.187 0.187,0.312 0.371,0.312 0.187,0 0.371,-0.125 0.371,-0.312 0,-0.25 -0.184,-0.375 -0.371,-0.375 -0.184,0 -0.371,0.125 -0.371,0.375" /><path
         id="path60"
         style="fill:#231f20;fill-opacity:1;fill-rule:evenodd;stroke:none"
         d="m 26.809,117.254 c 0.992,1.188 2.293,1.313 2.914,1.313 4.211,0.125 6.316,-3.063 6.254,-5.625 -0.122,-2.875 -2.289,-3.563 -2.602,-3.688 0,0 -0.059,-0.625 0.437,-1.437 0.059,-0.063 0.122,-0.188 0.059,-0.313 0,-0.062 -0.121,-0.187 -0.121,-0.25 0,0 -0.062,-0.125 0,-0.187 0,-0.188 -0.062,-0.438 -0.188,-0.688 -0.124,-0.25 0,-0.812 0.063,-1.25 0,-0.062 -0.063,-0.062 -0.063,0 -0.308,0.188 -0.496,0.688 -0.558,1 -0.496,-0.125 -1.113,-0.875 -1.301,-1.312 -0.062,-0.063 -0.121,-0.125 -0.183,0 0,0 -0.063,0.875 0.742,1.5 -0.434,0.125 -0.867,-0.063 -1.176,-0.25 0,0 -0.125,-0.063 0,0.062 0,0.063 0.246,0.563 1.301,0.75 0.062,0.063 0.246,0.375 0.371,0.688 0,0.437 -0.25,0.937 -0.496,1.437 -0.063,0 -0.805,-0.062 -1.364,-0.5 -0.062,-0.062 -0.125,-0.125 -0.125,-0.25 l 0,-0.187 c 0,-0.063 -0.062,-0.313 -0.308,-0.375 -0.063,0 -0.992,-0.313 -1.426,-0.5 0,-0.063 -0.434,-0.25 -0.68,-0.625 -0.062,-0.063 -0.312,-0.438 -0.621,-0.563 -0.125,0 -0.308,-0.125 -0.433,-0.25 -0.125,-0.125 -0.246,-0.25 -0.371,-0.312 -0.063,-0.063 -0.372,-0.375 -0.496,-0.75 -0.063,0 -0.126,-0.063 -0.126,0 l 0,0.375 c 0.126,0.5 0.313,0.687 0.497,0.937 -0.063,0 -0.063,0 -0.125,0.063 -0.309,-0.063 -1.36,0 -2.043,-0.313 0,0 -0.063,0 0,0.063 0.062,0.187 0.308,0.812 1.734,0.812 0.063,0.188 -0.617,0.5 -0.93,0.5 -0.121,0 -0.058,0.063 0,0.063 0.063,0 0.684,0.312 1.426,-0.188 0.063,0 0.559,0.188 0.805,0.25 0.371,0.25 1.117,1 1.426,1.125 l 0,0.375 c -0.434,0.563 -0.497,1.438 -0.434,1.875 -0.867,0.125 -1.734,0.813 -2.168,1.438 -0.621,0.062 -1.797,0.562 -2.414,1.875 -2.168,-1.563 -3.594,-4.375 -3.656,-4.5 -0.063,-0.063 -0.063,-0.063 -0.125,0 -0.246,0.437 -0.309,1.062 -0.184,1.25 0.371,1.187 1.422,2.75 2.477,4.187 -0.434,2.375 1.734,3.188 2.601,3.125 0.867,0 1.485,-0.562 1.61,-0.75" /><path
         id="path62"
         style="fill:#ffffff;fill-opacity:1;fill-rule:evenodd;stroke:none"
         d="m 26.625,116.192 c 0,0 1.051,1.687 2.352,1.687 -0.372,-0.312 -0.434,-0.562 -0.434,-0.562 l 0,-0.125 c 0,0 0.559,0.687 1.734,0.687 -0.371,-0.312 -0.554,-0.625 -0.554,-0.625 l 0,-0.062 c 0,-0.063 0.804,0.562 2.043,0.062 -0.246,0 -0.68,-0.187 -0.743,-0.312 -0.062,-0.063 0,-0.063 0,-0.063 1.547,0.188 2.911,-1.437 2.848,-3 -0.059,-1.125 -0.742,-2.25 -2.23,-2.562 -0.184,-0.25 -0.493,-1.188 -0.493,-1.188 -0.683,-0.187 -1.488,-0.812 -1.613,-0.937 l -0.062,0.062 c -0.246,0.438 -0.246,1.75 -0.309,1.938 -1.426,-0.125 -2.293,1.25 -2.48,1.375 -1.672,0.125 -2.352,2 -2.477,2.125 -1.301,-0.75 -2.477,-2.313 -3.344,-3.563 l 0,0.063 c 0.93,2 2.043,2.937 2.356,3.562 -0.684,1.625 1.176,2.75 2.043,2.625 1.113,0 1.363,-1.187 1.363,-1.187" /><path
         id="path64"
         style="fill:#231f20;fill-opacity:1;fill-rule:evenodd;stroke:none"
         d="m 23.59,115.442 c 0,0.187 0.121,0.312 0.308,0.312 0.247,0 0.372,-0.125 0.372,-0.312 0,-0.25 -0.125,-0.375 -0.372,-0.375 -0.187,0 -0.308,0.125 -0.308,0.375" /><path
         id="path66"
         style="fill:#231f20;fill-opacity:1;fill-rule:evenodd;stroke:none"
         d="m 44.527,117.254 c 0.993,1.188 2.293,1.313 2.911,1.313 4.214,0.125 6.382,-3.063 6.257,-5.625 -0.058,-2.875 -2.293,-3.563 -2.539,-3.688 0,0 -0.062,-0.625 0.434,-1.437 0,-0.063 0.125,-0.188 0,-0.313 0,-0.062 -0.063,-0.187 -0.125,-0.25 l 0,-0.187 c 0.062,-0.188 0,-0.438 -0.121,-0.688 -0.125,-0.25 0,-0.812 0.058,-1.25 0,-0.062 -0.058,-0.062 -0.121,0 -0.25,0.188 -0.496,0.688 -0.558,1 -0.496,-0.125 -1.118,-0.875 -1.301,-1.312 0,-0.063 -0.125,-0.125 -0.125,0 0,0 -0.125,0.875 0.68,1.5 -0.372,0.125 -0.805,-0.063 -1.114,-0.25 0,0 -0.125,-0.063 -0.062,0.062 0,0.063 0.25,0.563 1.363,0.75 0,0.063 0.25,0.375 0.309,0.688 0,0.437 -0.184,0.937 -0.496,1.437 0,0 -0.805,-0.062 -1.36,-0.5 0,-0.062 -0.125,-0.125 -0.125,-0.25 l 0,-0.187 c 0.063,-0.063 0,-0.313 -0.308,-0.375 0,0 -0.93,-0.313 -1.364,-0.5 -0.062,-0.063 -0.433,-0.25 -0.746,-0.625 -0.058,-0.063 -0.308,-0.438 -0.617,-0.563 -0.062,0 -0.25,-0.125 -0.371,-0.25 -0.125,-0.125 -0.25,-0.25 -0.371,-0.312 -0.125,-0.063 -0.371,-0.375 -0.559,-0.75 0,0 -0.062,-0.063 -0.062,0 l 0,0.375 c 0.125,0.5 0.308,0.687 0.496,0.937 -0.063,0 -0.063,0 -0.125,0.063 -0.371,-0.063 -1.422,0 -2.043,-0.313 -0.063,0 -0.125,0 -0.063,0.063 0.125,0.187 0.371,0.812 1.797,0.812 0,0.188 -0.621,0.5 -0.992,0.5 -0.059,0 0,0.063 0,0.063 0.063,0 0.746,0.312 1.488,-0.188 0,0 0.496,0.188 0.805,0.25 0.309,0.25 1.113,1 1.426,1.125 0,0.063 -0.063,0.25 0,0.375 l -0.063,0 c -0.371,0.563 -0.433,1.438 -0.433,1.875 -0.805,0.125 -1.672,0.813 -2.168,1.438 -0.559,0.062 -1.797,0.562 -2.418,1.875 -2.168,-1.563 -3.531,-4.375 -3.656,-4.5 0,-0.063 -0.059,-0.063 -0.122,0 -0.187,0.437 -0.25,1.062 -0.187,1.25 0.434,1.187 1.426,2.75 2.543,4.187 -0.438,2.375 1.734,3.188 2.539,3.125 0.93,0 1.484,-0.562 1.609,-0.75" /><path
         id="path68"
         style="fill:#ffffff;fill-opacity:1;fill-rule:evenodd;stroke:none"
         d="m 44.344,116.192 c 0,0 1.051,1.687 2.351,1.687 -0.371,-0.312 -0.433,-0.562 -0.433,-0.562 l 0,-0.125 c 0,0 0.621,0.687 1.797,0.687 -0.434,-0.312 -0.621,-0.625 -0.621,-0.625 l 0,-0.062 c 0,-0.063 0.808,0.562 2.109,0.062 -0.313,0 -0.746,-0.187 -0.809,-0.312 l 0,-0.063 c 1.551,0.188 2.914,-1.437 2.914,-3 -0.062,-1.125 -0.804,-2.25 -2.23,-2.562 -0.188,-0.25 -0.496,-1.188 -0.496,-1.188 -0.68,-0.187 -1.547,-0.812 -1.672,-0.937 l -0.063,0.062 c -0.25,0.438 -0.25,1.75 -0.25,1.938 -1.484,-0.125 -2.289,1.25 -2.476,1.375 -1.672,0.125 -2.414,2 -2.539,2.125 -1.238,-0.75 -2.481,-2.313 -3.348,-3.563 0.063,0.063 0,0 0,0.063 0.992,2 2.047,2.937 2.418,3.562 -0.742,1.625 1.18,2.75 1.984,2.625 1.176,0 1.364,-1.187 1.364,-1.187" /><path
         id="path70"
         style="fill:#231f20;fill-opacity:1;fill-rule:evenodd;stroke:none"
         d="m 41.305,115.442 c 0,0.187 0.187,0.312 0.375,0.312 0.183,0 0.371,-0.125 0.371,-0.312 0,-0.25 -0.188,-0.375 -0.371,-0.375 -0.188,0 -0.375,0.125 -0.375,0.375" /><path
         id="path72"
         style="fill:#104e8a;fill-opacity:1;fill-rule:nonzero;stroke:none"
         d="m 0.098,55.75 366.621,0 0,-30.258 -366.621,0 0,30.258 z" /><path
         id="path74"
         style="fill:#ffffff;fill-opacity:1;fill-rule:evenodd;stroke:none"
         d="m 116.121,48.168 -3.367,0 0,-9.129 -7.051,9.129 -3.055,0 0,-14.867 3.372,0 0,9.449 7.261,-9.449 2.84,0 0,14.867" /><path
         id="path76"
         style="fill:#ffffff;fill-opacity:1;fill-rule:evenodd;stroke:none"
         d="m 129.379,35.957 -6.418,0 0,3.61 5.996,0 0,2.761 -5.996,0 0,3.078 6.312,0 0,2.762 -9.679,0 0,-14.867 9.785,0 0,2.656" /><path
         id="path78"
         style="fill:#ffffff;fill-opacity:1;fill-rule:evenodd;stroke:none"
         d="m 142.32,42.75 4.106,-9.66 1.367,0 5.895,15.078 -3.579,0 -3.05,-8.285 -3.473,8.285 -2.633,0 -3.367,-8.285 -3.156,8.285 -3.473,0 5.789,-15.078 1.473,0 4.101,9.66" /><path
         id="path80"
         style="fill:#ffffff;fill-opacity:1;fill-rule:evenodd;stroke:none"
         d="m 173.051,48.168 -12.418,0 0,-2.762 6.734,0 -7.262,-12.105 12.946,0 0,2.656 -7.262,0 7.262,12.211" /><path
         id="path82"
         style="fill:#ffffff;fill-opacity:1;fill-rule:evenodd;stroke:none"
         d="m 185.465,35.957 -6.524,0 0,3.61 6,0 0,2.761 -6,0 0,3.078 6.313,0 0,2.762 -9.676,0 0,-14.867 9.887,0 0,2.656" /><path
         id="path84"
         style="fill:#ffffff;fill-opacity:1;fill-rule:evenodd;stroke:none"
         d="m 196.199,48.168 -3.789,0 -5.363,-14.867 3.473,0 0.945,2.867 6,0 1.051,-2.867 3.578,0 -5.895,14.867 z m 0.317,-9.344 -4.106,0 1.899,5.735 2.207,-5.735" /><path
         id="path86"
         style="fill:#ffffff;fill-opacity:1;fill-rule:evenodd;stroke:none"
         d="m 214.195,35.957 -6.734,0 0,12.211 -3.367,0 0,-14.867 10.101,0 0,2.656" /><path
         id="path88"
         style="fill:#ffffff;fill-opacity:1;fill-rule:evenodd;stroke:none"
         d="m 224.297,48.168 -3.789,0 -5.367,-14.867 3.476,0 1.051,2.867 5.891,0 1.156,-2.867 3.476,0 -5.894,14.867 z m 0.316,-9.344 -4.105,0 2,5.735 2.105,-5.735" /><path
         id="path90"
         style="fill:#ffffff;fill-opacity:1;fill-rule:evenodd;stroke:none"
         d="m 245.766,48.168 -3.371,0 0,-9.129 -7.051,9.129 -3.051,0 0,-14.867 3.262,0 0,9.449 7.367,-9.449 2.844,0 0,14.867" /><path
         id="path92"
         style="fill:#ffffff;fill-opacity:1;fill-rule:evenodd;stroke:none"
         d="m 249.129,48.168 0,-14.867 5.473,0 c 5.367,0 7.785,3.078 7.785,7.328 0,4.141 -2.52,7.539 -7.364,7.539 l -5.894,0 z m 3.367,-2.762 2.106,0 c 3.156,0 4.316,-2.125 4.316,-4.672 0,-2.226 -0.949,-4.777 -4.316,-4.777 l -2.106,0 0,9.449" /><path
         id="path94"
         style="fill:#000000;fill-opacity:1;fill-rule:nonzero;stroke:none"
         d="m 4.848,4.317 0,12.949 -4.848,0 0,1.734 11.66,0 0,-1.734 -4.867,0 0,-12.949 -1.945,0" /><path
         id="path96"
         style="fill:#000000;fill-opacity:1;fill-rule:nonzero;stroke:none"
         d="m 18.445,7.742 1.867,-0.23 C 20.016,6.422 19.473,5.578 18.676,4.977 17.879,4.375 16.863,4.074 15.625,4.074 c -1.559,0 -2.797,0.481 -3.715,1.434 -0.91,0.961 -1.363,2.309 -1.363,4.035 0,1.789 0.461,3.18 1.383,4.168 0.925,0.988 2.121,1.481 3.593,1.481 1.426,0 2.59,-0.485 3.493,-1.45 0.902,-0.968 1.355,-2.332 1.355,-4.086 0,-0.109 -0.004,-0.269 -0.012,-0.48 l -7.945,0 c 0.066,-1.172 0.398,-2.067 0.992,-2.688 0.598,-0.621 1.336,-0.929 2.227,-0.929 0.664,0 1.23,0.172 1.695,0.519 0.469,0.348 0.844,0.903 1.117,1.664 m -5.933,2.914 5.953,0 c -0.082,0.895 -0.309,1.567 -0.684,2.012 -0.574,0.695 -1.32,1.043 -2.238,1.043 -0.828,0 -1.527,-0.277 -2.098,-0.832 -0.558,-0.555 -0.871,-1.297 -0.933,-2.223" /><path
         id="path98"
         style="fill:#000000;fill-opacity:1;fill-rule:nonzero;stroke:none"
         d="M 31.09,4.317 27.184,19 29.18,19 31.418,9.375 c 0.242,-1.008 0.449,-2.012 0.621,-3.008 0.375,1.571 0.598,2.477 0.664,2.715 l 2.801,9.918 2.348,0 2.109,-7.433 c 0.527,-1.84 0.906,-3.575 1.141,-5.2 0.187,0.93 0.433,1.996 0.734,3.196 l 2.309,9.437 1.957,0 -4.036,-14.683 -1.875,0 -3.101,11.187 c -0.262,0.934 -0.414,1.508 -0.461,1.723 -0.156,-0.676 -0.301,-1.25 -0.434,-1.723 l -3.121,-11.187 -1.984,0" /><path
         id="path100"
         style="fill:#000000;fill-opacity:1;fill-rule:nonzero;stroke:none"
         d="m 47.676,4.317 0,14.683 1.804,0 0,-5.269 c 0.844,0.976 1.911,1.461 3.192,1.461 0.793,0 1.476,-0.157 2.058,-0.469 0.582,-0.309 0.997,-0.735 1.247,-1.281 0.253,-0.547 0.378,-1.344 0.378,-2.383 l 0,-6.742 -1.804,0 0,6.742 c 0,0.898 -0.199,1.554 -0.594,1.961 -0.387,0.414 -0.937,0.621 -1.656,0.621 -0.535,0 -1.039,-0.141 -1.516,-0.422 C 50.316,12.945 49.984,12.57 49.781,12.098 49.582,11.625 49.48,10.969 49.48,10.137 l 0,-5.82 -1.804,0" /><path
         id="path102"
         style="fill:#000000;fill-opacity:1;fill-rule:nonzero;stroke:none"
         d="M 66.07,5.629 C 65.402,5.063 64.754,4.66 64.133,4.426 63.52,4.192 62.855,4.074 62.145,4.074 c -1.168,0 -2.071,0.285 -2.7,0.852 -0.629,0.574 -0.941,1.308 -0.941,2.195 0,0.52 0.117,0.992 0.351,1.422 0.243,0.434 0.551,0.781 0.934,1.039 0.387,0.262 0.82,0.461 1.305,0.594 0.351,0.094 0.886,0.183 1.605,0.269 1.457,0.172 2.531,0.379 3.219,0.622 0.008,0.246 0.012,0.406 0.012,0.468 0,0.739 -0.172,1.254 -0.512,1.555 -0.461,0.406 -1.148,0.609 -2.059,0.609 -0.847,0 -1.476,-0.148 -1.886,-0.449 -0.403,-0.293 -0.7,-0.816 -0.891,-1.57 l -1.766,0.238 c 0.161,0.754 0.422,1.363 0.789,1.824 0.372,0.465 0.903,0.825 1.598,1.071 0.695,0.254 1.5,0.379 2.418,0.379 0.91,0 1.649,-0.106 2.219,-0.321 0.566,-0.211 0.984,-0.484 1.254,-0.808 0.265,-0.321 0.453,-0.731 0.562,-1.223 0.059,-0.309 0.09,-0.863 0.09,-1.664 l 0,-2.402 c 0,-1.676 0.035,-2.739 0.109,-3.188 0.083,-0.437 0.235,-0.863 0.461,-1.269 l -1.886,0 C 66.242,4.692 66.121,5.125 66.07,5.629 M 65.918,9.656 C 65.266,9.387 64.281,9.16 62.969,8.973 62.227,8.867 61.699,8.746 61.395,8.613 61.086,8.481 60.848,8.281 60.68,8.024 60.516,7.77 60.43,7.484 60.43,7.172 c 0,-0.48 0.179,-0.883 0.543,-1.203 0.367,-0.32 0.902,-0.481 1.605,-0.481 0.695,0 1.313,0.149 1.856,0.45 0.543,0.308 0.941,0.726 1.195,1.254 0.191,0.406 0.289,1.007 0.289,1.8 l 0,0.664" /><path
         id="path104"
         style="fill:#000000;fill-opacity:1;fill-rule:nonzero;stroke:none"
         d="m 70.496,4.317 0,10.636 1.625,0 0,-1.613 c 0.414,0.754 0.797,1.254 1.145,1.492 0.355,0.242 0.742,0.36 1.164,0.36 0.609,0 1.226,-0.192 1.855,-0.579 l -0.621,-1.671 c -0.441,0.257 -0.883,0.386 -1.324,0.386 -0.395,0 -0.75,-0.117 -1.067,-0.359 -0.312,-0.235 -0.539,-0.559 -0.671,-0.981 -0.2,-0.64 -0.301,-1.343 -0.301,-2.101 l 0,-5.57 -1.805,0" /><path
         id="path106"
         style="fill:#000000;fill-opacity:1;fill-rule:nonzero;stroke:none"
         d="M 84.637,7.742 86.5,7.512 C 86.207,6.422 85.66,5.578 84.863,4.977 84.07,4.375 83.051,4.074 81.816,4.074 c -1.558,0 -2.796,0.481 -3.714,1.434 -0.911,0.961 -1.364,2.309 -1.364,4.035 0,1.789 0.461,3.18 1.383,4.168 0.926,0.988 2.121,1.481 3.594,1.481 1.426,0 2.59,-0.485 3.492,-1.45 0.902,-0.968 1.355,-2.332 1.355,-4.086 0,-0.109 -0.003,-0.269 -0.011,-0.48 l -7.946,0 c 0.067,-1.172 0.399,-2.067 0.993,-2.688 0.593,-0.621 1.336,-0.929 2.226,-0.929 0.664,0 1.227,0.172 1.696,0.519 0.468,0.348 0.839,0.903 1.117,1.664 m -5.934,2.914 5.953,0 c -0.082,0.895 -0.308,1.567 -0.683,2.012 -0.575,0.695 -1.321,1.043 -2.239,1.043 -0.828,0 -1.527,-0.277 -2.097,-0.832 -0.563,-0.555 -0.871,-1.297 -0.934,-2.223" /><path
         id="path108"
         style="fill:#000000;fill-opacity:1;fill-rule:nonzero;stroke:none"
         d="M 97.277,4.317 93.375,19 l 1.996,0 2.238,-9.625 c 0.243,-1.008 0.45,-2.012 0.621,-3.008 0.375,1.571 0.598,2.477 0.665,2.715 l 2.8,9.918 2.348,0 2.105,-7.433 c 0.532,-1.84 0.911,-3.575 1.145,-5.2 0.187,0.93 0.434,1.996 0.734,3.196 l 2.309,9.437 1.953,0 -4.031,-14.683 -1.879,0 -3.102,11.187 c -0.257,0.934 -0.414,1.508 -0.461,1.723 -0.152,-0.676 -0.296,-1.25 -0.429,-1.723 l -3.121,-11.187 -1.989,0" /><path
         id="path110"
         style="fill:#000000;fill-opacity:1;fill-rule:nonzero;stroke:none"
         d="m 120.82,5.629 c -0.668,-0.566 -1.312,-0.969 -1.937,-1.203 -0.613,-0.234 -1.278,-0.352 -1.985,-0.352 -1.171,0 -2.074,0.285 -2.703,0.852 -0.625,0.574 -0.941,1.308 -0.941,2.195 0,0.52 0.117,0.992 0.351,1.422 0.243,0.434 0.551,0.781 0.934,1.039 0.387,0.262 0.824,0.461 1.305,0.594 0.355,0.094 0.89,0.183 1.605,0.269 1.457,0.172 2.531,0.379 3.223,0.622 0.004,0.246 0.008,0.406 0.008,0.468 0,0.739 -0.172,1.254 -0.512,1.555 -0.461,0.406 -1.148,0.609 -2.059,0.609 -0.847,0 -1.476,-0.148 -1.882,-0.449 -0.403,-0.293 -0.704,-0.816 -0.895,-1.57 l -1.766,0.238 c 0.161,0.754 0.422,1.363 0.793,1.824 0.368,0.465 0.899,0.825 1.594,1.071 0.695,0.254 1.504,0.379 2.418,0.379 0.91,0 1.649,-0.106 2.219,-0.321 0.566,-0.211 0.988,-0.484 1.254,-0.808 0.269,-0.321 0.457,-0.731 0.562,-1.223 0.059,-0.309 0.09,-0.863 0.09,-1.664 l 0,-2.402 c 0,-1.676 0.035,-2.739 0.109,-3.188 0.083,-0.437 0.235,-0.863 0.461,-1.269 l -1.882,0 c -0.188,0.375 -0.309,0.808 -0.364,1.312 m -0.148,4.027 c -0.656,-0.269 -1.641,-0.496 -2.953,-0.683 -0.742,-0.106 -1.266,-0.227 -1.574,-0.36 -0.309,-0.132 -0.547,-0.332 -0.711,-0.589 -0.168,-0.254 -0.254,-0.54 -0.254,-0.852 0,-0.48 0.183,-0.883 0.543,-1.203 0.367,-0.32 0.902,-0.481 1.605,-0.481 0.695,0 1.317,0.149 1.856,0.45 0.543,0.308 0.941,0.726 1.195,1.254 0.195,0.406 0.293,1.007 0.293,1.8 l 0,0.664 m -5.41,8.43 6.261,0 0,-1.48 -6.261,0 0,1.48 z" /><path
         id="path112"
         style="fill:#000000;fill-opacity:1;fill-rule:nonzero;stroke:none"
         d="m 125.266,4.317 0,10.636 1.625,0 0,-1.511 c 0.785,1.167 1.914,1.75 3.394,1.75 0.641,0 1.231,-0.118 1.766,-0.348 0.543,-0.231 0.945,-0.527 1.215,-0.902 0.265,-0.375 0.453,-0.821 0.558,-1.333 0.071,-0.335 0.102,-0.917 0.102,-1.753 l 0,-6.539 -1.805,0 0,6.468 c 0,0.735 -0.07,1.282 -0.211,1.645 -0.14,0.367 -0.39,0.656 -0.754,0.871 -0.355,0.219 -0.773,0.332 -1.254,0.332 -0.769,0 -1.433,-0.246 -1.996,-0.734 -0.554,-0.489 -0.836,-1.411 -0.836,-2.774 l 0,-5.808 -1.804,0" /><path
         id="path114"
         style="fill:#000000;fill-opacity:1;fill-rule:nonzero;stroke:none"
         d="m 143.66,5.629 c -0.668,-0.566 -1.312,-0.969 -1.937,-1.203 -0.614,-0.234 -1.278,-0.352 -1.989,-0.352 -1.168,0 -2.07,0.285 -2.699,0.852 -0.629,0.574 -0.941,1.308 -0.941,2.195 0,0.52 0.117,0.992 0.351,1.422 0.243,0.434 0.551,0.781 0.934,1.039 0.387,0.262 0.82,0.461 1.305,0.594 0.351,0.094 0.89,0.183 1.605,0.269 1.457,0.172 2.531,0.379 3.223,0.622 0.004,0.246 0.008,0.406 0.008,0.468 0,0.739 -0.172,1.254 -0.512,1.555 -0.461,0.406 -1.149,0.609 -2.059,0.609 -0.847,0 -1.476,-0.148 -1.887,-0.449 -0.398,-0.293 -0.699,-0.816 -0.89,-1.57 l -1.766,0.238 c 0.16,0.754 0.422,1.363 0.793,1.824 0.367,0.465 0.899,0.825 1.594,1.071 0.695,0.254 1.504,0.379 2.418,0.379 0.91,0 1.648,-0.106 2.219,-0.321 0.566,-0.211 0.984,-0.484 1.254,-0.808 0.265,-0.321 0.457,-0.731 0.562,-1.223 0.059,-0.309 0.09,-0.863 0.09,-1.664 l 0,-2.402 c 0,-1.676 0.035,-2.739 0.109,-3.188 0.082,-0.437 0.235,-0.863 0.461,-1.269 l -1.886,0 c -0.184,0.375 -0.305,0.808 -0.36,1.312 m -0.148,4.027 c -0.657,-0.269 -1.641,-0.496 -2.953,-0.683 -0.743,-0.106 -1.266,-0.227 -1.575,-0.36 -0.308,-0.132 -0.546,-0.332 -0.714,-0.589 -0.165,-0.254 -0.25,-0.54 -0.25,-0.852 0,-0.48 0.179,-0.883 0.542,-1.203 0.368,-0.32 0.903,-0.481 1.606,-0.481 0.695,0 1.316,0.149 1.855,0.45 0.543,0.308 0.942,0.726 1.196,1.254 0.195,0.406 0.293,1.007 0.293,1.8 l 0,0.664" /><path
         id="path116"
         style="fill:#000000;fill-opacity:1;fill-rule:nonzero;stroke:none"
         d="m 148.105,4.317 0,10.636 1.625,0 0,-1.511 c 0.786,1.167 1.915,1.75 3.391,1.75 0.645,0 1.234,-0.118 1.77,-0.348 0.539,-0.231 0.945,-0.527 1.211,-0.902 0.269,-0.375 0.457,-0.821 0.562,-1.333 0.066,-0.335 0.102,-0.917 0.102,-1.753 l 0,-6.539 -1.805,0 0,6.468 c 0,0.735 -0.07,1.282 -0.211,1.645 -0.141,0.367 -0.395,0.656 -0.754,0.871 -0.355,0.219 -0.773,0.332 -1.254,0.332 -0.769,0 -1.433,-0.246 -1.996,-0.734 -0.558,-0.489 -0.836,-1.411 -0.836,-2.774 l 0,-5.808 -1.805,0" /><path
         id="path118"
         style="fill:#000000;fill-opacity:1;fill-rule:nonzero;stroke:none"
         d="m 159.215,3.434 1.754,-0.258 c 0.074,-0.543 0.277,-0.938 0.613,-1.184 0.449,-0.332 1.063,-0.5 1.836,-0.5 0.836,0 1.484,0.168 1.937,0.5 0.457,0.336 0.762,0.801 0.922,1.403 0.094,0.367 0.137,1.136 0.133,2.312 -0.789,-0.926 -1.773,-1.39 -2.949,-1.39 -1.469,0 -2.602,0.527 -3.402,1.582 -0.805,1.054 -1.207,2.32 -1.207,3.796 0,1.012 0.183,1.95 0.554,2.805 0.367,0.859 0.899,1.524 1.594,1.992 0.703,0.465 1.527,0.7 2.469,0.7 1.258,0 2.297,-0.504 3.109,-1.52 l 0,1.281 1.668,0 0,-9.195 c 0,-1.656 -0.172,-2.828 -0.512,-3.516 C 167.398,1.551 166.863,1 166.129,0.602 165.398,0.199 164.5,0 163.43,0 c -1.274,0 -2.297,0.285 -3.082,0.859 -0.782,0.571 -1.16,1.426 -1.133,2.575 m 1.496,6.39 c 0,-1.394 0.277,-2.414 0.832,-3.054 0.555,-0.641 1.25,-0.961 2.086,-0.961 0.832,0 1.527,0.316 2.09,0.953 0.558,0.64 0.84,1.64 0.84,3.004 0,1.301 -0.289,2.281 -0.871,2.941 -0.579,0.664 -1.274,0.992 -2.086,0.992 -0.805,0 -1.489,-0.324 -2.051,-0.98 -0.563,-0.649 -0.84,-1.613 -0.84,-2.895" /><path
         id="path120"
         style="fill:#000000;fill-opacity:1;fill-rule:nonzero;stroke:none"
         d="m 177.898,5.629 c -0.668,-0.566 -1.312,-0.969 -1.933,-1.203 -0.617,-0.234 -1.281,-0.352 -1.988,-0.352 -1.172,0 -2.071,0.285 -2.7,0.852 -0.629,0.574 -0.945,1.308 -0.945,2.195 0,0.52 0.117,0.992 0.352,1.422 0.242,0.434 0.55,0.781 0.933,1.039 0.387,0.262 0.824,0.461 1.305,0.594 0.355,0.094 0.89,0.183 1.605,0.269 1.457,0.172 2.532,0.379 3.223,0.622 0.008,0.246 0.008,0.406 0.008,0.468 0,0.739 -0.168,1.254 -0.512,1.555 -0.461,0.406 -1.144,0.609 -2.055,0.609 -0.851,0 -1.48,-0.148 -1.886,-0.449 -0.403,-0.293 -0.7,-0.816 -0.895,-1.57 l -1.765,0.238 c 0.16,0.754 0.425,1.363 0.793,1.824 0.367,0.465 0.898,0.825 1.593,1.071 0.696,0.254 1.504,0.379 2.418,0.379 0.91,0 1.653,-0.106 2.219,-0.321 0.57,-0.211 0.988,-0.484 1.254,-0.808 0.269,-0.321 0.457,-0.731 0.562,-1.223 0.063,-0.309 0.09,-0.863 0.09,-1.664 l 0,-2.402 c 0,-1.676 0.039,-2.739 0.114,-3.188 0.078,-0.437 0.234,-0.863 0.46,-1.269 l -1.886,0 c -0.188,0.375 -0.309,0.808 -0.364,1.312 m -0.148,4.027 c -0.656,-0.269 -1.641,-0.496 -2.949,-0.683 -0.746,-0.106 -1.27,-0.227 -1.578,-0.36 -0.309,-0.132 -0.543,-0.332 -0.711,-0.589 -0.168,-0.254 -0.25,-0.54 -0.25,-0.852 0,-0.48 0.179,-0.883 0.539,-1.203 0.371,-0.32 0.902,-0.481 1.605,-0.481 0.696,0 1.317,0.149 1.86,0.45 0.539,0.308 0.937,0.726 1.191,1.254 0.195,0.406 0.293,1.007 0.293,1.8 l 0,0.664" /><path
         id="path122"
         style="fill:#000000;fill-opacity:1;fill-rule:nonzero;stroke:none"
         d="m 187.371,9.633 c 0,1.973 0.551,3.43 1.649,4.379 0.914,0.789 2.031,1.18 3.351,1.18 1.465,0 2.66,-0.481 3.59,-1.442 0.93,-0.953 1.394,-2.277 1.394,-3.965 0,-1.371 -0.207,-2.449 -0.621,-3.234 -0.406,-0.781 -1.007,-1.391 -1.796,-1.824 -0.782,-0.434 -1.637,-0.653 -2.567,-0.653 -1.492,0 -2.699,0.481 -3.625,1.434 -0.914,0.953 -1.375,2.328 -1.375,4.125 m 1.859,0 c 0,-1.359 0.297,-2.383 0.891,-3.063 0.598,-0.675 1.348,-1.011 2.25,-1.011 0.895,0 1.641,0.34 2.238,1.019 0.594,0.684 0.891,1.723 0.891,3.117 0,1.317 -0.301,2.309 -0.902,2.985 -0.594,0.679 -1.336,1.019 -2.227,1.019 -0.902,0 -1.652,-0.336 -2.25,-1.011 -0.594,-0.672 -0.891,-1.692 -0.891,-3.055" /><path
         id="path124"
         style="fill:#000000;fill-opacity:1;fill-rule:nonzero;stroke:none"
         d="m 208.797,4.317 0,12.949 -4.848,0 0,1.734 11.66,0 0,-1.734 -4.867,0 0,-12.949 -1.945,0" /><path
         id="path126"
         style="fill:#000000;fill-opacity:1;fill-rule:nonzero;stroke:none"
         d="m 224.34,5.629 c -0.668,-0.566 -1.313,-0.969 -1.938,-1.203 -0.613,-0.234 -1.273,-0.352 -1.984,-0.352 -1.172,0 -2.07,0.285 -2.699,0.852 -0.629,0.574 -0.946,1.308 -0.946,2.195 0,0.52 0.118,0.992 0.352,1.422 0.242,0.434 0.555,0.781 0.934,1.039 0.386,0.262 0.824,0.461 1.304,0.594 0.356,0.094 0.891,0.183 1.606,0.269 1.461,0.172 2.531,0.379 3.222,0.622 0.004,0.246 0.008,0.406 0.008,0.468 0,0.739 -0.168,1.254 -0.511,1.555 -0.461,0.406 -1.149,0.609 -2.055,0.609 -0.852,0 -1.481,-0.148 -1.887,-0.449 -0.402,-0.293 -0.699,-0.816 -0.894,-1.57 l -1.766,0.238 c 0.16,0.754 0.426,1.363 0.793,1.824 0.367,0.465 0.898,0.825 1.594,1.071 0.699,0.254 1.504,0.379 2.422,0.379 0.906,0 1.648,-0.106 2.214,-0.321 0.571,-0.211 0.989,-0.484 1.254,-0.808 0.27,-0.321 0.457,-0.731 0.563,-1.223 0.062,-0.309 0.09,-0.863 0.09,-1.664 l 0,-2.402 c 0,-1.676 0.039,-2.739 0.113,-3.188 0.078,-0.437 0.23,-0.863 0.461,-1.269 l -1.887,0 c -0.187,0.375 -0.308,0.808 -0.363,1.312 m -0.149,4.027 c -0.656,-0.269 -1.64,-0.496 -2.953,-0.683 -0.742,-0.106 -1.265,-0.227 -1.574,-0.36 -0.309,-0.132 -0.543,-0.332 -0.711,-0.589 -0.168,-0.254 -0.254,-0.54 -0.254,-0.852 0,-0.48 0.184,-0.883 0.543,-1.203 0.367,-0.32 0.903,-0.481 1.606,-0.481 0.699,0 1.316,0.149 1.855,0.45 0.543,0.308 0.942,0.726 1.195,1.254 0.196,0.406 0.293,1.007 0.293,1.8 l 0,0.664 m -5.41,8.43 6.262,0 0,-1.48 -6.262,0 0,1.48 z" /><path
         id="path128"
         style="fill:#000000;fill-opacity:1;fill-rule:nonzero;stroke:none"
         d="m 228.785,4.317 0,10.636 1.617,0 0,-1.492 c 0.336,0.52 0.782,0.938 1.336,1.25 0.555,0.32 1.188,0.481 1.895,0.481 0.789,0 1.433,-0.165 1.937,-0.489 0.508,-0.328 0.868,-0.785 1.075,-1.375 0.843,1.242 1.941,1.864 3.289,1.864 1.058,0 1.871,-0.293 2.441,-0.879 0.566,-0.582 0.852,-1.481 0.852,-2.696 l 0,-7.3 -1.797,0 0,6.699 c 0,0.722 -0.059,1.238 -0.18,1.554 -0.113,0.321 -0.324,0.579 -0.633,0.77 -0.308,0.195 -0.668,0.293 -1.082,0.293 -0.75,0 -1.371,-0.254 -1.867,-0.754 -0.496,-0.492 -0.742,-1.289 -0.742,-2.383 l 0,-6.179 -1.809,0 0,6.91 c 0,0.8 -0.144,1.402 -0.441,1.804 -0.293,0.399 -0.774,0.602 -1.446,0.602 -0.507,0 -0.976,-0.137 -1.414,-0.402 -0.425,-0.27 -0.738,-0.661 -0.933,-1.172 -0.192,-0.516 -0.289,-1.254 -0.289,-2.223 l 0,-5.519 -1.809,0" /><path
         id="path130"
         style="fill:#000000;fill-opacity:1;fill-rule:nonzero;stroke:none"
         d="m 252.879,5.629 c -0.668,-0.566 -1.313,-0.969 -1.934,-1.203 -0.617,-0.234 -1.281,-0.352 -1.988,-0.352 -1.172,0 -2.07,0.285 -2.699,0.852 -0.629,0.574 -0.946,1.308 -0.946,2.195 0,0.52 0.118,0.992 0.352,1.422 0.242,0.434 0.555,0.781 0.934,1.039 0.39,0.262 0.824,0.461 1.304,0.594 0.356,0.094 0.891,0.183 1.606,0.269 1.461,0.172 2.531,0.379 3.222,0.622 0.008,0.246 0.008,0.406 0.008,0.468 0,0.739 -0.168,1.254 -0.511,1.555 -0.461,0.406 -1.145,0.609 -2.055,0.609 -0.852,0 -1.481,-0.148 -1.887,-0.449 -0.402,-0.293 -0.699,-0.816 -0.894,-1.57 l -1.766,0.238 c 0.16,0.754 0.426,1.363 0.793,1.824 0.367,0.465 0.898,0.825 1.598,1.071 0.695,0.254 1.5,0.379 2.418,0.379 0.91,0 1.648,-0.106 2.214,-0.321 0.571,-0.211 0.989,-0.484 1.254,-0.808 0.27,-0.321 0.457,-0.731 0.563,-1.223 0.062,-0.309 0.09,-0.863 0.09,-1.664 l 0,-2.402 c 0,-1.676 0.039,-2.739 0.113,-3.188 0.078,-0.437 0.234,-0.863 0.461,-1.269 l -1.887,0 c -0.187,0.375 -0.308,0.808 -0.363,1.312 m -0.149,4.027 c -0.656,-0.269 -1.64,-0.496 -2.949,-0.683 -0.746,-0.106 -1.269,-0.227 -1.578,-0.36 -0.308,-0.132 -0.543,-0.332 -0.711,-0.589 -0.168,-0.254 -0.25,-0.54 -0.25,-0.852 0,-0.48 0.18,-0.883 0.539,-1.203 0.371,-0.32 0.907,-0.481 1.606,-0.481 0.699,0 1.316,0.149 1.859,0.45 0.539,0.308 0.938,0.726 1.192,1.254 0.195,0.406 0.292,1.007 0.292,1.8 l 0,0.664" /><path
         id="path132"
         style="fill:#000000;fill-opacity:1;fill-rule:nonzero;stroke:none"
         d="m 257.336,4.317 0,14.683 1.805,0 0,-8.375 4.277,4.328 2.336,0 -4.074,-3.945 4.488,-6.691 -2.23,0 -3.52,5.437 -1.277,-1.223 0,-4.214 -1.805,0" /><path
         id="path134"
         style="fill:#000000;fill-opacity:1;fill-rule:nonzero;stroke:none"
         d="m 267.613,19 1.805,0 0,-2.074 -1.805,0 0,2.074 z m 0,-4.047 1.805,0 0,-10.636 -1.805,0 0,10.636 z" /><path
         id="path136"
         style="fill:#000000;fill-opacity:1;fill-rule:nonzero;stroke:none"
         d="m 278.047,4.317 0,14.683 2.93,0 3.484,-10.398 c 0.32,-0.965 0.555,-1.692 0.703,-2.172 0.164,0.535 0.426,1.316 0.781,2.351 l 3.524,10.219 2.617,0 0,-14.683 -1.875,0 0,12.289 -4.273,-12.289 -1.758,0 -4.254,12.5 0,-12.5 -1.879,0" /><path
         id="path138"
         style="fill:#000000;fill-opacity:1;fill-rule:nonzero;stroke:none"
         d="m 301.93,5.629 c -0.668,-0.566 -1.313,-0.969 -1.934,-1.203 -0.617,-0.234 -1.277,-0.352 -1.988,-0.352 -1.172,0 -2.07,0.285 -2.699,0.852 -0.629,0.574 -0.946,1.308 -0.946,2.195 0,0.52 0.117,0.992 0.352,1.422 0.242,0.434 0.555,0.781 0.933,1.039 0.387,0.262 0.825,0.461 1.305,0.594 0.356,0.094 0.891,0.183 1.606,0.269 1.461,0.172 2.535,0.379 3.222,0.622 0.004,0.246 0.008,0.406 0.008,0.468 0,0.739 -0.168,1.254 -0.512,1.555 -0.461,0.406 -1.144,0.609 -2.054,0.609 -0.852,0 -1.481,-0.148 -1.887,-0.449 -0.402,-0.293 -0.699,-0.816 -0.895,-1.57 l -1.765,0.238 c 0.16,0.754 0.426,1.363 0.793,1.824 0.367,0.465 0.898,0.825 1.593,1.071 0.7,0.254 1.504,0.379 2.422,0.379 0.911,0 1.649,-0.106 2.215,-0.321 0.571,-0.211 0.989,-0.484 1.254,-0.808 0.27,-0.321 0.457,-0.731 0.563,-1.223 0.062,-0.309 0.089,-0.863 0.089,-1.664 l 0,-2.402 c 0,-1.676 0.04,-2.739 0.114,-3.188 0.078,-0.437 0.234,-0.863 0.461,-1.269 l -1.887,0 c -0.188,0.375 -0.309,0.808 -0.363,1.312 m -0.149,4.027 c -0.656,-0.269 -1.64,-0.496 -2.953,-0.683 -0.738,-0.106 -1.266,-0.227 -1.574,-0.36 -0.309,-0.132 -0.543,-0.332 -0.711,-0.589 -0.168,-0.254 -0.25,-0.54 -0.25,-0.852 0,-0.48 0.18,-0.883 0.543,-1.203 0.363,-0.32 0.902,-0.481 1.602,-0.481 0.699,0 1.316,0.149 1.859,0.45 0.539,0.308 0.937,0.726 1.191,1.254 0.196,0.406 0.293,1.007 0.293,1.8 l 0,0.664" /><path
         id="path140"
         style="fill:#000000;fill-opacity:1;fill-rule:nonzero;stroke:none"
         d="m 306.387,4.317 0,14.683 1.804,0 0,-8.375 4.278,4.328 2.336,0 -4.075,-3.945 4.489,-6.691 -2.231,0 -3.519,5.437 -1.278,-1.223 0,-4.214 -1.804,0" /><path
         id="path142"
         style="fill:#000000;fill-opacity:1;fill-rule:nonzero;stroke:none"
         d="m 323.605,5.629 c -0.667,-0.566 -1.312,-0.969 -1.933,-1.203 -0.617,-0.234 -1.281,-0.352 -1.988,-0.352 -1.172,0 -2.071,0.285 -2.7,0.852 -0.629,0.574 -0.945,1.308 -0.945,2.195 0,0.52 0.117,0.992 0.352,1.422 0.242,0.434 0.554,0.781 0.933,1.039 0.391,0.262 0.824,0.461 1.305,0.594 0.355,0.094 0.891,0.183 1.605,0.269 1.457,0.172 2.532,0.379 3.223,0.622 0.008,0.246 0.008,0.406 0.008,0.468 0,0.739 -0.168,1.254 -0.512,1.555 -0.461,0.406 -1.144,0.609 -2.055,0.609 -0.851,0 -1.48,-0.148 -1.886,-0.449 -0.403,-0.293 -0.7,-0.816 -0.895,-1.57 l -1.765,0.238 c 0.16,0.754 0.425,1.363 0.793,1.824 0.367,0.465 0.898,0.825 1.593,1.071 0.7,0.254 1.504,0.379 2.418,0.379 0.91,0 1.653,-0.106 2.219,-0.321 0.57,-0.211 0.988,-0.484 1.254,-0.808 0.269,-0.321 0.457,-0.731 0.562,-1.223 0.063,-0.309 0.09,-0.863 0.09,-1.664 l 0,-2.402 c 0,-1.676 0.039,-2.739 0.114,-3.188 0.078,-0.437 0.234,-0.863 0.46,-1.269 l -1.886,0 c -0.188,0.375 -0.309,0.808 -0.364,1.312 m -0.148,4.027 c -0.656,-0.269 -1.641,-0.496 -2.949,-0.683 -0.746,-0.106 -1.27,-0.227 -1.578,-0.36 -0.309,-0.132 -0.543,-0.332 -0.711,-0.589 -0.168,-0.254 -0.25,-0.54 -0.25,-0.852 0,-0.48 0.179,-0.883 0.539,-1.203 0.371,-0.32 0.902,-0.481 1.605,-0.481 0.696,0 1.317,0.149 1.86,0.45 0.539,0.308 0.937,0.726 1.191,1.254 0.195,0.406 0.293,1.007 0.293,1.8 l 0,0.664" /><path
         id="path144"
         style="fill:#000000;fill-opacity:1;fill-rule:nonzero;stroke:none"
         d="m 335.035,4.317 0,1.562 c -0.828,-1.203 -1.957,-1.805 -3.379,-1.805 -0.629,0 -1.218,0.121 -1.765,0.364 -0.543,0.238 -0.95,0.539 -1.215,0.898 -0.262,0.367 -0.446,0.816 -0.555,1.344 -0.07,0.355 -0.109,0.914 -0.109,1.683 l 0,6.59 1.804,0 0,-5.898 c 0,-0.942 0.039,-1.578 0.114,-1.903 0.113,-0.476 0.351,-0.847 0.722,-1.125 0.368,-0.265 0.821,-0.398 1.364,-0.398 0.543,0 1.05,0.137 1.523,0.41 0.477,0.281 0.813,0.656 1.008,1.133 0.199,0.48 0.301,1.176 0.301,2.082 l 0,5.699 1.804,0 0,-10.636 -1.617,0" /><path
         id="path146"
         style="fill:#000000;fill-opacity:1;fill-rule:nonzero;stroke:none"
         d="m 339.473,4.317 0,10.636 1.625,0 0,-1.613 c 0.414,0.754 0.797,1.254 1.144,1.492 0.356,0.242 0.742,0.36 1.164,0.36 0.61,0 1.227,-0.192 1.856,-0.579 l -0.621,-1.671 c -0.442,0.257 -0.883,0.386 -1.325,0.386 -0.394,0 -0.75,-0.117 -1.062,-0.359 -0.316,-0.235 -0.539,-0.559 -0.676,-0.981 -0.199,-0.64 -0.301,-1.343 -0.301,-2.101 l 0,-5.57 -1.804,0" /><path
         id="path148"
         style="fill:#000000;fill-opacity:1;fill-rule:nonzero;stroke:none"
         d="m 353.27,5.629 c -0.668,-0.566 -1.317,-0.969 -1.938,-1.203 -0.613,-0.234 -1.277,-0.352 -1.984,-0.352 -1.172,0 -2.071,0.285 -2.7,0.852 -0.628,0.574 -0.945,1.308 -0.945,2.195 0,0.52 0.117,0.992 0.352,1.422 0.242,0.434 0.55,0.781 0.933,1.039 0.387,0.262 0.824,0.461 1.305,0.594 0.355,0.094 0.891,0.183 1.605,0.269 1.457,0.172 2.532,0.379 3.223,0.622 0.004,0.246 0.008,0.406 0.008,0.468 0,0.739 -0.168,1.254 -0.512,1.555 -0.461,0.406 -1.148,0.609 -2.055,0.609 -0.851,0 -1.48,-0.148 -1.886,-0.449 -0.403,-0.293 -0.699,-0.816 -0.895,-1.57 l -1.765,0.238 c 0.16,0.754 0.425,1.363 0.793,1.824 0.367,0.465 0.898,0.825 1.593,1.071 0.696,0.254 1.504,0.379 2.418,0.379 0.91,0 1.653,-0.106 2.219,-0.321 0.57,-0.211 0.988,-0.484 1.254,-0.808 0.269,-0.321 0.457,-0.731 0.562,-1.223 0.059,-0.309 0.09,-0.863 0.09,-1.664 l 0,-2.402 c 0,-1.676 0.039,-2.739 0.11,-3.188 0.082,-0.437 0.234,-0.863 0.465,-1.269 l -1.887,0 c -0.188,0.375 -0.309,0.808 -0.363,1.312 m -0.149,4.027 c -0.656,-0.269 -1.641,-0.496 -2.953,-0.683 -0.742,-0.106 -1.266,-0.227 -1.574,-0.36 -0.309,-0.132 -0.543,-0.332 -0.711,-0.589 -0.168,-0.254 -0.254,-0.54 -0.254,-0.852 0,-0.48 0.183,-0.883 0.543,-1.203 0.367,-0.32 0.902,-0.481 1.605,-0.481 0.696,0 1.317,0.149 1.856,0.45 0.543,0.308 0.941,0.726 1.195,1.254 0.195,0.406 0.293,1.007 0.293,1.8 l 0,0.664" /><path
         id="path150"
         style="fill:#000000;fill-opacity:1;fill-rule:nonzero;stroke:none"
         d="m 364.699,4.317 0,1.562 c -0.828,-1.203 -1.957,-1.805 -3.383,-1.805 -0.628,0 -1.214,0.121 -1.765,0.364 -0.539,0.238 -0.946,0.539 -1.211,0.898 -0.262,0.367 -0.445,0.816 -0.555,1.344 -0.074,0.355 -0.109,0.914 -0.109,1.683 l 0,6.59 1.804,0 0,-5.898 c 0,-0.942 0.04,-1.578 0.114,-1.903 0.113,-0.476 0.351,-0.847 0.722,-1.125 0.368,-0.265 0.821,-0.398 1.364,-0.398 0.543,0 1.05,0.137 1.523,0.41 0.477,0.281 0.813,0.656 1.004,1.133 0.203,0.48 0.301,1.176 0.301,2.082 l 0,5.699 1.808,0 0,-10.636 -1.617,0" /><text
         id="text152"
         style="font-variant:normal;font-weight:normal;font-size:36.87060165px;font-family:'Liberation Sans';-inkscape-font-specification:LiberationSans;writing-mode:lr-tb;fill:#000000;fill-opacity:1;fill-rule:nonzero;stroke:none"
         transform="matrix(1,0,0,-0.96737265,59.377279,96.133529)"><tspan
           id="tspan154"
           y="0"
           x="0 22.491066 49.111641 73.667458 83.880615 110.50119 137.12177 147.33492 172.00136 196.55717 223.17775 247.73357 257.94672 280.43781">THE UNIVERSITY</tspan></text>
<text
         id="text156"
         style="font-variant:normal;font-weight:normal;font-size:36.87060165px;font-family:'Liberation Sans';-inkscape-font-specification:LiberationSans;writing-mode:lr-tb;fill:#000000;fill-opacity:1;fill-rule:nonzero;stroke:none"
         transform="matrix(1,0,0,-0.96737265,82.673676,62.603904)"><tspan
           id="tspan158"
           y="0"
           x="0 28.648457 51.139523 59.324795 83.880615 110.50119 137.12177 161.78819 182.28825 206.84407 233.46465">OF AUCKLAND</tspan></text>
</g></g></svg>