<?xml version="1.0" encoding="UTF-8" standalone="no"?>
<svg
   xmlns:dc="http://purl.org/dc/elements/1.1/"
   xmlns:cc="http://creativecommons.org/ns#"
   xmlns:rdf="http://www.w3.org/1999/02/22-rdf-syntax-ns#"
   xmlns:svg="http://www.w3.org/2000/svg"
   xmlns="http://www.w3.org/2000/svg"
   viewBox="0 0 654.73022 425.44345"
   height="425.44345"
   width="654.73022"
   xml:space="preserve"
   version="1.1"
   id="svg2"><metadata
     id="metadata8"><rdf:RDF><cc:Work
         rdf:about=""><dc:format>image/svg+xml</dc:format><dc:type
           rdf:resource="http://purl.org/dc/dcmitype/StillImage" /><dc:title></dc:title></cc:Work></rdf:RDF></metadata><defs
     id="defs6" /><g
     transform="matrix(1.25,0,0,-1.25,0,425.44346)"
     id="g10"><g
       id="g12"><path
         id="path14"
         style="fill:#b0cdd3;fill-opacity:1;fill-rule:nonzero;stroke:none"
         d="M 112.355,10.538 C 90.375,33.015 85.719,56.976 98.59,81.343 c 5.648,10.691 17.215,22.52 20.711,21.18 3.5,-1.344 3.101,-2.938 -2.438,-9.805 -2.691,-3.336 -7.066,-10.637 -9.718,-16.215 -10.051,-21.148 -4.833,-45.074 13.8,-63.265 9.2,-8.981 10.86,-13.239 5.168,-13.239 -2.207,0 -7.179,3.813 -13.758,10.539 z m 20.723,-3.257 c -1.074,0.429 -1.949,1.992 -1.949,3.464 0,1.477 0.875,3.614 1.949,4.75 1.195,1.266 1.348,2.313 0.391,2.692 -7.106,2.844 -17.235,9.648 -17.66,11.867 -0.559,2.922 4.074,3.867 6.808,1.391 0.817,-0.739 5.172,-2.633 9.676,-4.211 l 8.191,-2.868 2.293,3.04 c 1.262,1.671 2.11,3.671 1.879,4.449 -0.23,0.777 -7.758,3.136 -16.73,5.25 -17.219,4.051 -20.367,5.523 -17.637,8.254 1.149,1.152 6.961,0.949 19.371,-0.672 9.754,-1.274 18.285,-1.973 18.965,-1.551 0.68,0.418 1.238,2.035 1.238,3.59 0,3.562 -6.496,4.754 -25.984,4.777 -11.098,0.016 -14.473,0.528 -15.156,2.309 -1.446,3.773 1.965,4.59 22.011,5.258 16.387,0.543 19.125,1 19.106,3.179 -0.055,5.848 -1.703,6.16 -20.074,3.801 -12.688,-1.629 -18.235,-1.801 -19.438,-0.598 -2.82,2.821 0.461,4.352 16.844,7.868 8.562,1.839 15.82,3.597 16.133,3.91 1.195,1.195 -3.024,7.078 -5.078,7.078 -1.188,0 -5.434,-1.406 -9.442,-3.121 -14.836,-6.36 -18.988,-1.211 -4.683,5.804 4.722,2.317 8.586,4.684 8.586,5.258 0,0.575 -7.004,8.571 -15.567,17.77 -20.492,22.019 -24.246,29.512 -24.246,48.449 0,12.223 0.57,15.207 4.367,22.938 4.711,9.601 17.297,24.679 20.594,24.679 3.133,0 3.93,-3.98 1.492,-7.457 -2.629,-3.758 -1.734,-4.703 9.067,-9.574 6.906,-3.113 9.324,-6.586 6.007,-8.637 -0.777,-0.476 -6.222,1.203 -12.101,3.735 -9.762,4.203 -10.86,4.382 -12.641,2.043 -3.703,-4.86 -2.055,-6.313 10.149,-8.961 20.382,-4.418 21.437,-4.793 22.007,-7.743 0.504,-2.617 -0.39,-2.746 -11.707,-1.707 -6.738,0.618 -15.261,1.672 -18.937,2.344 -5.707,1.047 -6.914,0.793 -8.27,-1.738 -0.871,-1.629 -1.226,-3.539 -0.789,-4.25 0.438,-0.707 9.367,-1.719 19.836,-2.242 10.473,-0.528 19.711,-1.629 20.531,-2.449 3.122,-3.122 -0.933,-4.883 -11.214,-4.883 -5.836,0 -14.813,-0.442 -19.954,-0.977 l -9.339,-0.976 0.707,-3.707 c 0.39,-2.04 1.152,-3.688 1.699,-3.661 0.543,0.028 8.012,1.071 16.601,2.313 19.59,2.84 21.075,2.84 21.075,0.035 0,-3.289 -3.633,-4.746 -19.907,-7.992 -7.941,-1.582 -14.441,-3.649 -14.441,-4.59 0,-0.937 0.984,-3.051 2.184,-4.691 l 2.179,-2.981 10.34,4.246 c 12.231,5.02 13.402,5.141 13.402,1.391 0,-1.906 -2.64,-4.094 -7.91,-6.563 -4.351,-2.035 -8.246,-4.25 -8.66,-4.918 -0.41,-0.668 6.508,-8.429 15.375,-17.25 16.949,-16.859 21.844,-24.457 24.758,-38.429 2.43,-11.657 0.559,-23.418 -5.691,-35.782 C 149.57,21.89 136.938,5.628 135.305,6.366 c -0.153,0.071 -1.153,0.481 -2.227,0.915 z m 86.664,18.265 c -13.488,5.031 -18.828,11.375 -18.613,22.121 0.176,8.66 3.453,13.367 12.957,18.602 9.066,4.996 22.328,5.383 32.117,0.937 l 6.57,-2.984 -0.625,-5.961 c -0.343,-3.277 -0.664,-6.195 -0.714,-6.488 -0.051,-0.289 -2.25,1.289 -4.895,3.515 -5.973,5.028 -10.531,6.215 -19.828,5.168 -5.578,-0.629 -8.281,-1.953 -11.617,-5.683 -7.27,-8.137 -4.68,-15.125 7.297,-19.699 8.375,-3.2 15.351,-2.243 23.386,3.207 4.703,3.195 5.828,3.453 6.571,1.515 1.664,-4.34 -1.012,-10.055 -5.887,-12.578 -6.758,-3.492 -19.664,-4.301 -26.719,-1.672 z m 140.016,0.641 c -1.668,1.523 -9.703,7.879 -17.86,14.125 l -14.832,11.351 -0.781,-12.953 -0.781,-12.949 -9.367,0 -0.434,23.027 c -0.301,16.055 0.094,23.032 1.297,23.032 1.383,0 19.613,-13.793 36.234,-27.411 1.512,-1.242 3.145,-2.253 3.629,-2.253 0.481,0 0.649,5.972 0.371,13.273 l -0.504,13.273 10.149,-0.007 0,-22.637 c 0,-24.043 -0.633,-25.805 -7.121,-19.867 l 0,-0.004 z M 263.355,25.98 c -0.593,0.594 -1.082,10.449 -1.082,21.898 l 0,20.817 44.598,0 -0.183,-4.293 -0.188,-4.293 -16.648,-0.442 c -15.364,-0.41 -16.649,-0.683 -16.649,-3.515 0,-2.825 1.121,-3.071 14.051,-3.071 l 14.051,0 0,-9.367 -28.102,0 0,-9.262 16.766,-0.441 16.769,-0.445 0.032,-7.805 -21.165,-0.434 c -11.64,-0.238 -21.652,0.055 -22.25,0.653 z m 126.942,16.176 0,17.171 -20.297,0 0,9.368 50.844,0 -0.367,-8.586 -20.813,-0.922 0,-34.207 -9.367,0 0,17.176 z m 32.785,4.714 0,22.086 18.578,-0.519 c 15.61,-0.438 19.098,-0.996 21.856,-3.496 4.707,-4.266 4.371,-12.473 -0.727,-17.571 l -4.008,-4.007 5.477,-8.243 c 3.012,-4.535 5.047,-8.671 4.527,-9.195 -0.519,-0.519 -3.113,-0.937 -5.762,-0.93 -4.234,0.016 -5.457,1.141 -10.195,9.371 -4.996,8.672 -5.785,9.348 -10.93,9.325 -8.386,-0.035 -9.777,-1.586 -9.234,-10.297 l 0.481,-7.633 -5.032,-0.488 -5.031,-0.492 0,22.089 z m 32.496,8.946 c -0.418,2.199 -2.461,2.824 -10.512,3.203 -9.461,0.445 -12.507,-0.707 -12.593,-4.766 -0.012,-0.644 5.297,-1.172 11.8,-1.172 10.418,0 11.762,0.328 11.305,2.735 z m 24.75,-29.793 c -0.57,0.57 -1.039,10.406 -1.039,21.855 l 0,20.817 43.715,0 0,-9.368 -32.785,0 0,-3.121 c 0,-2.89 1.039,-3.125 14.051,-3.125 l 14.05,0 0,-9.367 -28.101,0 0,-9.367 32.785,0 0,-9.367 -20.816,0 c -11.45,0 -21.286,0.469 -21.86,1.043 z M 215.645,96.058 c -3.172,6.785 -5.461,9.941 -6.665,9.195 -1.125,-0.691 -1.418,-0.457 -0.761,0.606 0.593,0.957 -1.407,6.668 -4.442,12.695 -3.035,6.023 -5.515,11.719 -5.515,12.652 0,0.969 2.109,1.489 4.902,1.211 4.363,-0.437 5.602,-1.816 11.313,-12.59 3.523,-6.656 6.824,-12.101 7.328,-12.101 0.504,0 3.937,6.351 7.625,14.109 3.687,7.762 7.14,13.696 7.675,13.192 0.532,-0.508 3.778,-6.61 7.215,-13.563 3.434,-6.949 6.914,-12.609 7.731,-12.574 0.82,0.039 4.285,5.41 7.707,11.941 5.453,10.414 6.746,11.875 10.519,11.875 2.368,0 4.641,-0.547 5.051,-1.215 0.899,-1.449 -21.504,-44.535 -23.5,-45.199 -0.762,-0.254 -4.516,5.93 -8.348,13.742 l -6.96,14.204 -6.579,-13.774 c -3.621,-7.574 -7.23,-13.992 -8.023,-14.254 -0.789,-0.265 -3.613,4.168 -6.273,9.848 z m 296.429,-5.609 c -17.426,14.078 -30.07,23.523 -31.492,23.523 -1.035,0 -1.418,-4.512 -1.059,-12.469 0.586,-12.879 -0.035,-14.281 -5.921,-13.422 -2.641,0.387 -2.938,2.352 -3.336,22.059 -0.43,21.187 0.254,28.027 2.472,24.801 0.598,-0.871 8.614,-7.375 17.813,-14.457 9.203,-7.082 17.281,-13.727 17.957,-14.77 0.672,-1.039 1.578,4.434 2.004,12.16 l 0.781,14.051 9.367,0 0.434,-23.027 c 0.48,-25.621 0.304,-25.981 -9.02,-18.449 z m -227.945,18.152 c 0,11.543 -0.172,21.512 -0.387,22.156 -0.215,0.641 1.91,1.391 4.727,1.66 l 5.117,0.496 -0.867,-44.64 -4.293,-0.328 -4.297,-0.329 0,20.985 z m 22.754,-19.985 c -0.492,0.493 -0.895,10.661 -0.895,22.594 l 0,21.696 4.844,-0.489 4.848,-0.492 0.226,-17.172 0.231,-17.176 14.445,-0.222 c 7.945,-0.125 15.441,-0.61 16.66,-1.074 2.016,-0.774 2.516,-4.661 0.817,-6.313 -1.098,-1.062 -40.18,-2.344 -41.176,-1.352 z m 51.015,0.489 c -4.613,1.398 -5.07,2.097 -5.07,7.738 0,3.41 0.199,6.199 0.449,6.199 0.246,0 3.207,-1.402 6.575,-3.121 7.16,-3.648 20.593,-4.18 24.964,-0.988 l 2.922,2.137 -3.015,1.543 c -1.657,0.851 -7.571,2.414 -13.141,3.48 -12.961,2.477 -18.457,5.367 -19.711,10.363 -2.496,9.95 6.516,16.266 23.152,16.227 11.481,-0.027 17.411,-2.512 18.137,-7.609 0.797,-5.575 -1.777,-7.059 -7.289,-4.208 -5.555,2.872 -21.398,3.336 -23.043,0.676 -1.812,-2.933 3.016,-5.226 15.379,-7.304 13.652,-2.293 18.336,-5.696 18.336,-13.325 0,-3.496 -1.285,-6.336 -4.031,-8.918 -3.504,-3.293 -5.68,-3.824 -16.782,-4.109 -7.015,-0.176 -15.039,0.371 -17.832,1.219 z m 59.317,1.539 c -9.07,4.597 -13.129,10.687 -13.129,19.691 0,9.086 3.535,14.168 13.242,19.035 14.176,7.106 34.582,3.825 43.035,-6.925 7.653,-9.731 4.86,-22.512 -6.574,-30.079 -8.82,-5.835 -26.797,-6.683 -36.574,-1.722 z m 30.375,9.344 c 9.801,6.121 8.414,15.882 -3.059,21.574 -9.793,4.859 -19.258,3.726 -26.101,-3.117 -5.754,-5.754 -5.914,-9.055 -0.739,-15.204 6.336,-7.531 20.571,-9.078 29.899,-3.253 z m -315.981,11.855 c -0.539,1.402 -0.339,3.395 0.442,4.418 14.172,18.633 18.472,29.742 17.48,45.168 -1.375,21.406 -12.492,36.195 -44.402,59.074 -18.359,13.156 -65.344,44.317 -91.41,60.617 -10.403,6.504 -13.602,9.317 -13.66,12.008 -0.094,4.207 3.113,4.563 8.625,0.953 l 3.906,-2.562 2.055,2.812 c 3.3,4.512 7.8,1.828 6.644,-3.961 -1.25,-6.246 -0.004,-5.886 2.793,0.805 2.375,5.688 3.391,6.297 6.856,4.102 1.656,-1.051 1.714,-2.633 0.285,-7.938 -2.586,-9.613 -0.832,-9.476 2.777,0.215 5.441,14.598 12,10.973 7.672,-4.242 -3.578,-12.574 -0.672,-11.715 3.426,1.015 3.48,10.801 6.597,14.309 9.84,11.067 1.171,-1.176 0.671,-5.418 -1.715,-14.473 -1.856,-7.047 -3,-13.183 -2.547,-13.64 1.125,-1.125 1.043,-1.313 6.308,14.335 4.602,13.665 7.172,17.047 10.454,13.766 1.187,-1.191 0.484,-6.422 -2.446,-18.117 -2.269,-9.039 -4.109,-16.988 -4.097,-17.656 0.058,-2.922 3.367,4.418 7.191,15.953 5.383,16.246 8.121,21.519 10.656,20.547 1.125,-0.434 2.738,-0.09 3.59,0.761 1.023,1.02 8.379,-1.668 21.66,-7.914 21.496,-10.109 21.453,-8.816 -0.121,3.727 -7.336,4.266 -13.336,8.68 -13.336,9.808 0,4.543 5.535,3.79 18.184,-2.484 17.09,-8.476 18.351,-8.199 3.281,0.719 -8.32,4.93 -12.098,8.09 -12.098,10.125 0,3.988 3.743,3.711 13.27,-0.977 10.875,-5.347 12.609,-4.8 2.734,0.864 -8.039,4.609 -10.363,8.586 -5.996,10.261 1.211,0.465 4.336,-0.258 6.949,-1.609 6.621,-3.426 7.344,-3.063 2.395,1.195 -4.609,3.965 -3.926,8.102 1.121,6.781 2.559,-0.667 2.945,0.137 2.945,6.11 0,5.84 0.473,6.879 3.125,6.879 2.664,0 3.121,-1.039 3.121,-7.117 0,-3.914 0.622,-6.735 1.383,-6.262 0.762,0.469 2.223,-0.152 3.242,-1.383 1.485,-1.789 1.207,-2.644 -1.382,-4.262 -5.188,-3.238 -4.086,-6.297 1.179,-3.273 4.328,2.484 9.629,1.976 9.629,-0.926 0,-0.805 -3.16,-3.312 -7.027,-5.578 -10.309,-6.043 -8.563,-7.711 2.387,-2.281 9.207,4.566 12.445,4.785 12.445,0.832 0,-1.645 -15.613,-12.059 -20.992,-14.004 -0.907,-0.328 -1.231,-1.047 -0.719,-1.602 0.508,-0.554 7.019,1.809 14.469,5.25 15.3,7.067 16.621,7.348 16.582,3.528 -0.016,-1.797 -5.364,-5.864 -15.61,-11.871 -8.574,-5.028 -15.586,-9.829 -15.586,-10.668 0,-0.844 0.528,-1.262 1.172,-0.93 22.438,11.539 35.059,16.68 40.227,16.387 l 5.879,-0.336 6.261,-18.344 c 3.446,-10.09 6.934,-18.344 7.754,-18.344 0.821,0 1.012,1.227 0.422,2.731 -0.586,1.504 -2.543,9.246 -4.343,17.211 -2.614,11.535 -2.883,14.867 -1.336,16.39 2.785,2.75 5.449,-1.414 10.394,-16.262 2.246,-6.746 4.633,-12.265 5.305,-12.265 0.676,0 -0.231,5.969 -2.008,13.265 -2.453,10.071 -2.793,13.7 -1.414,15.079 2.914,2.914 5.793,-0.684 8.988,-11.227 4.625,-15.285 7.36,-14.301 3.242,1.168 -1.82,6.84 -1.828,8.414 -0.05,9.891 3.105,2.578 4.832,0.812 7.726,-7.899 1.422,-4.281 2.945,-7.789 3.387,-7.789 0.441,0 0.328,3.438 -0.25,7.641 -0.625,4.535 -0.422,8.023 0.496,8.59 2.879,1.781 6.152,-0.797 7.34,-5.789 l 1.187,-4.977 0.942,5.34 c 1.09,6.183 3.445,7.547 6.961,4.031 2.261,-2.262 2.816,-2.254 6.414,0.102 4.3,2.82 8.644,2.078 8.644,-1.477 0,-1.238 -6.5,-6.312 -14.441,-11.273 -28.66,-17.899 -91.934,-60.219 -98.094,-65.606 -1.355,-1.183 -3.625,-2.152 -5.043,-2.152 -2.941,0 -5.066,6.41 -3.496,10.535 0.676,1.773 0.512,2.184 -0.461,1.172 -0.824,-0.86 -1.754,-2.957 -2.062,-4.664 -0.727,-4.024 -5.547,-5.004 -6.282,-1.278 -0.386,1.938 -0.925,2.239 -1.73,0.961 -0.727,-1.152 1.039,-3.515 4.672,-6.242 9.461,-7.109 23.746,-22.176 26.914,-28.387 5.531,-10.839 8.347,-23.519 7.301,-32.851 -1.235,-10.992 -9.688,-28.414 -18.055,-37.215 -6.84,-7.191 -9.004,-8.031 -10.52,-4.082 z m -16.093,114.633 c 0,0.808 -0.704,1.469 -1.563,1.469 -0.859,0 -1.562,-1.098 -1.562,-2.434 0,-1.34 0.703,-2 1.562,-1.469 0.859,0.532 1.563,1.625 1.563,2.434 z m 24.367,-0.746 c -0.524,1.359 -0.949,2.742 -0.949,3.074 0,0.332 -1.024,0.211 -2.274,-0.27 -1.793,-0.687 -1.875,-1.324 -0.39,-3.011 2.578,-2.934 4.769,-2.809 3.613,0.207 z m 8.285,11.289 c -2.016,5.785 -4.332,6.222 -9.453,1.777 l -3.684,-3.199 3.606,2.027 c 3.148,1.77 3.894,1.645 5.855,-1 1.238,-1.668 2.246,-4.093 2.246,-5.386 0,-1.594 0.516,-1.844 1.582,-0.774 1.071,1.067 1.02,3.195 -0.152,6.555 z m -39.246,1.422 c 2.125,1.699 2.098,2.019 -0.262,2.925 -3.277,1.258 -3.402,1.106 -4.605,-5.617 -0.809,-4.531 -0.684,-4.933 0.75,-2.34 0.953,1.715 2.804,3.981 4.117,5.032 z M 99.754,249.8 c 0.75,1.289 2.668,2.219 4.266,2.07 l 2.906,-0.277 -3.028,2.227 c -6.046,4.441 -6.703,3.566 -9.457,-12.606 l -0.796,-4.683 2.375,5.464 c 1.308,3.004 2.988,6.52 3.734,7.805 z m 58.41,-7.414 c -0.543,2.789 -1.758,7.34 -2.703,10.109 l -1.711,5.036 -8.336,-4.762 c -4.582,-2.617 -7.996,-5.094 -7.582,-5.508 0.41,-0.414 3.113,0.691 6,2.449 2.887,1.762 5.707,3.203 6.266,3.207 0.554,0.004 2.277,-3.508 3.82,-7.801 3.16,-8.785 5.75,-10.453 4.246,-2.73 z m 7.774,16.371 c -2.122,7.524 -3.985,13.817 -4.141,13.977 -0.16,0.16 -6.246,-3.16 -13.527,-7.383 -15.071,-8.738 -15.309,-10.11 -0.485,-2.813 5.856,2.883 10.555,4.34 11.317,3.512 0.718,-0.777 2.855,-6.164 4.75,-11.965 4.976,-15.238 6.64,-11.511 2.086,4.672 z m -77.157,-3.371 c 2.024,5.648 4.657,10.641 5.852,11.102 1.195,0.457 3.984,-0.356 6.199,-1.809 2.211,-1.449 4.32,-2.344 4.676,-1.984 0.359,0.359 -2.91,2.593 -7.266,4.964 -4.355,2.372 -8.109,4.063 -8.344,3.766 -0.234,-0.301 -1.636,-5.113 -3.121,-10.695 -1.484,-5.582 -3.05,-11.379 -3.48,-12.879 -0.43,-1.504 -0.199,-2.735 0.512,-2.735 0.707,0 2.945,4.622 4.972,10.27 z m -13.859,-0.891 c 0,0.766 2.176,7.399 4.832,14.743 4.754,13.132 7.402,15.867 11.641,11.996 0.812,-0.746 8.507,-4.649 17.093,-8.672 8.586,-4.024 14.91,-6.66 14.051,-5.86 -2.277,2.122 -38.601,23.692 -39.891,23.692 -0.601,0 -2.968,-7.551 -5.257,-16.781 -2.289,-9.235 -4.559,-18.102 -5.043,-19.715 -0.575,-1.899 -0.278,-2.551 0.843,-1.86 0.954,0.59 1.731,1.696 1.731,2.457 z m 100.508,16.489 c -2.446,10.027 -5.242,18.535 -6.219,18.91 -0.973,0.375 -6.953,-2.41 -13.293,-6.188 -6.336,-3.773 -14.875,-8.773 -18.973,-11.105 -13.836,-7.871 -6.023,-6.84 10.86,1.433 9.215,4.516 17.625,7.875 18.695,7.461 1.07,-0.41 2.754,-3.316 3.738,-6.461 4.067,-12.968 8.219,-23.699 8.907,-23.011 0.402,0.402 -1.27,8.933 -3.715,18.961 z M 456.477,156.577 c -5.915,4.497 -14.622,11.243 -19.344,14.993 l -8.586,6.82 -0.449,-13.473 -0.453,-13.476 -9.247,0 0,23.422 c 0,12.878 0.399,23.418 0.887,23.418 0.488,0 4.879,-3.207 9.758,-7.122 4.879,-3.918 9.945,-7.957 11.258,-8.98 1.316,-1.02 5.648,-4.488 9.633,-7.707 3.984,-3.223 7.652,-5.856 8.148,-5.856 0.5,0 0.91,6.016 0.91,13.372 l 0,13.367 4.715,-0.489 4.711,-0.488 0.402,-22.371 c 0.223,-12.305 -0.043,-22.648 -0.593,-22.988 -0.547,-0.34 -5.836,3.062 -11.75,7.558 z m -258.215,-3.511 c 0,1.781 26.246,43.285 28.097,44.429 0.629,0.391 3.266,-2.609 5.86,-6.668 18.535,-29.011 22.719,-35.711 23.386,-37.433 0.516,-1.332 -0.964,-1.953 -4.667,-1.953 -4.598,0 -6.051,0.953 -9.555,6.246 l -4.133,6.246 -10.805,0 c -9.429,0 -10.925,-0.399 -11.789,-3.125 -0.547,-1.715 -1.601,-3.121 -2.344,-3.121 -0.742,0 -1.796,-1.406 -2.339,-3.121 -0.739,-2.325 -2.364,-3.125 -6.352,-3.125 -2.949,0 -5.359,0.73 -5.359,1.625 z m 30.914,23.277 c -1.414,2.262 -2.422,2.613 -3.918,1.371 -3.153,-2.617 -2.379,-4.414 1.898,-4.414 3.492,0 3.711,0.328 2.02,3.043 z m 33.097,-2.945 0,21.957 9.594,-0.977 0.555,-32.789 16.394,-0.781 16.391,-0.777 0.496,-4.293 0.492,-4.297 -43.922,0 0,21.957 z m 45.278,0 0,21.957 10.148,-0.977 0.309,-14.051 c 0.168,-7.73 0.344,-15.257 0.39,-16.73 0.071,-2.32 2.219,-2.738 16.082,-3.121 l 16.004,-0.445 0.493,-4.293 0.496,-4.297 -43.922,0 0,21.957 z m 45.816,-19.672 c 0.485,1.258 3.965,7.055 7.742,12.883 3.774,5.824 9.903,15.3 13.618,21.054 3.718,5.75 7.281,10.137 7.914,9.743 1.863,-1.153 27.953,-42.524 27.953,-44.325 0,-0.902 -2.414,-1.64 -5.36,-1.64 -3.988,0 -5.613,0.8 -6.351,3.125 -0.543,1.715 -1.598,3.121 -2.34,3.121 -0.746,0 -1.797,1.406 -2.344,3.121 -0.863,2.726 -2.363,3.125 -11.793,3.125 l -10.801,0 -4.132,-6.246 c -3.504,-5.293 -4.957,-6.246 -9.555,-6.246 -4.121,0 -5.215,0.55 -4.551,2.285 z m 31.457,22.707 c -1.558,1.723 -2.922,2.953 -3.027,2.73 -0.106,-0.218 -1.133,-1.629 -2.281,-3.132 -1.891,-2.469 -1.606,-2.731 3.023,-2.731 l 5.117,0 -2.832,3.133 z" /><path
         id="path16"
         style="fill:#669094;fill-opacity:1;fill-rule:nonzero;stroke:none"
         d="M 113.262,11.32 C 97.723,26.929 93.047,36.909 92.953,54.644 c -0.055,10.613 0.645,14.82 3.492,21.008 4.309,9.351 14.797,23.543 19.11,25.851 5.879,3.149 5.125,-2.449 -1.512,-11.172 -9.738,-12.808 -13.012,-22.972 -12.25,-38.027 0.527,-10.41 1.488,-14.098 5.769,-22.133 2.829,-5.305 8.997,-13.527 13.708,-18.277 7.742,-7.805 9.429,-11.895 4.906,-11.895 -0.906,0 -6.715,5.094 -12.914,11.321 z m 20.054,-1.336 c -0.574,1.492 -0.246,3.511 0.727,4.484 2.992,2.996 2.09,4.059 -7.598,8.949 -5.152,2.602 -9.371,5.422 -9.371,6.27 0,2.344 2.16,1.91 13.375,-2.696 l 10.313,-4.234 2.953,3.844 c 1.625,2.113 2.973,4.66 2.992,5.664 0.016,1.004 -5.379,3.019 -12.066,4.504 -21.231,4.715 -23.809,5.472 -23.809,7.008 0,1.945 6.879,1.757 23.906,-0.657 12.68,-1.796 13.875,-1.734 15.223,0.782 3.543,6.621 2.422,7.101 -19.168,8.242 -11.348,0.597 -20.902,1.359 -21.234,1.691 -0.332,0.332 -0.137,1.352 0.425,2.266 0.61,0.98 6.918,1.672 15.379,1.683 15.832,0.02 26.059,1.278 26.059,3.207 0,0.692 -0.629,2.911 -1.399,4.934 l -1.398,3.68 -18.105,-2.285 c -16.09,-2.036 -21.883,-1.86 -19.43,0.593 0.43,0.43 8.055,2.411 16.949,4.399 8.891,1.992 16.41,4.344 16.707,5.23 0.293,0.887 -0.816,3.278 -2.465,5.317 l -3.004,3.707 -10.351,-4.25 c -11.961,-4.914 -11.852,-4.895 -11.852,-2.235 0,1.11 3.867,3.91 8.59,6.227 4.723,2.316 8.586,5.016 8.586,5.996 0,0.98 -6.93,8.977 -15.402,17.773 -20.664,21.457 -24.418,29.024 -24.387,49.172 0.019,13.012 0.531,15.805 4.18,22.75 2.285,4.356 7.312,11.383 11.168,15.614 5.574,6.117 7.414,7.3 8.976,5.777 1.574,-1.535 1.395,-2.543 -0.902,-5.082 -1.578,-1.742 -2.582,-3.434 -2.231,-3.754 0.356,-0.324 5.121,-2.832 10.594,-5.574 13.113,-6.578 10.984,-9.824 -2.672,-4.078 -11.859,4.992 -13.355,4.992 -15.636,-0.008 -2,-4.391 -1.239,-6.91 2.085,-6.91 1.172,0 8.508,-1.469 16.301,-3.262 9.465,-2.18 14.172,-3.981 14.172,-5.426 0,-1.5 -1.316,-1.933 -4.293,-1.414 -12.605,2.207 -25.172,3.836 -29.664,3.844 l -5.074,0.012 0,-10.606 19.387,-0.551 c 17.55,-0.5 23.144,-1.476 20.96,-3.66 -0.421,-0.418 -9.847,-1.297 -20.949,-1.949 l -20.179,-1.188 0.523,-3.902 c 0.289,-2.148 1,-4.402 1.582,-5.016 0.578,-0.609 7.719,-0.097 15.867,1.145 17.242,2.625 21.84,2.824 21.84,0.949 0,-1.515 -8.23,-3.953 -23.41,-6.933 -11.152,-2.192 -12.719,-4.207 -8.004,-10.297 l 2.914,-3.758 10.363,4.148 c 5.7,2.282 11.059,4.149 11.907,4.149 3.687,0 0.855,-2.699 -7.84,-7.477 -5.145,-2.824 -9.352,-5.562 -9.352,-6.086 0,-0.519 7.344,-8.047 16.317,-16.722 C 154.574,83.503 158.492,75.89 158.359,55.425 158.277,42.761 157.762,40.351 153.113,30.991 146.855,18.39 134.941,5.745 133.316,9.984 Z M 345.801,38.37 c -10.305,8.016 -19.262,14.606 -19.906,14.645 -0.645,0.035 -1.172,-5.902 -1.172,-13.203 l 0,-13.27 -7.805,0 0,45.207 39.812,-30.859 0.899,28 8.469,-0.977 0.437,-20.949 c 0.238,-11.523 -0.113,-21.453 -0.781,-22.058 -0.672,-0.61 -9.649,5.449 -19.953,13.464 z M 215.434,28.023 c -12.918,6.867 -17.473,19.097 -10.973,29.457 4.851,7.734 18.23,13.433 28.937,12.328 12.082,-1.25 17.946,-4.731 17.946,-10.649 0,-2.628 -0.528,-4.503 -1.172,-4.175 -12.805,6.562 -16.746,7.711 -23.195,6.742 C 217.5,60.304 210.75,54.378 210.75,47.48 c 0,-8.875 8.141,-14.692 20.555,-14.692 6.476,0 16.918,3.961 16.918,6.422 0,0.762 0.703,1.383 1.558,1.383 0.86,0 1.563,-2.383 1.563,-5.297 0,-4.722 -0.676,-5.562 -6.278,-7.805 -8.48,-3.394 -22.726,-3.14 -29.632,0.532 z m 68.308,-1.824 -19.906,0.437 0,42.059 42.152,0 0,-7.7 -16.785,-0.445 -16.781,-0.441 0,-7.805 14.543,-0.453 14.543,-0.449 -0.985,-6.907 -28.882,-0.898 0,-9.25 34.347,0 0,-3.809 c 0,-2.097 -0.527,-4.031 -1.172,-4.297 -0.644,-0.261 -10.128,-0.285 -21.074,-0.042 z m 106.555,17.515 0,17.176 -20.516,0 1,7.023 24.59,0.43 24.59,0.434 0,-7.887 -20.297,0 0,-34.348 -9.367,0 0,17.172 z m 32.785,4.074 0,21.243 18.106,-0.575 18.101,-0.574 3.754,-4.363 c 4.949,-5.754 4.738,-9.695 -0.816,-15.25 l -4.575,-4.57 5.356,-7.958 c 2.941,-4.375 5.351,-8.234 5.351,-8.578 0,-0.339 -2.285,-0.601 -5.074,-0.578 -4.457,0.039 -5.699,1.082 -10.242,8.586 l -5.172,8.543 -15.422,0 0,-17.172 -9.367,0 0,21.246 z m 32.039,5.907 c 2.527,1.847 2.66,2.55 0.887,4.683 -1.543,1.863 -4.86,2.512 -12.82,2.512 l -10.739,0 0,-9.367 9.852,0 c 5.949,0 11.027,0.859 12.82,2.172 z m 25.727,-6.075 0,21.075 42.156,0 0,-7.7 -16.785,-0.445 -16.781,-0.441 0,-7.805 14.542,-0.453 14.54,-0.449 -0.489,-3.453 -0.492,-3.454 -28.883,-0.898 0,-9.25 34.348,0 0,-7.805 -42.156,0 0,21.078 z M 244.82,99.601 c -3.711,7.867 -7.32,14.32 -8.019,14.34 -0.699,0.015 -4.031,-5.942 -7.403,-13.239 -3.371,-7.3 -6.664,-13.269 -7.316,-13.269 -0.648,0 -6.328,9.836 -12.617,21.855 l -11.438,21.86 4.696,0 c 4.265,0 5.308,-1.145 11.433,-12.492 3.711,-6.868 7.114,-12.489 7.563,-12.489 0.449,0 4.074,6.496 8.051,14.442 l 7.234,14.441 7.367,-15.434 7.371,-15.433 7.219,13.461 c 6.367,11.883 7.719,13.469 11.508,13.484 2.363,0.008 4.293,-0.293 4.293,-0.672 0,-0.379 -5.219,-10.695 -11.594,-22.925 L 251.57,85.296 244.82,99.601 Z m 255.547,1.113 c -10.305,8.074 -19.265,14.711 -19.906,14.75 -0.645,0.039 -1.172,-5.902 -1.172,-13.203 l 0,-13.27 -9.367,0 0,21.766 c 0,11.973 0.527,22.078 1.168,22.465 0.644,0.383 9.515,-5.898 19.715,-13.961 10.199,-8.062 19.156,-14.656 19.906,-14.656 0.75,0 1.363,5.972 1.363,13.269 l 0,13.274 7.809,0 0,-22.641 c 0,-12.449 -0.176,-22.601 -0.391,-22.555 -0.215,0.043 -8.824,6.688 -19.125,14.762 z M 359.852,89.542 c -5.493,1.649 -6.305,2.504 -6.75,7.117 -0.438,4.559 -0.133,5.086 2.343,4.043 13.539,-5.718 20.461,-6.703 27.723,-3.941 4.59,1.742 5.316,5.684 1.273,6.887 -1.503,0.445 -7.64,1.926 -13.64,3.289 -15.055,3.418 -18.278,5.762 -17.672,12.828 0.894,10.465 14.191,15.394 30.789,11.414 7.363,-1.766 7.941,-2.246 7.941,-6.602 0,-3.871 -0.48,-4.492 -2.734,-3.539 -10.926,4.621 -25.719,4.59 -27.504,-0.058 -1.18,-3.074 2.715,-4.914 14.918,-7.039 17.348,-3.02 23.512,-9.227 18.488,-18.617 -3.636,-6.797 -21.824,-9.786 -35.175,-5.782 z m 62.449,-0.301 c -11.578,4.344 -17.953,12.223 -17.953,22.192 0,11.305 13.851,21.207 29.664,21.207 10.429,0 19.672,-3.91 25.433,-10.758 7.75,-9.211 4.461,-22.387 -7.414,-29.73 -6.676,-4.121 -22.39,-5.661 -29.73,-2.911 z m 20.586,7.661 c 11.004,4.168 14.855,14.359 8.148,21.554 -11.187,12.012 -37.32,6.137 -37.32,-8.386 0,-10.778 16.195,-18.086 29.172,-13.168 z m -158.758,13.062 0,21.184 9.461,0 -0.438,-20.688 -0.433,-20.687 -4.293,-0.496 -4.297,-0.493 0,21.18 z m 22.898,-19.93 c -0.57,0.571 -1.039,10.055 -1.039,21.075 l 0,20.039 9.367,0 0,-34.348 32.786,0 0,-7.809 -20.036,0 c -11.019,0 -20.503,0.469 -21.078,1.043 z m -175.101,22.348 c -0.52,0.84 1.816,5.231 5.191,9.758 7.746,10.383 10.281,15.531 12.684,25.766 4.16,17.699 -3.84,38.769 -20.703,54.519 -11.887,11.102 -51.735,39.035 -95.668,67.063 -17.95,11.449 -32.907,21.621 -33.235,22.605 -1.226,3.684 3.535,4.313 8.09,1.07 4.168,-2.968 4.699,-3.027 6.016,-0.672 2.433,4.352 5.976,3.106 5.976,-2.097 0,-5.996 1.942,-5.996 4.207,0 0.996,2.644 2.911,4.683 4.391,4.683 2.25,0 2.473,-1.109 1.551,-7.804 -1.379,-10.02 0.824,-10.02 4.383,0 2.535,7.14 5.875,9.855 7.964,6.476 0.454,-0.73 -0.312,-5.312 -1.695,-10.183 -1.387,-4.867 -2.066,-9.305 -1.512,-9.86 1.563,-1.558 2.469,-0.031 6.313,10.66 2.18,6.059 4.582,10.129 6.16,10.438 3.441,0.672 3.34,-3.289 -0.43,-16.895 -1.66,-5.984 -2.394,-11.265 -1.64,-11.73 1.785,-1.105 3.445,2.238 7.761,15.629 3.989,12.359 5.094,14.051 8.364,12.801 1.98,-0.762 1.777,-2.957 -1.426,-15.43 -2.055,-8 -3.75,-15.773 -3.766,-17.277 -0.074,-6.555 2.739,-1.481 8.504,15.343 5.676,16.543 6.492,18.012 9.703,17.395 1.93,-0.367 3.766,0.094 4.075,1.027 0.332,0.989 8.433,-2.027 19.48,-7.254 10.406,-4.922 19.309,-8.949 19.785,-8.949 4.836,0 -9.601,10.266 -26.058,18.531 -4.606,2.313 -5.836,6.45 -1.918,6.45 1.308,0 7.965,-2.809 14.797,-6.243 13.859,-6.968 14.054,-7.027 14.046,-4.296 0,1.074 -4.918,4.718 -10.929,8.097 -10.016,5.637 -12.442,8.207 -10.024,10.629 0.496,0.496 5.024,-1.144 10.063,-3.641 10.441,-5.183 10.894,-5.285 10.894,-2.515 0,1.117 -3.16,3.566 -7.023,5.445 -3.867,1.875 -7.027,4.082 -7.027,4.903 0,2.933 3.109,3.32 7.683,0.957 5.637,-2.915 6.367,-2.965 6.367,-0.442 0,1.082 -1.406,2.844 -3.121,3.918 -4.285,2.676 -3.918,5.047 0.781,5.047 3.512,0 3.903,0.625 3.903,6.246 0,3.434 0.613,6.242 1.367,6.242 2.09,0 2.535,-11.906 2.535,-67.886 0,-47.801 -0.195,-51.532 -2.73,-52.028 -1.813,-0.351 -2.735,0.446 -2.735,2.371 0,3.207 -8.468,8.996 -10.929,7.473 -0.86,-0.527 -1.559,-1.957 -1.559,-3.172 0,-1.625 1.242,-1.965 4.684,-1.273 4.218,0.843 4.683,0.543 4.683,-3.032 0,-2.949 1.981,-5.418 7.731,-9.64 10.785,-7.918 21.011,-19.723 26.156,-30.199 3.848,-7.836 4.363,-10.641 4.363,-23.719 l 0,-14.832 -5.101,-9.367 c -5.192,-9.528 -16.16,-22.637 -18.942,-22.637 -0.844,0 -1.961,0.687 -2.48,1.531 z m -25.137,121.027 c 1.141,4.551 3.242,4.84 10.145,1.399 8.683,-4.332 6.984,-1.188 -2.2,4.066 -4.824,2.758 -9.05,4.739 -9.39,4.403 -0.336,-0.34 -1.09,-3.578 -1.668,-7.196 -1.149,-7.183 1.426,-9.394 3.113,-2.672 z m -8.523,10.516 c 1.027,3.207 2.523,6.242 3.332,6.742 0.808,0.496 5.347,-0.992 10.086,-3.312 4.738,-2.317 8.961,-3.871 9.382,-3.449 0.754,0.753 -20.605,13.703 -22.601,13.703 -1.473,0 -6.367,-19.039 -5.324,-20.723 1.254,-2.027 2.992,0.359 5.125,7.039 z m -9.184,10.559 c 2.047,6.011 4.633,10.929 5.75,10.929 1.113,0 6.984,-2.496 13.047,-5.55 16.949,-8.536 15.828,-5.661 -1.781,4.566 -8.653,5.027 -15.973,8.887 -16.262,8.574 -0.981,-1.054 -7.109,-24.168 -7.109,-26.812 0,-5.762 2.828,-2.075 6.355,8.293 z m -9.477,11.711 c 2.719,8.156 5.676,14.832 6.571,14.832 0.894,0 8.965,-3.512 17.929,-7.805 16.793,-8.043 19.215,-8.844 19.215,-6.356 0,1.278 -34.125,22.344 -39.597,24.442 -1.555,0.598 -3.411,-4.09 -7.016,-17.731 -5.312,-20.066 -5.648,-22.214 -3.477,-22.214 0.79,0 3.657,6.675 6.375,14.832 z m 367.676,-101.571 -18.734,14.578 -0.781,-13.488 -0.782,-13.492 -7.804,0 -0.434,22.25 c -0.238,12.234 0.113,22.242 0.781,22.234 0.668,-0.007 9.645,-6.672 19.95,-14.808 10.304,-8.133 19.113,-14.801 19.574,-14.817 0.465,-0.015 0.609,5.551 0.32,12.371 -0.473,11.219 -0.219,12.559 2.703,14.122 1.774,0.953 3.914,1.304 4.758,0.785 1.781,-1.102 2.129,-44.52 0.356,-44.395 -0.645,0.043 -9.602,6.641 -19.907,14.66 z M 198.707,153.476 c 2.336,6.086 28.059,43.445 29.109,42.281 0.684,-0.758 6.36,-9.461 12.61,-19.336 6.25,-9.875 12.316,-19.062 13.484,-20.422 2.555,-2.972 1.309,-4.558 -3.586,-4.558 -2.492,0 -4.906,1.945 -7.754,6.246 l -4.132,6.246 -22.958,0 -4.132,-6.246 c -3.282,-4.961 -5.09,-6.246 -8.778,-6.246 -3.175,0 -4.394,0.644 -3.863,2.035 z m 33.902,19.187 c 0,0.508 -1.347,2.641 -2.996,4.735 l -3,3.812 -2.465,-3.523 c -3.558,-5.078 -3.121,-5.949 2.997,-5.949 3.003,0 5.464,0.418 5.464,0.925 z m 30.754,-20.05 c -0.359,0.644 -0.578,10.304 -0.48,21.468 l 0.172,20.297 3.902,-0.015 3.902,-0.02 0.883,-35.094 32.684,0 0,-7.808 -20.203,0 c -11.114,0 -20.5,0.527 -20.86,1.172 z m 45.688,3.511 c -0.031,2.578 -0.086,12.239 -0.117,21.469 l -0.055,16.785 3.629,-0.015 3.629,-0.02 0.883,-35.094 32.683,0 0,-7.808 -40.594,0 -0.058,4.683 z m 45.336,-3.066 c 0,1.406 23.496,38.957 26.722,42.711 1.032,1.199 26.641,-36.047 28.981,-42.145 0.601,-1.566 -0.473,-2.183 -3.805,-2.183 -3.687,0 -5.496,1.285 -8.777,6.246 l -4.133,6.246 -22.594,-0.117 -4.277,-6.188 c -3.063,-4.426 -5.395,-6.187 -8.199,-6.187 -2.153,0 -3.918,0.73 -3.918,1.617 z m 32.789,19.387 c 0,1.671 -3.711,8.66 -4.602,8.66 -0.535,0 -2.219,-2.106 -3.738,-4.684 l -2.766,-4.683 5.551,0 c 3.055,0 5.555,0.32 5.555,0.707 z m -253.488,42.531 c -1.997,1.996 -1.028,9.844 1.21,9.844 1.219,0 2.536,-0.875 2.93,-1.95 0.539,-1.468 1.188,-1.511 2.617,-0.168 1.41,1.325 1.461,2.606 0.196,4.973 -2.469,4.613 -2.118,9.637 0.671,9.637 1.313,0 3.051,-1.758 3.868,-3.903 0.816,-2.148 2.203,-3.902 3.082,-3.902 2.199,0 2.004,4.402 -0.563,12.938 -1.191,3.957 -1.777,7.582 -1.301,8.054 2.352,2.352 5.067,0.274 6.528,-4.992 2.199,-7.945 4.226,-10.902 6.144,-8.965 1.004,1.016 0.446,5.321 -1.621,12.481 -4.094,14.179 -4.179,15.386 -1.105,16.027 1.953,0.402 3.414,-2.031 6.047,-10.09 3.902,-11.945 5.648,-14.672 7.054,-11.015 0.52,1.359 -0.863,9.269 -3.074,17.574 -4.617,17.351 -4.824,19.508 -1.867,19.508 1.301,0 4.164,-5.692 7.266,-14.442 2.812,-7.941 5.699,-15.097 6.41,-15.898 3.515,-3.957 2.98,2.551 -1.739,21.062 -3.867,15.176 -4.738,20.813 -3.421,22.133 0.972,0.973 2.152,1.387 2.617,0.922 0.465,-0.465 3.511,-8.805 6.769,-18.535 3.258,-9.731 6.75,-17.969 7.766,-18.305 2.703,-0.902 2.289,3.402 -1.93,19.957 -2.246,8.828 -3.203,15.403 -2.367,16.274 2.059,2.132 2.738,0.984 8.324,-14.102 7.207,-19.453 11.571,-19.879 6.403,-0.629 -1.266,4.723 -2.313,10.227 -2.321,12.231 -0.027,5.488 3.508,3.293 6.071,-3.766 5.097,-14.043 6.507,-16.789 7.894,-15.375 0.859,0.871 0.566,5.121 -0.738,10.699 -1.192,5.086 -1.805,9.828 -1.367,10.539 1.773,2.867 3.668,0.879 6.574,-6.91 3.652,-9.789 5.937,-9.449 5.242,0.781 -0.602,8.922 1.977,9.875 5.289,1.95 1.254,-3.004 2.977,-5.465 3.824,-5.465 0.844,0 1.539,2.461 1.539,5.465 0,5.859 2.032,7.136 4.461,2.8 l 1.492,-2.668 5.547,2.989 c 6.364,3.425 9.309,2.086 4.805,-2.18 -1.668,-1.582 -17.973,-12.441 -36.234,-24.125 -18.262,-11.688 -42.5,-27.793 -53.864,-35.789 -24.933,-17.543 -23.894,-16.899 -25.128,-15.664 z" /><path
         id="path18"
         style="fill:#104b5b;fill-opacity:1;fill-rule:nonzero;stroke:none"
         d="m 115.941,8.976 c -8.3,8.117 -16.629,19.523 -19.289,26.426 -5.148,13.347 -4.183,31.093 2.399,44.082 5.047,9.957 17.246,23.285 19.402,21.195 1.125,-1.09 -0.109,-3.754 -3.98,-8.586 -9.68,-12.078 -13.535,-22.414 -13.672,-36.668 -0.106,-10.965 0.496,-13.785 4.902,-23.086 2.914,-6.16 8.637,-14.394 13.66,-19.66 4.754,-4.98 8.641,-9.523 8.641,-10.09 0,-3.004 -5.352,-0.172 -12.063,6.387 z m 105.493,17.433 c -8.289,2.688 -13.938,7.227 -17.09,13.739 -2.715,5.605 -2.946,7.468 -1.481,11.902 3.305,10.016 14.418,16.645 27.903,16.645 10.464,0 17.363,-2.672 19.172,-7.434 2.058,-5.414 1.117,-5.742 -5.821,-2.027 -22.929,12.293 -47.254,-10.547 -26.035,-24.45 6.395,-4.187 20.813,-3.71 27.043,0.899 5.68,4.199 6.227,4.035 5.152,-1.543 -0.472,-2.469 -2.441,-4.863 -4.933,-6.004 -5.418,-2.473 -18.653,-3.43 -23.91,-1.727 z m 123.91,13.403 c -10.446,8.156 -19.36,14.832 -19.805,14.832 -0.449,0 -0.816,-6.324 -0.816,-14.051 l 0,-14.051 -7.805,0 0,43.926 4.574,-3.258 c 2.516,-1.789 11.121,-8.488 19.125,-14.886 8.004,-6.395 15.43,-11.653 16.504,-11.68 1.41,-0.035 1.949,3.617 1.949,13.219 0,12.23 0.246,13.273 3.125,13.273 l 3.121,0 0,-21.078 c 0,-11.594 -0.218,-21.078 -0.488,-21.078 -0.269,0 -9.039,6.676 -19.484,14.832 z m -81.508,7.027 0,20.297 21.191,0 c 19.34,0 21.145,-0.242 20.668,-2.734 -0.453,-2.368 -2.773,-2.793 -17.289,-3.176 l -16.765,-0.442 0,-9.261 14.05,0 c 13.012,0 14.051,-0.235 14.051,-3.125 0,-2.891 -1.039,-3.121 -14.051,-3.121 l -14.05,0 0,-12.489 32.785,0 0,-6.246 -40.59,0 0,20.297 z m 128.023,-3.125 0,17.176 -10.148,0 c -9.109,0 -10.149,0.32 -10.149,3.121 l 0,3.125 24.313,0 c 22.313,0 24.273,-0.227 23.793,-2.734 -0.422,-2.223 -2.484,-2.817 -11.043,-3.196 l -10.523,-0.461 0,-34.203 -6.243,0 0,17.172 z m 32.786,3.125 0,20.297 16.902,0 c 15.648,0 17.152,-0.27 20.297,-3.617 4.613,-4.91 4.332,-11.004 -0.731,-15.695 l -4.125,-3.825 4.907,-7.972 c 5.843,-9.5 5.898,-9.844 1.41,-9.203 -2.203,0.312 -5.789,3.839 -9.707,9.546 l -6.211,9.047 -7.86,-0.461 c -7.285,-0.425 -7.82,-0.73 -7.332,-4.183 1.012,-7.184 -1.218,-14.231 -4.5,-14.231 l -3.05,0 0,20.297 z m 32.003,9.367 0,3.903 -12.121,0.457 c -9.773,0.367 -12.304,-0.012 -13.047,-1.953 -2.253,-5.872 0.395,-7.243 13.047,-6.766 l 12.121,0.457 0,3.902 z m 24.2,-9.367 0,20.297 42.156,0 0,-6.246 -34.348,0 0,-9.367 14.051,0 c 13.012,0 14.051,-0.235 14.051,-3.125 0,-2.891 -1.039,-3.121 -14.051,-3.121 l -14.051,0 0,-12.489 34.348,0 0,-6.246 -42.156,0 0,20.297 z m -269.926,61.348 c -6.106,11.554 -11.098,21.445 -11.098,21.98 0,0.539 1.414,0.981 3.145,0.981 3.332,0 6.586,-4.434 13.465,-18.348 2.226,-4.508 4.515,-8.195 5.078,-8.195 0.566,0 4.269,6.5 8.234,14.441 l 7.211,14.442 6.805,-14.387 c 3.742,-7.914 7.445,-14.199 8.23,-13.965 0.785,0.23 4.395,6.004 8.024,12.824 4.629,8.715 7.57,12.555 9.89,12.903 1.813,0.277 3.297,-0.274 3.297,-1.223 0,-1.379 -19.422,-39.727 -21.297,-42.051 -0.277,-0.34 -3.5,5.801 -7.168,13.649 -3.664,7.847 -7.183,14.273 -7.816,14.281 -0.633,0.008 -4.246,-6.363 -8.027,-14.16 l -6.879,-14.172 -11.094,21 z M 367.656,88.534 c -8.769,1.094 -13.269,3.696 -13.269,7.672 0,4.399 0.289,4.453 6.531,1.223 6.32,-3.266 19.144,-3.117 24.34,0.285 l 4.047,2.652 -3.317,2.688 c -1.824,1.477 -6.988,3.172 -11.476,3.77 -10.719,1.421 -17.887,4.527 -20.133,8.722 -4.602,8.602 4.195,16.121 18.863,16.121 11.688,0 18.617,-2.851 18.617,-7.656 l 0,-3.633 -5.414,2.262 c -6.558,2.738 -21.347,2.976 -23.937,0.387 -4.703,-4.703 0.355,-8 15.32,-9.985 4.164,-0.554 9.77,-2.34 12.457,-3.972 4.246,-2.586 4.817,-3.715 4.399,-8.715 -0.379,-4.504 -1.496,-6.313 -5.168,-8.371 -5.137,-2.875 -14.555,-4.364 -21.86,-3.45 z m 64.012,-0.312 c -0.856,0.281 -4.172,0.949 -7.367,1.484 -7.164,1.196 -14.969,7.551 -17.899,14.571 -6.5,15.55 14.055,31.613 34.575,27.019 16,-3.582 24.918,-14.465 21.164,-25.832 -2.34,-7.086 -10.981,-14.508 -18.336,-15.75 -3.239,-0.547 -6.946,-1.223 -8.231,-1.5 -1.289,-0.277 -3.047,-0.273 -3.906,0.008 z m 17.836,11.363 c 8.969,6.68 7.633,18.192 -2.68,23.086 -12.508,5.934 -27.316,2.543 -33.058,-7.574 -8.395,-14.793 20.093,-27.156 35.738,-15.512 z m -163.813,10.598 c 0,19.34 0.239,21.144 2.735,20.668 2.41,-0.461 2.781,-2.953 3.168,-21.192 l 0.433,-20.668 -6.336,0 0,21.192 z m 21.86,-0.113 0,21.078 3.07,0 c 2.848,0 3.106,-1.289 3.512,-17.567 l 0.441,-17.562 16.367,-0.496 c 9.004,-0.274 16.645,-0.77 16.977,-1.106 0.336,-0.332 0.195,-1.691 -0.313,-3.015 -0.765,-1.996 -4.296,-2.411 -20.492,-2.411 l -19.562,0 0,21.079 z m 163.929,1.066 c 0,17.336 0.411,21.633 1.954,20.426 18.707,-14.649 37.074,-28.52 37.761,-28.52 0.485,0 0.879,6.371 0.879,14.16 l 0,14.161 3.512,-0.5 3.516,-0.497 0.433,-20.687 c 0.281,-13.25 -0.133,-20.688 -1.148,-20.688 -0.871,0 -9.399,6.024 -18.949,13.383 -9.551,7.364 -18.34,13.762 -19.536,14.219 -1.757,0.676 -2.175,-1.824 -2.175,-13.051 0,-12.765 -0.25,-13.906 -3.122,-14.121 l -3.125,-0.234 0,21.949 z m -338.792,3.02 c 0,0.96 2.214,4.265 4.917,7.343 12.016,13.688 16.836,35.567 11.45,51.981 -5.207,15.879 -13.715,26.332 -34.176,41.98 -10.809,8.27 -62.41,43.153 -82.899,56.043 -27.679,17.414 -32.308,20.766 -30.785,22.289 1.028,1.028 3.289,0.653 6.692,-1.105 l 5.14,-2.66 2.047,2.8 c 2.488,3.403 4.422,1.829 4.422,-3.601 0,-6.152 3.387,-5.914 5.465,0.387 2.172,6.582 5.746,6.461 4.859,-0.164 -1.121,-8.375 -0.965,-10.446 0.844,-11.075 1.02,-0.355 2.934,2.789 4.414,7.239 4.66,14.031 9.063,11.128 4.817,-3.172 -1.645,-5.539 -1.938,-8.789 -0.887,-9.84 2.25,-2.25 3.875,0.058 7.047,9.988 3.195,10.024 5.324,13.238 7.386,11.176 0.891,-0.891 0.192,-5.926 -1.804,-13.047 -3.836,-13.668 -3.957,-15.305 -1.117,-15.305 1.859,0 10.351,20.215 10.351,24.645 0,0.832 0.992,2.34 2.203,3.344 4.196,3.484 4.266,-1.289 0.246,-17.231 -3.718,-14.738 -3.949,-18.562 -1.125,-18.562 0.625,0 3.875,7.902 7.215,17.562 3.344,9.66 6.809,18.055 7.707,18.653 3.813,2.55 3.391,-3.465 -1.535,-21.95 -3.316,-12.445 -4.699,-20.218 -3.758,-21.16 2.133,-2.133 2.488,-1.492 8.192,14.797 3.347,9.566 5.961,14.734 7.449,14.734 2.887,0 2.742,-1.296 -2.223,-20.062 -2.238,-8.457 -3.676,-16.008 -3.199,-16.781 2.004,-3.243 3.828,-0.786 7.207,9.714 3.293,10.215 6.191,14.157 8.621,11.727 0.524,-0.523 -0.219,-4.586 -1.648,-9.019 -1.434,-4.438 -3.039,-10.77 -3.567,-14.071 -1.449,-9.066 2.762,-7.773 6.199,1.903 1.625,4.578 3.586,7.628 4.657,7.257 2.125,-0.742 2.027,-3.742 -0.434,-13.461 -2.219,-8.769 0.168,-11.949 3.758,-5.003 3.855,7.457 7.984,6.253 5.269,-1.536 -2.078,-5.953 -0.605,-10.339 2.579,-7.695 2.933,2.434 5.89,0.563 4.757,-3.008 -0.593,-1.863 0.399,-3.625 2.997,-5.328 7.648,-5.008 24.183,-21.586 27.957,-28.031 9.652,-16.469 10.972,-34.137 3.718,-49.856 -6.746,-14.625 -21.425,-30.273 -21.425,-22.839 z m 315,51.343 c -10.083,7.727 -19.04,14.047 -19.907,14.047 -0.937,0 -1.574,-5.383 -1.574,-13.273 0,-12.227 -0.246,-13.27 -3.125,-13.27 l -3.121,0 0,21.168 c 0,16.535 0.426,20.906 1.949,19.973 1.074,-0.66 10.031,-7.449 19.906,-15.086 l 17.957,-13.883 0.45,14.211 c 0.406,12.926 0.722,14.211 3.511,14.211 2.493,0 3.071,-1.09 3.098,-5.856 0.02,-3.218 0.406,-12.703 0.859,-21.078 0.454,-8.371 0.262,-15.218 -0.425,-15.214 -0.688,0.003 -9.496,6.328 -19.578,14.05 z M 200.082,154.304 c 1.992,4.98 25.781,40.633 26.902,40.316 0.77,-0.218 5.375,-6.683 10.235,-14.371 4.855,-7.687 10.765,-17.011 13.129,-20.722 l 4.3,-6.746 -4.382,0.5 c -3.051,0.351 -5.524,2.277 -8.157,6.359 l -3.777,5.855 -22.852,0 -4.132,-6.246 c -2.953,-4.465 -5.227,-6.246 -7.961,-6.246 -2.102,0 -3.59,0.586 -3.305,1.301 z m 32.668,20.297 c -0.844,1.57 -2.621,3.762 -3.949,4.867 -2.028,1.684 -2.918,1.41 -5.5,-1.691 -4.446,-5.336 -3.992,-6.039 3.898,-6.039 6.383,0 6.93,0.285 5.551,2.863 z m 31.086,-1.301 0,20.297 8.098,0 -0.539,-16.785 -0.536,-16.781 16.786,-0.446 c 15.496,-0.41 16.781,-0.679 16.781,-3.511 l 0,-3.071 -40.59,0 0,20.297 z m 45.273,0 0,20.297 7.809,0 0,-34.348 32.785,0 0,-6.246 -40.594,0 0,20.297 z m 50.95,-11.32 c 3.171,4.937 9.238,14.422 13.476,21.078 6.832,10.726 10.492,14.523 10.527,10.93 0.008,-0.645 5.891,-10.129 13.075,-21.079 l 13.062,-19.906 -4.277,0 c -3.266,0 -5.262,1.485 -8.414,6.246 l -4.133,6.246 -11.297,-0.062 -11.297,-0.059 -4.277,-6.183 c -3.086,-4.461 -5.387,-6.188 -8.246,-6.188 l -3.965,0 5.766,8.977 z m 28.675,10.687 c 0,0.512 -1.492,3.028 -3.32,5.594 l -3.32,4.66 -2.914,-4.418 c -4.063,-6.164 -3.77,-6.765 3.308,-6.765 3.438,0 6.246,0.418 6.246,0.929 z" /><path
         id="path20"
         style="fill:#073a4c;fill-opacity:1;fill-rule:nonzero;stroke:none"
         d="m 122.953,3.718 c -1.488,1.129 -2.25,2.512 -1.691,3.07 0.562,0.559 -0.02,1.02 -1.293,1.02 -3.215,0 -11.274,8.738 -9.981,10.824 1.465,2.375 4.371,0.289 3.34,-2.398 -0.461,-1.2 0.051,-2.184 1.137,-2.184 1.09,0 4.723,-2.809 8.074,-6.242 5.844,-5.984 6.09,-8.399 0.414,-4.09 z M 104.07,24.015 c -1.359,2.074 -2.023,5.203 -1.515,7.144 0.679,2.598 1.23,2.938 2.222,1.368 1.883,-2.965 1.676,-4.797 -0.394,-3.52 -1.071,0.664 -1.481,0.238 -1.039,-1.078 0.394,-1.191 1.66,-2.168 2.804,-2.168 2.54,0 3.848,-3.27 1.813,-4.527 -0.809,-0.5 -2.563,0.75 -3.891,2.781 z m 259.485,18.531 c -0.11,9.66 -0.364,19.145 -0.567,21.074 -0.203,1.934 0.239,3.516 0.981,3.516 0.742,0 1.347,-9.488 1.347,-21.078 0,-11.594 -0.351,-21.078 -0.781,-21.078 -0.43,0 -0.871,7.902 -0.98,17.566 z M 218.559,27.671 c -4.719,1.781 -14.051,10.133 -14.051,12.57 0,2.063 0.398,1.969 2.234,-0.519 2.051,-2.789 2.196,-2.531 1.766,3.211 -0.258,3.437 -0.172,4.41 0.191,2.164 1.196,-7.414 8.551,-12.641 19.555,-13.891 l 9.82,-1.113 -7.418,-0.215 c -4.078,-0.117 -7.414,-0.918 -7.414,-1.777 0,-1.695 -1.07,-1.793 -4.683,-0.43 z m -5.465,8.238 c -0.532,0.86 -1.668,1.563 -2.528,1.563 -0.859,0 -1.125,-0.703 -0.593,-1.563 0.527,-0.859 1.664,-1.562 2.523,-1.562 0.859,0 1.129,0.703 0.598,1.562 z m 14.441,-8.335 c 1.074,0.433 2.828,0.433 3.903,0 1.074,-0.43 0.195,-0.786 -1.95,-0.786 -2.148,0 -3.027,0.356 -1.953,0.786 z m 38.293,5.656 -0.223,6.582 2.165,-6.184 c 1.195,-3.402 1.847,-6.508 1.457,-6.898 -0.391,-0.391 -0.719,0.285 -0.731,1.504 -0.019,1.64 -0.336,1.722 -1.234,0.308 -0.692,-1.09 -1.305,0.91 -1.434,4.688 z m 5.555,-4.145 -0.914,3.324 30.054,-0.21 -13.558,-0.543 c -11.274,-0.454 -13.649,-0.997 -14.113,-3.219 -0.457,-2.196 -0.723,-2.078 -1.469,0.648 z m 30.484,-1.347 c -1.289,0.828 -1.179,1.699 0.391,3.16 1.801,1.668 2.168,1.468 2.168,-1.172 0,-3.555 -0.059,-3.602 -2.559,-1.988 z m 18.563,-0.075 c -1.45,0.52 -1.864,5.973 -1.614,21.258 l 0.34,20.555 0.489,-19.801 c 0.425,-17.246 0.832,-19.867 3.171,-20.332 1.481,-0.293 1.985,-0.949 1.125,-1.457 -0.855,-0.508 -2.437,-0.609 -3.511,-0.223 z m 142.113,2 c 0.129,1.719 0.414,3.125 0.629,3.125 0.219,0 1.144,-1.406 2.066,-3.125 1.317,-2.464 1.188,-3.121 -0.629,-3.121 -1.339,0 -2.203,1.305 -2.066,3.121 z m -106.594,3.125 c -3.008,2.528 -4.547,4.618 -3.422,4.641 1.145,0.023 1.555,0.836 0.93,1.844 -0.695,1.125 -0.426,1.379 0.715,0.672 1.004,-0.621 1.426,-1.782 0.93,-2.579 -0.493,-0.8 1.078,-3.187 3.488,-5.308 6.187,-5.442 3.961,-4.828 -2.641,0.73 z m 68.696,2.246 c 0,3.817 0.691,7.364 1.535,7.883 0.937,0.578 1.465,-2.125 1.355,-6.933 -0.219,-9.7 -2.89,-10.578 -2.89,-0.95 z m 5.128,0.094 c 0.012,4.293 0.317,5.863 0.676,3.492 0.36,-2.375 0.348,-5.886 -0.023,-7.808 -0.371,-1.918 -0.664,0.023 -0.653,4.316 z m 52.637,-5.722 c 0,0.714 1.024,1.3 2.274,1.3 1.25,0 1.91,-0.586 1.468,-1.3 -0.441,-0.719 -1.464,-1.305 -2.273,-1.305 -0.809,0 -1.469,0.586 -1.469,1.305 z m 14.074,0.648 c -0.019,2.418 1.543,2.695 13.641,2.418 l 13.66,-0.313 -12.441,-0.539 c -7.449,-0.324 -12.922,-1.293 -13.641,-2.418 -0.812,-1.281 -1.199,-1.011 -1.219,0.852 z m -248.808,3.465 c -0.485,1.258 -0.207,2.707 0.613,3.215 0.82,0.504 1.492,-0.528 1.492,-2.293 0,-3.77 -0.867,-4.153 -2.105,-0.922 z M 456.34,34.82 c 0.601,1.605 0.426,2.425 -0.41,1.906 -0.805,-0.496 -2.274,0.605 -3.262,2.449 -1.461,2.731 -1.402,3.106 0.312,2.02 2.028,-1.286 2.79,-1.539 5.844,-1.969 0.766,-0.106 1.86,-1.402 2.426,-2.879 0.566,-1.477 0.531,-2.184 -0.082,-1.574 -0.609,0.609 -2.184,0.238 -3.496,-0.828 -2.008,-1.633 -2.219,-1.493 -1.332,0.875 z M 339.531,45.003 c -5.136,4.145 -10.75,8.367 -12.465,9.391 -2.742,1.629 -2.554,1.722 1.543,0.789 l 4.672,-1.067 -2.707,2.708 c -1.504,1.503 -3.574,2.203 -4.668,1.574 -1.078,-0.621 -1.441,-0.559 -0.804,0.144 0.636,0.703 0.285,2.387 -0.782,3.739 -1.523,1.929 -0.992,1.851 2.473,-0.364 8.023,-5.121 21.484,-16.972 17.836,-15.699 -4.164,1.453 -3.254,-1.695 1.172,-4.062 2.144,-1.153 3.902,-2.676 3.902,-3.387 0,-1.945 -0.105,-1.879 -10.172,6.234 z m -1.347,5.973 c -2.278,2.277 -4.579,3.703 -5.118,3.164 -1.054,-1.055 5.582,-7.164 7.872,-7.25 0.761,-0.027 -0.477,1.812 -2.754,4.086 z m 54.199,-2.578 c 0,6.441 0.273,9.074 0.613,5.855 0.336,-3.219 0.336,-8.488 0,-11.707 -0.34,-3.222 -0.613,-0.586 -0.613,5.852 z m 93.125,-8.457 c -0.02,2.504 -0.27,2.613 -1.535,0.652 -0.832,-1.289 -1.516,-1.641 -1.516,-0.781 0,0.859 0.617,2.531 1.367,3.719 1.071,1.687 1.606,1.406 2.461,-1.29 0.602,-1.894 0.68,-3.859 0.172,-4.367 -0.508,-0.508 -0.934,0.422 -0.949,2.067 z M 99.34,42.484 c -0.528,1.965 -0.895,4.98 -0.82,6.695 0.074,1.719 0.777,0.383 1.562,-2.969 1.523,-6.484 0.871,-9.754 -0.742,-3.726 z m 166.055,1.492 c 0,1.859 0.199,3.09 0.441,2.73 0.246,-0.355 1.383,-1.879 2.535,-3.382 1.789,-2.336 1.727,-2.731 -0.441,-2.731 -1.559,0 -2.535,1.305 -2.535,3.383 z M 203.25,47.62 c 0.031,2.575 0.383,3.438 0.777,1.918 0.395,-1.515 0.371,-3.625 -0.058,-4.683 -0.426,-1.055 -0.75,0.187 -0.719,2.765 z M 94,49.96 c 0.07,2.578 0.727,4.684 1.457,4.684 0.727,0 1.324,-2.106 1.324,-4.684 0,-2.574 -0.656,-4.683 -1.457,-4.683 -0.804,0 -1.398,2.109 -1.324,4.683 z m 191.199,-3.523 c 10.469,0.429 12.906,1.008 13.481,3.195 0.508,1.934 0.75,1.703 0.882,-0.844 l 0.18,-3.511 -13.66,0.316 -13.66,0.32 12.777,0.524 z m 156.617,0.16 7.028,0.852 -8.586,1 -8.59,1.003 10.617,0.254 c 5.84,0.141 12.602,1.282 15.024,2.535 2.425,1.254 4.851,1.836 5.386,1.301 0.539,-0.539 0.981,0.235 0.981,1.715 0,1.481 -0.653,2.289 -1.453,1.797 -0.801,-0.496 -1.961,-0.078 -2.582,0.93 -0.746,1.207 -0.45,1.406 0.875,0.586 1.336,-0.825 1.765,-0.512 1.289,0.929 -0.395,1.196 -2.418,3.039 -4.496,4.098 -2.84,1.449 -3.098,1.937 -1.051,1.953 3.554,0.031 8.98,-5.434 8.98,-9.047 0,-1.551 -0.945,-4.113 -2.097,-5.691 -2.043,-2.793 -4.266,-3.278 -20.543,-4.485 -7.082,-0.527 -7.157,-0.5 -0.782,0.27 z m 51.133,-0.285 c 1.074,0.433 1.953,1.644 1.953,2.695 0,1.34 3.149,1.844 10.536,1.684 8.468,-0.18 10.64,-0.735 11.046,-2.821 0.438,-2.257 -1.179,-2.578 -12.492,-2.468 -7.148,0.066 -12.117,0.476 -11.043,0.91 z m 16.414,1.625 c -1.918,0.371 -5.433,0.379 -7.804,0.019 -2.375,-0.355 -0.805,-0.66 3.492,-0.672 4.293,-0.011 6.234,0.282 4.312,0.653 z m -243.968,5.238 c 0,1.77 0.671,2.801 1.496,2.293 0.82,-0.508 1.093,-1.957 0.613,-3.215 -1.238,-3.226 -2.109,-2.847 -2.109,0.922 z m 162.632,-1.816 c -1.093,0.675 -2.347,4.504 -2.789,8.504 l -0.8,7.273 10.644,-0.301 10.641,-0.301 -9.922,-0.558 -9.918,-0.559 0.922,-3.437 c 0.504,-1.887 0.941,-4.137 0.965,-4.992 0.023,-0.86 0.726,-0.508 1.558,0.777 1.293,2.004 1.516,1.945 1.539,-0.387 0.012,-1.504 -0.855,-2.746 -1.929,-2.758 -1.321,-0.015 -1.211,-0.492 0.343,-1.476 1.266,-0.801 1.946,-1.805 1.516,-2.235 -0.426,-0.429 -1.676,-0.226 -2.77,0.45 z M 206.32,56.917 c 1.879,4.121 6.453,6.989 4.965,3.114 -0.476,-1.247 -1.535,-2.266 -2.355,-2.266 -0.817,0 -1.043,-0.711 -0.504,-1.586 0.539,-0.871 1.808,-1.109 2.824,-0.531 1.016,0.582 1.297,0.461 0.633,-0.274 -0.668,-0.73 -2.582,-1.539 -4.254,-1.797 -2.688,-0.41 -2.84,-0.019 -1.309,3.34 z M 98.562,60.37 c -0.124,3.61 -1.089,6.813 -2.171,7.2 -1.075,0.382 -1.461,1.23 -0.856,1.879 2.492,2.679 5.133,-3.196 4.199,-9.34 l -0.949,-6.246 -0.223,6.507 z m 384.711,-2.738 c -0.503,0.817 -0.25,1.891 0.567,2.395 0.812,0.504 1.89,0.246 2.39,-0.567 0.504,-0.812 0.25,-1.89 -0.562,-2.39 -0.816,-0.504 -1.891,-0.25 -2.395,0.562 z M 93.902,60.89 c 0,2.144 0.356,3.023 0.789,1.949 0.434,-1.07 0.434,-2.828 0,-3.902 -0.433,-1.074 -0.789,-0.196 -0.789,1.953 z m 120.66,-0.731 c 1.668,1.258 2.196,2.29 1.172,2.29 -1.023,0 -1.859,0.71 -1.859,1.578 0,0.953 1.184,0.832 3.004,-0.305 2.789,-1.738 2.816,-2.023 0.391,-3.867 -1.438,-1.094 -3.317,-1.989 -4.176,-1.989 -0.86,0 -0.199,1.032 1.468,2.293 z m 29.848,0 c -1.668,1.258 -4.301,2.29 -5.855,2.29 -1.551,0 -2.825,0.714 -2.825,1.585 0,0.922 2.352,0.598 5.657,-0.781 6.664,-2.785 7.336,-2.875 6.054,-0.804 -0.531,0.859 -0.265,1.562 0.59,1.562 0.856,0 1.453,-1.406 1.324,-3.121 -0.281,-3.688 -0.914,-3.781 -4.945,-0.731 z m 20.985,3.852 c 0,1.719 0.636,3.125 1.417,3.125 0.778,0 1.047,-1.406 0.598,-3.125 -0.449,-1.715 -1.086,-3.121 -1.414,-3.121 -0.332,0 -0.601,1.406 -0.601,3.121 z m -45.45,1.141 c -1.914,2.441 -1.883,2.539 0.274,0.863 1.523,-1.188 4.746,-1.543 8.586,-0.949 7.609,1.175 6.695,-0.258 -1.055,-1.657 -4.363,-0.789 -6.125,-0.394 -7.805,1.743 z m 68.09,-1.262 15.613,0.789 -31.226,1.852 16.004,0.3 c 13.316,0.254 16,-0.09 16,-2.039 0,-1.949 -2.672,-2.289 -16,-2.015 l -16.004,0.328 15.613,0.785 z m 83.527,0.902 c 0,1.821 1.825,2.278 8.196,2.059 l 8.195,-0.281 -15.609,-1.625 18.734,-1.969 -9.758,-0.262 c -7.75,-0.211 -9.758,0.219 -9.758,2.078 z m 35.055,-0.898 c 0.488,0.793 -0.347,1.765 -1.859,2.16 -2.094,0.547 -1.914,0.762 0.762,0.898 2.16,0.114 3.511,-0.718 3.511,-2.16 0,-1.289 -0.742,-2.343 -1.652,-2.343 -0.91,0 -1.254,0.652 -0.762,1.445 z m 5.926,-0.367 c 1.504,0.394 2.734,1.363 2.734,2.16 0,0.797 0.586,1.449 1.301,1.449 0.715,0 1.301,-1.055 1.301,-2.344 0,-1.523 -1.41,-2.277 -4.035,-2.16 -2.645,0.117 -3.09,0.426 -1.301,0.895 z m 25.762,0.054 c 2.793,0.344 7.359,0.344 10.148,0 2.789,-0.347 0.508,-0.632 -5.074,-0.632 -5.582,0 -7.863,0.285 -5.074,0.632 z m 55.652,-0.011 c 2.375,0.609 2.531,1.031 0.781,2.136 -1.355,0.86 2.25,1.278 9.532,1.11 l 11.707,-0.274 -18.735,-1.64 13.27,-0.934 13.273,-0.937 -16.394,-0.11 c -9.016,-0.058 -15.063,0.235 -13.434,0.649 z m -263.691,3.566 -7.805,1.07 8.105,0.243 c 4.457,0.136 8.539,-0.458 9.071,-1.313 0.527,-0.859 0.394,-1.453 -0.301,-1.316 -0.695,0.132 -4.774,0.726 -9.07,1.316 z M 100.727,71.82 c 0.605,2.144 1.191,5.796 1.308,8.117 0.219,4.402 3.031,8.273 6.012,8.273 0.957,0 2.07,0.977 2.465,2.168 0.468,1.41 0.047,1.754 -1.203,0.981 -1.059,-0.657 -0.696,0.687 0.812,2.984 1.59,2.43 3.649,3.82 4.926,3.332 1.203,-0.461 1.793,-0.195 1.305,0.594 -0.489,0.789 -0.176,1.879 0.699,2.418 3.324,2.054 1.363,-2.59 -4.11,-9.731 -3.136,-4.086 -7.41,-10.941 -9.503,-15.234 -2.094,-4.293 -3.313,-6.051 -2.711,-3.902 z m 6.98,14.433 c 0,0.871 -1.035,0.699 -2.34,-0.383 -1.289,-1.07 -2.344,-2.648 -2.344,-3.507 0,-0.868 1.036,-0.7 2.344,0.382 1.289,1.071 2.34,2.649 2.34,3.508 z m 113.953,2.738 c -0.121,0.43 -0.453,1.997 -0.738,3.481 -0.285,1.488 -1.637,3.82 -3.004,5.187 -1.363,1.368 -2.484,3.204 -2.484,4.082 0,0.879 -1.481,3.68 -3.293,6.227 -1.809,2.543 -2.95,4.965 -2.536,5.379 0.715,0.715 4.692,-5.082 10.821,-15.77 1.476,-2.574 2.715,-3.687 2.75,-2.468 0.035,1.215 0.433,1.843 0.879,1.394 0.449,-0.445 0.14,-2.496 -0.68,-4.551 -0.824,-2.058 -1.594,-3.39 -1.715,-2.961 z m 28.969,1.458 c -0.567,0.917 -0.399,1.664 0.371,1.664 1.457,0 5.027,6.769 5.027,9.535 0,0.867 -0.636,1.187 -1.414,0.703 -0.781,-0.481 -1.047,0.543 -0.593,2.277 0.453,1.731 1.515,3.574 2.363,4.098 0.941,0.582 1.129,-0.34 0.488,-2.363 -0.59,-1.864 -0.375,-3.321 0.496,-3.321 0.852,0 1.321,2.461 1.039,5.469 -0.277,3.008 0.117,5.855 0.883,6.328 0.762,0.469 0.969,-0.234 0.457,-1.566 -0.512,-1.332 -0.152,-2.422 0.797,-2.422 0.953,0 1.73,0.965 1.73,2.148 0,1.184 1.055,3.028 2.34,4.094 3.535,2.934 2.977,1.391 -4.91,-13.566 -8.582,-16.278 -7.797,-15.145 -9.074,-13.078 z m 111.566,-0.032 c -3.55,1.008 -3.336,1.207 2.34,2.168 8.121,1.375 12.27,1.063 6.246,-0.472 l -4.683,-1.192 5.66,-0.183 c 9.176,-0.301 15.762,1.574 16.582,4.718 0.414,1.578 1.371,2.485 2.133,2.012 0.761,-0.469 1.386,0.945 1.386,3.141 0,2.199 0.606,3.996 1.344,3.996 1.426,0 1.137,-6.614 -0.391,-9.09 -3.23,-5.223 -20.242,-8.055 -30.617,-5.098 z m 69.106,-0.304 c 2.375,0.359 5.887,0.347 7.804,-0.024 1.922,-0.367 -0.019,-0.664 -4.312,-0.652 -4.293,0.015 -5.863,0.316 -3.492,0.676 z M 515,91.632 c -1.199,1.477 -1.336,2.156 -0.312,1.543 1.07,-0.641 2.132,0.047 2.55,1.652 0.45,1.715 0.789,1.137 0.903,-1.543 0.211,-5.003 -0.235,-5.234 -3.141,-1.652 z m -229.309,18.438 0,19.515 3.125,0 c 1.942,0 3.114,-1.035 3.098,-2.734 -0.019,-2.086 -0.336,-2.242 -1.344,-0.652 -1.945,3.074 -3.316,-5.551 -3.316,-20.895 0,-11.031 0.406,-13.066 2.73,-13.676 2.059,-0.535 1.864,-0.758 -0.781,-0.894 l -3.512,-0.18 0,19.516 z m 21.86,0 0,19.515 6.242,0 0,-15.613 c 0,-8.586 -0.523,-15.613 -1.168,-15.617 -0.645,0 -1.051,6.496 -0.906,14.441 0.179,9.672 -0.149,12.899 -0.985,9.762 -0.691,-2.574 -1.336,-10.481 -1.437,-17.563 l -0.188,-12.882 3.907,0 c 2.144,0 3.902,0.703 3.902,1.562 0,0.949 5.656,1.445 14.441,1.266 l 14.442,-0.293 -28.102,-1.875 28.102,-1.578 -38.25,-0.641 0,19.516 z m 164.254,-5.075 0.32,14.442 0.52,-13.66 c 0.558,-14.633 2.972,-18.465 3.933,-6.246 l 0.586,7.414 0.281,-8.196 c 0.25,-7.25 -0.078,-8.195 -2.84,-8.195 l -3.125,0 0.325,14.441 z M 355.453,93.132 c -0.586,0.586 -1.066,2.336 -1.066,3.895 0,2.48 0.5,2.601 4.082,0.968 2.609,-1.191 3.312,-2.105 1.949,-2.543 -1.168,-0.375 -2.527,-1.293 -3.016,-2.035 -0.488,-0.742 -1.363,-0.871 -1.949,-0.285 z m 77.777,-0.281 c 0.86,0.312 4.208,1.012 7.442,1.551 3.808,0.64 7.851,2.961 11.496,6.605 3.141,3.141 4.855,4.195 3.891,2.387 -0.954,-1.778 -3.469,-4.598 -5.59,-6.266 -2.125,-1.672 -3.598,-3.308 -3.278,-3.637 0.325,-0.328 -3.039,-0.734 -7.468,-0.902 -4.43,-0.168 -7.352,-0.051 -6.493,0.262 z m 21.321,4.801 c 3.14,3.394 6.047,7.578 6.457,9.293 l 0.746,3.125 0.18,-3.27 c 0.183,-3.293 -4.184,-9.039 -9.969,-13.117 -1.715,-1.211 -0.551,0.574 2.586,3.969 z m -41.903,-1.067 c -0.8,0.547 -2.644,2.731 -4.097,4.856 -5.36,7.828 -2.063,19.105 7.261,24.871 5.696,3.519 8,4.156 6.547,1.804 -0.531,-0.859 1.532,-1.187 4.981,-0.789 l 5.89,0.684 -5.406,-1.687 c -2.972,-0.926 -7.297,-3.032 -9.609,-4.676 -2.309,-1.645 -4.758,-2.992 -5.434,-2.992 -0.679,0 1.149,1.757 4.055,3.902 5.879,4.34 4.488,5.433 -1.602,1.262 -4.722,-3.231 -6.183,-5.231 -6.054,-8.286 0.066,-1.597 0.347,-1.718 0.886,-0.39 1.414,3.512 3.235,2.047 2.465,-1.988 -0.633,-3.309 -1.129,-3.625 -3.109,-1.981 -2.055,1.703 -2.207,1.258 -1.192,-3.48 1.458,-6.774 2.477,-8.555 3.731,-6.528 0.586,0.953 2.648,0.242 5.191,-1.785 l 4.219,-3.363 -3.633,-0.215 c -1.996,-0.117 -4.289,0.234 -5.09,0.781 z m 3.411,1.774 c -0.532,0.859 -1.668,1.562 -2.528,1.562 -0.859,0 -1.129,-0.703 -0.597,-1.562 0.531,-0.86 1.668,-1.559 2.527,-1.559 0.859,0 1.129,0.699 0.598,1.559 z m 87.023,1.914 c -5.254,3.879 -6.434,5.582 -5.629,8.121 0.891,2.801 0.703,2.945 -1.476,1.14 -2.125,-1.765 -3.317,-1.449 -8.032,2.149 -3.043,2.32 -5.535,4.531 -5.535,4.91 0,1.051 3.508,-1.168 7.438,-4.707 2.683,-2.418 3.968,-2.746 5.347,-1.367 1.383,1.383 3.344,0.574 8.176,-3.367 3.5,-2.852 7.414,-5.59 8.703,-6.086 1.914,-0.735 1.86,-0.922 -0.297,-1.024 -1.453,-0.066 -3.074,0.582 -3.605,1.442 -0.531,0.855 -1.801,1.539 -2.824,1.511 -1.024,-0.027 0.113,-1.785 2.519,-3.906 6.168,-5.426 3.156,-4.683 -4.785,1.184 z m 1.188,4.332 c 0,0.859 -0.293,1.562 -0.653,1.562 -0.359,0 -1.918,0.485 -3.465,1.078 -2.507,0.961 -2.562,0.801 -0.515,-1.504 2.605,-2.937 4.633,-3.433 4.633,-1.136 z m -260.454,-0.203 c -1.796,3.714 -2.632,7.984 -2.179,11.097 l 0.746,5.059 3.699,-7.301 c 4.223,-8.332 4.742,-10.629 1.41,-6.219 l -2.293,3.032 -0.051,-2.836 c -0.027,-1.559 0.68,-4.196 1.567,-5.856 0.89,-1.66 1.258,-3.019 0.816,-3.019 -0.437,0 -2.109,2.718 -3.715,6.043 z m 1.282,6.449 c 0,0.855 -0.7,1.558 -1.559,1.558 -0.859,0 -1.562,-0.703 -1.562,-1.558 0,-0.86 0.703,-1.563 1.562,-1.563 0.859,0 1.559,0.703 1.559,1.563 z m -18.332,-4.317 c -0.207,2.747 0.05,2.997 1.203,1.172 1.808,-2.855 1.918,-4.664 0.289,-4.664 -0.676,0 -1.348,1.574 -1.492,3.492 z m 156.191,-1.3 c -7.598,2.765 -7.363,3.472 1.09,3.277 4.246,-0.094 8.269,-0.75 8.937,-1.453 0.668,-0.703 -0.359,-0.797 -2.289,-0.203 -2.769,0.851 -3.304,0.566 -2.562,-1.367 0.515,-1.344 0.687,-2.36 0.379,-2.258 -0.305,0.101 -2.805,1.004 -5.555,2.004 z m -165.992,1.75 c -1.086,1.308 -1.578,2.773 -1.098,3.257 0.481,0.481 1.66,-0.589 2.617,-2.378 2.047,-3.825 1.289,-4.262 -1.519,-0.879 z m 12.015,2.933 c -0.464,1.207 -0.441,3.723 0.051,5.598 0.668,2.57 1.211,2.894 2.211,1.32 1.754,-2.765 1.735,-9.109 -0.027,-9.109 -0.766,0 -1.774,0.988 -2.235,2.191 z m 135.465,1.762 c 1.664,1.262 4.477,2.27 6.243,2.238 2.941,-0.051 2.878,-0.246 -0.688,-2.289 -5.387,-3.078 -9.645,-3.039 -5.555,0.051 z m 13.36,-0.828 -3.903,1.25 4.293,0.152 c 2.364,0.086 4.293,-0.547 4.293,-1.402 0,-0.86 -0.172,-1.492 -0.386,-1.406 -0.215,0.086 -2.149,0.718 -4.297,1.406 z m -20.762,2.777 c -1.703,1.879 -2.324,4.078 -1.648,5.84 0.742,1.93 0.511,2.469 -0.723,1.703 -1.192,-0.734 -1.484,-0.269 -0.863,1.352 1.371,3.57 6.371,5.976 7.355,3.535 0.488,-1.207 0.828,-0.973 0.906,0.629 0.121,2.527 3.321,4.554 6.887,4.359 1.004,-0.055 0.199,-0.75 -1.789,-1.547 -1.988,-0.797 -3.176,-2.156 -2.641,-3.023 0.934,-1.512 -1.05,-2.199 -4.949,-1.719 -1.008,0.125 -2.277,-0.496 -2.824,-1.375 -0.543,-0.883 -0.344,-1.605 0.449,-1.605 0.789,0 1.098,-1.754 0.688,-3.903 -0.422,-2.222 -0.016,-3.902 0.949,-3.902 0.933,0 1.301,1.23 0.816,2.73 -0.535,1.668 -0.367,2.063 0.438,1.016 0.726,-0.945 2.375,-2.117 3.66,-2.609 1.934,-0.735 1.887,-0.91 -0.258,-1.012 -1.434,-0.07 -2.855,-0.883 -3.164,-1.805 -0.316,-0.953 -1.742,-0.375 -3.289,1.336 z m -224.355,0.102 c 0,2.094 5.609,6.605 6.765,5.445 0.578,-0.574 -0.117,-2.332 -1.539,-3.906 -2.73,-3.016 -5.226,-3.75 -5.226,-1.539 z m 77.046,4.07 c -0.988,1.078 -1.242,2.852 -0.558,3.953 0.894,1.446 1.535,1.047 2.328,-1.449 1.324,-4.176 0.648,-5.133 -1.77,-2.504 z m 243.985,0.137 c -0.504,1.32 -4.512,4.066 -8.907,6.097 -6.082,2.821 -7.296,3.907 -5.097,4.571 1.586,0.476 0.933,0.636 -1.445,0.351 -2.383,-0.281 -4.739,0.141 -5.231,0.942 -0.516,0.832 1.672,1.242 5.109,0.961 3.602,-0.297 6.012,-1.297 6.012,-2.5 0,-2.125 3.613,-4.989 6.246,-4.95 0.856,0.016 0.332,0.743 -1.172,1.618 -1.504,0.875 -2.734,2.343 -2.734,3.265 0,1.039 1.223,0.864 3.227,-0.468 1.777,-1.18 3.214,-2.844 3.199,-3.704 -0.016,-0.859 1.008,-3.14 2.273,-5.074 1.27,-1.933 1.66,-3.512 0.875,-3.512 -0.789,0 -1.847,1.079 -2.355,2.403 z m 3.25,1.644 c -3.117,4.176 -2.184,5.063 1.48,1.403 1.293,-1.297 2.121,-2.989 1.84,-3.758 -0.285,-0.774 -1.777,0.289 -3.32,2.355 z m -316.473,2.887 c 0,3.258 3.094,4.672 5.207,2.379 1.426,-1.543 1.192,-1.746 -1.09,-0.938 -2.172,0.77 -2.675,0.434 -2,-1.332 0.5,-1.296 0.227,-2.359 -0.605,-2.359 -0.832,0 -1.512,1.012 -1.512,2.25 z m 62.719,1.68 c -2.246,4.933 -2.262,5.437 -0.176,5.437 0.906,0 1.125,-0.879 0.481,-1.953 -0.797,-1.324 -0.329,-1.266 1.468,0.192 2.305,1.871 2.637,1.769 2.617,-0.782 -0.046,-5.64 -2.425,-7.207 -4.39,-2.894 z m 34.933,-1.067 c 0.907,3.301 0.692,3.485 -2.234,1.918 -2.676,-1.433 -3.078,-1.324 -2.32,0.645 0.5,1.308 1.515,2.379 2.258,2.379 0.738,0 0.968,1.23 0.511,2.734 -0.457,1.5 0.297,0.785 1.676,-1.59 1.891,-3.261 2.09,-4.976 0.805,-7.023 -1.434,-2.285 -1.543,-2.141 -0.696,0.937 z m 233.582,3.18 c -0.214,5.906 0.067,6.566 2.094,4.887 2.574,-2.141 3.199,-3.84 0.883,-2.407 -0.805,0.497 -1.746,-1.394 -2.094,-4.203 -0.535,-4.328 -0.668,-4.066 -0.883,1.723 z m -86.687,-2.133 c -2.457,1.285 -5.621,2.391 -7.023,2.457 -1.672,0.082 -1.868,0.399 -0.571,0.922 1.09,0.438 4.254,0.043 7.028,-0.883 4.613,-1.539 4.785,-1.484 2.007,0.641 -3.015,2.309 -1.609,3.309 1.586,1.125 2.078,-1.422 4.098,-6.613 2.567,-6.602 -0.617,0.004 -3.133,1.059 -5.594,2.34 z m 92.867,0.207 c -1.867,2.11 -1.781,2.364 0.652,1.891 1.547,-0.301 3.102,-1.422 3.458,-2.496 0.898,-2.696 -1.5,-2.344 -4.11,0.605 z m -209.808,2.52 c -0.5,1.308 0.445,2.183 2.519,2.34 1.828,0.14 2.629,-0.254 1.781,-0.868 -0.847,-0.617 -1.984,-1.671 -2.519,-2.339 -0.539,-0.672 -1.34,-0.282 -1.781,0.867 z m 247.484,-0.922 c -2.715,1.098 -2.445,3.652 0.391,3.652 1.289,0 2.343,-1.054 2.343,-2.344 0,-1.285 -0.175,-2.285 -0.39,-2.218 -0.215,0.07 -1.27,0.48 -2.344,0.91 z m -370.481,2.168 c -1.367,0.867 -1.539,1.445 -0.433,1.461 1.012,0.012 2.094,1.254 2.406,2.754 0.461,2.222 0.746,2.078 1.531,-0.778 1.118,-4.089 -0.289,-5.472 -3.504,-3.437 z m 225.606,0.785 c 2.535,1.324 6.398,2.125 8.586,1.785 3.383,-0.527 3.23,-0.652 -1.008,-0.851 -2.742,-0.129 -5.418,-0.938 -5.945,-1.797 -0.532,-0.86 -2.156,-1.555 -3.606,-1.551 -1.636,0.008 -0.886,0.926 1.973,2.414 z m -218.141,9.441 c -0.617,0.614 -0.488,1.887 0.289,2.825 0.774,0.937 2.11,4.164 2.965,7.168 0.86,3.004 1.574,4.058 1.586,2.343 0.031,-4.558 -3.535,-13.644 -4.84,-12.336 z m -1.761,6.618 c 0.503,2.007 1.464,6.925 2.14,10.929 l 1.231,7.278 0.113,-6.246 c 0.062,-3.434 -0.902,-8.352 -2.145,-10.93 -1.597,-3.317 -1.988,-3.617 -1.339,-1.031 z m 314.304,7.668 c -0.066,0.644 -0.019,9.718 0.11,20.16 0.211,17.164 -0.043,19.062 -2.61,19.726 -2.269,0.586 -2.136,0.77 0.672,0.914 l 3.512,0.184 0,-21.078 c 0,-11.594 -0.352,-21.078 -0.781,-21.078 -0.426,0 -0.836,0.527 -0.903,1.172 z m -263.718,1.449 c 0.023,2.933 5.914,10.094 6.937,8.433 0.59,-0.957 1.719,-1.336 2.508,-0.847 0.801,0.492 0.972,-0.324 0.387,-1.848 -0.645,-1.684 -1.289,-2.016 -1.672,-0.863 -1.082,3.25 -3.469,2.027 -3.078,-1.574 0.238,-2.223 -0.602,-3.653 -2.36,-4.02 -1.504,-0.312 -2.73,0.008 -2.722,0.719 z m 41.667,5.004 -4.253,6.429 -11.946,0 c -6.57,0 -11.492,0.457 -10.929,1.016 0.558,0.559 5.769,0.879 11.578,0.711 l 10.562,-0.305 0.231,4.078 c 0.156,2.727 -0.426,3.825 -1.762,3.313 -2.207,-0.848 -5.523,1.82 -5.445,4.379 0.027,0.902 1.082,0.273 2.34,-1.391 l 2.292,-3.031 0,2.851 c 0,2.446 0.411,2.321 2.891,-0.875 5.453,-7.023 11.199,-16.992 9.797,-16.992 -0.77,0 -2.555,2.43 -3.965,5.399 -2.48,5.226 -5.605,8.586 -5.594,6.011 0.008,-1.812 6.34,-12.003 8.188,-13.183 0.855,-0.543 1.265,-1.856 0.914,-2.914 -0.352,-1.059 -2.559,0.969 -4.899,4.504 z m 7.243,-3.789 c 0,1.25 0.586,1.91 1.3,1.468 0.715,-0.441 1.301,-1.464 1.301,-2.273 0,-0.809 -0.586,-1.469 -1.301,-1.469 -0.714,0 -1.3,1.024 -1.3,2.274 z m 14.476,0.195 c -1.48,3.855 -1.113,10.023 0.598,10.023 0.848,0 1.437,-1.23 1.312,-2.734 -0.683,-8.164 -0.898,-8.066 18.61,-8.59 l 18.347,-0.496 -18.96,-0.336 c -16.051,-0.285 -19.102,0.043 -19.907,2.133 z m 45.52,0.961 c 0.656,2.504 1.14,2.82 1.804,1.172 0.5,-1.242 2.532,-2.434 4.512,-2.649 1.981,-0.211 3.199,0.266 2.707,1.063 -0.492,0.801 -0.183,1.894 0.692,2.433 0.871,0.539 1.586,-0.086 1.586,-1.394 0,-1.902 2.707,-2.477 13.66,-2.891 11.488,-0.437 10.515,-0.574 -6.098,-0.843 l -19.762,-0.321 0.899,3.43 z m 45.648,-2.68 c 0,1.067 10.832,18.008 14.492,22.668 l 3.067,3.906 -1.078,-3.515 c -1.485,-4.832 0.105,-4.41 2.922,0.781 1.429,2.637 2.355,3.332 2.39,1.805 0.07,-2.731 -4.48,-7.508 -6.961,-7.313 -0.859,0.067 -2.617,-1.914 -3.902,-4.406 -1.289,-2.488 -2.871,-4.762 -3.516,-5.047 -0.644,-0.289 -1.168,-1.328 -1.168,-2.308 0,-0.985 1.664,-0.047 3.7,2.082 2.039,2.128 3.429,4.347 3.097,4.933 -0.332,0.582 0.219,1.57 1.223,2.192 1.172,0.722 1.41,0.449 0.66,-0.762 -0.879,-1.418 1.582,-1.809 9.93,-1.563 6.105,0.176 11.558,-0.136 12.117,-0.695 0.558,-0.559 -4.36,-1.016 -10.93,-1.016 l -11.949,0 -4.133,-6.246 c -2.367,-3.582 -5.375,-6.246 -7.047,-6.246 -1.601,0 -2.914,0.336 -2.914,0.75 z M 402,156.148 c -0.551,1.73 -1.586,2.785 -2.305,2.34 -0.715,-0.442 -0.933,0.601 -0.484,2.32 0.449,1.719 1.414,3.125 2.148,3.125 0.731,0 0.879,-1.168 0.332,-2.598 -0.586,-1.531 -0.363,-2.207 0.551,-1.64 1.746,1.078 7.035,-4.364 5.621,-5.778 -1.922,-1.922 -4.906,-0.785 -5.863,2.231 z m 17.961,18.191 c 0,11.738 0.43,20.91 0.953,20.383 0.527,-0.523 0.945,-9.949 0.934,-20.945 -0.016,-16.676 0.199,-18.567 1.316,-11.407 0.734,4.723 0.988,9.758 0.563,11.188 -0.422,1.43 -0.039,3.055 0.855,3.605 1.074,0.664 1.625,-3.257 1.625,-11.578 0,-11.539 -0.262,-12.582 -3.125,-12.582 l -3.121,0 0,21.336 z m -263.606,-14.23 c -0.136,3.476 -1.023,7.097 -1.972,8.043 -1.192,1.195 -1.235,2.597 -0.133,4.562 1.367,2.442 1.73,2.07 2.621,-2.687 0.57,-3.039 0.746,-7.934 0.387,-10.883 l -0.653,-5.36 -0.25,6.325 z m 120.36,-2.836 c 4.078,0.324 10.754,0.324 14.832,0 4.078,-0.321 0.742,-0.582 -7.418,-0.582 -8.156,0 -11.492,0.261 -7.414,0.582 z m 53.129,0.004 c 4.105,0.32 10.429,0.316 14.051,-0.012 3.625,-0.328 0.265,-0.59 -7.461,-0.586 -7.731,0.004 -10.696,0.273 -6.59,0.594 l 0,0.004 z m 125.828,3.007 c -1.945,2.356 -1.817,2.422 1.367,0.727 3.633,-1.937 4.527,-3.324 2.145,-3.324 -0.754,0 -2.336,1.168 -3.512,2.597 z M 268.52,175.527 c 0,14.191 -0.352,16.371 -2.735,16.992 -2.055,0.539 -1.863,0.762 0.781,0.894 l 3.512,0.184 0,-17.176 c 0,-9.445 -0.351,-17.172 -0.781,-17.172 -0.426,0 -0.777,7.325 -0.777,16.278 z m 182.668,-11.676 c 0,0.762 0.874,1.801 1.949,2.308 1.074,0.512 0.261,0.61 -1.801,0.215 -2.754,-0.523 -5.164,0.7 -9.055,4.59 -2.918,2.914 -5.797,5.402 -6.394,5.52 -2.461,0.492 -5.68,2.968 -3.918,3.015 1.023,0.024 2.301,-0.668 2.84,-1.543 0.539,-0.871 1.64,-1.175 2.445,-0.679 1.695,1.047 -0.531,3.554 -6.805,7.656 -2.387,1.562 -4.023,3.16 -3.633,3.551 0.727,0.722 18.125,-11.875 18.125,-13.121 0,-0.379 -0.656,-0.282 -1.453,0.211 -0.8,0.496 -1.851,0.257 -2.336,-0.524 -0.48,-0.781 0.293,-1.871 1.723,-2.422 1.426,-0.547 3.066,-0.234 3.641,0.692 0.683,1.105 1.804,0.754 3.246,-1.02 1.949,-2.391 1.89,-2.59 -0.477,-1.703 -1.476,0.555 -3.168,0.223 -3.758,-0.731 -0.742,-1.207 0.434,-1.437 3.856,-0.753 2.707,0.543 4.926,0.711 4.926,0.371 0,-0.336 0.39,-1.633 0.871,-2.879 0.476,-1.25 -0.227,-2.692 -1.563,-3.203 -1.336,-0.512 -2.429,-0.313 -2.429,0.449 z m -239.672,1.668 c -0.539,0.871 -1.809,1.101 -2.825,0.512 -1.011,-0.59 -0.746,0.277 0.598,1.925 1.344,1.653 4.816,7.024 7.719,11.934 2.902,4.914 5.594,8.621 5.98,8.234 0.383,-0.383 -0.164,-1.738 -1.218,-3.008 -1.055,-1.273 -1.411,-3.136 -0.79,-4.14 0.809,-1.305 1.54,-1.102 2.555,0.711 0.781,1.398 2.082,2.543 2.891,2.543 0.808,0 0.273,-1.399 -1.188,-3.106 -1.718,-2.004 -3.195,-2.566 -4.172,-1.59 -1.949,1.95 -9.371,-10.183 -8.16,-13.339 0.996,-2.594 0.071,-3.039 -1.39,-0.676 z m 100.328,-0.551 c 1.34,0.539 1.949,4.848 1.949,13.797 0,8.945 -0.609,13.254 -1.949,13.797 -1.168,0.472 -0.852,0.836 0.781,0.91 2.418,0.109 2.73,-1.574 2.73,-14.707 0,-13.133 -0.312,-14.82 -2.73,-14.711 -1.633,0.074 -1.949,0.441 -0.781,0.914 z m 83.144,7.004 c -2.578,3.566 -4.691,7.117 -4.691,7.898 0,0.782 -0.738,0.965 -1.637,0.411 -1.121,-0.696 -1.058,-1.711 0.192,-3.215 1.003,-1.215 1.207,-2.203 0.449,-2.203 -0.758,0 -2.254,1.402 -3.324,3.121 -1.637,2.617 -1.563,3.121 0.457,3.121 1.961,0 2.086,0.609 0.668,3.258 -0.957,1.789 -1.469,3.527 -1.137,3.859 0.332,0.332 2.976,-3.418 5.879,-8.332 2.906,-4.91 6.312,-10.16 7.574,-11.664 1.258,-1.504 1.836,-2.731 1.277,-2.731 -0.554,0 -3.125,2.914 -5.707,6.477 z m -83.89,1.328 c 0,3.863 0.304,5.445 0.675,3.512 0.372,-1.93 0.372,-5.094 0,-7.024 -0.371,-1.933 -0.675,-0.351 -0.675,3.512 z m -86.668,-3.578 c 1.941,0.371 4.754,0.359 6.246,-0.035 1.492,-0.391 -0.098,-0.696 -3.531,-0.676 -3.434,0.016 -4.657,0.336 -2.715,0.711 z m 154.566,0 c 1.942,0.371 4.75,0.359 6.246,-0.035 1.492,-0.391 -0.097,-0.696 -3.531,-0.676 -3.438,0.016 -4.656,0.336 -2.715,0.711 z M 151.73,175.64 c 0.219,1.719 -0.183,4.051 -0.89,5.18 -0.711,1.129 -0.926,2.421 -0.481,2.867 0.446,0.445 1.602,-0.664 2.567,-2.469 1.254,-2.344 1.277,-4.047 0.082,-5.988 -1.52,-2.465 -1.637,-2.43 -1.278,0.41 z m 78.754,7.809 c 0.493,1.289 1.61,2.339 2.485,2.339 0.914,0 0.761,-0.992 -0.36,-2.339 -1.07,-1.29 -2.187,-2.344 -2.484,-2.344 -0.297,0 -0.137,1.054 0.359,2.344 z m 144.879,1.156 c 2.332,3.586 5.567,4.621 5.567,1.781 0,-0.43 -0.825,-0.273 -1.828,0.348 -1.27,0.785 -1.485,0.234 -0.7,-1.813 0.621,-1.617 0.633,-2.441 0.02,-1.828 -0.61,0.609 -2.176,0.238 -3.477,-0.828 -1.722,-1.41 -1.609,-0.77 0.418,2.34 z m -231.746,2.992 c 0,2.91 -18.094,22.019 -24.281,25.648 -3.82,2.235 -6.945,4.391 -6.945,4.789 0,0.399 0.75,0.262 1.668,-0.304 0.988,-0.61 1.464,0.082 1.171,1.699 -0.273,1.5 0.493,3.07 1.704,3.492 1.527,0.531 1.898,-0.027 1.207,-1.824 -0.598,-1.559 0.171,-3.668 1.929,-5.289 6.879,-6.344 10.961,-9.297 11.762,-8.496 0.473,0.472 0.856,-0.434 0.856,-2.008 0,-1.574 0.48,-2.379 1.07,-1.793 1.215,1.215 11.422,-8.16 11.422,-10.488 0,-0.836 1.023,-2.657 2.281,-4.043 2.023,-2.239 1.937,-2.52 -0.781,-2.52 -1.684,0 -3.063,0.512 -3.063,1.137 z m 84.309,-0.43 c 0,0.86 0.703,1.996 1.562,2.528 0.856,0.527 1.559,0.261 1.559,-0.598 0,-0.859 -0.703,-1.996 -1.559,-2.527 -0.859,-0.532 -1.562,-0.262 -1.562,0.597 z m 152.465,5.719 c 0.476,1.238 1.496,1.863 2.261,1.391 1.938,-1.2 1.758,-1.77 -0.863,-2.778 -1.508,-0.578 -1.973,-0.117 -1.398,1.387 z m -272.684,28.766 c 0,0.828 1.055,1.105 2.344,0.613 1.289,-0.496 2.34,-1.176 2.34,-1.512 0,-0.34 -1.051,-0.617 -2.34,-0.617 -1.289,0 -2.344,0.684 -2.344,1.516 z m -5.93,3.48 c -1.031,1.031 -1.875,2.789 -1.875,3.906 0,1.114 -0.746,2.028 -1.652,2.028 -0.91,0 -1.152,-0.809 -0.539,-1.801 0.695,-1.125 0.426,-1.379 -0.715,-0.672 -1.008,0.621 -1.426,1.781 -0.93,2.582 0.493,0.797 -0.128,1.453 -1.382,1.453 -2.09,0 -30.692,18.281 -30.692,19.617 0,0.321 1.055,0.176 2.344,-0.316 1.285,-0.496 2.34,-0.121 2.34,0.828 0,0.949 -0.742,1.727 -1.653,1.727 -0.91,0 -1.257,0.644 -0.769,1.429 0.484,0.786 0.031,1.711 -1.004,2.055 -1.465,0.488 -1.469,0.887 -0.004,1.789 1.836,1.137 5.942,-6.406 4.348,-7.996 -0.399,-0.402 0.105,-1.641 1.129,-2.75 1.414,-1.535 2.394,-1.59 4.109,-0.223 1.762,1.403 1.98,1.348 1.016,-0.261 -1.309,-2.172 3.523,-6.86 5.691,-5.52 0.656,0.402 1.191,-0.098 1.191,-1.109 0,-1.375 0.594,-1.352 2.34,0.097 1.414,1.172 2.344,1.301 2.344,0.321 0,-0.891 -0.844,-1.903 -1.875,-2.246 -1.449,-0.485 -1.441,-0.895 0.027,-1.801 1.243,-0.77 2.735,0.625 4.286,4.008 l 2.382,5.183 -0.941,-5.976 c -0.934,-5.907 0.344,-7.395 6.613,-7.696 0.668,-0.031 2.426,-2.047 3.906,-4.48 1.801,-2.965 3.508,-4.106 5.18,-3.465 1.692,0.648 1.977,1.465 0.895,2.547 -1.059,1.059 -1.078,2.559 -0.051,4.476 1.863,3.481 4.035,3.77 4.035,0.543 0,-1.289 -1.109,-2.355 -2.473,-2.367 -2.168,-0.019 -2.183,-0.215 -0.128,-1.59 2.027,-1.355 1.933,-1.878 -0.688,-3.878 -3.668,-2.801 -4.398,-2.848 -6.805,-0.442 z m -3.543,13.352 c 0.813,1.5 1.887,4.664 2.383,7.023 0.5,2.363 1.621,4.293 2.492,4.293 1.039,0 1.004,-1.082 -0.101,-3.152 -0.93,-1.735 -1.262,-3.848 -0.738,-4.696 0.527,-0.847 -0.094,-2.589 -1.375,-3.871 -3.145,-3.144 -4.473,-2.945 -2.661,0.403 z m -10.773,7.414 c 0,0.859 0.68,2.617 1.512,3.902 0.832,1.289 1.515,1.641 1.515,0.781 0,-0.859 -0.683,-2.613 -1.515,-3.902 -0.832,-1.289 -1.512,-1.641 -1.512,-0.781 z m -7.609,1.562 c -0.004,0.86 0.937,4.02 2.097,7.024 1.156,3.007 2.125,4.414 2.153,3.125 0.023,-1.289 -0.918,-4.45 -2.098,-7.028 -1.18,-2.574 -2.149,-3.98 -2.152,-3.121 z m 13.929,6.727 c -0.07,1.125 -0.761,1.652 -1.539,1.168 -0.781,-0.481 -1.027,0.613 -0.554,2.429 0.765,2.915 1.035,3 2.308,0.723 0.793,-1.418 1.098,-3.43 0.676,-4.473 -0.563,-1.382 -0.801,-1.343 -0.891,0.153 z M 42.609,265.12 c -8.754,5.743 -16.183,11.145 -16.504,12.004 -1.125,2.992 0.743,16.395 2.282,16.395 0.965,0 1.144,-2.957 0.48,-7.801 -0.871,-6.312 -0.609,-7.98 1.371,-8.738 1.348,-0.516 3.52,0.133 4.832,1.441 2.813,2.817 3.16,4.832 0.555,3.223 -1.289,-0.797 -1.461,-0.254 -0.578,1.859 0.683,1.645 1.586,4.571 2.008,6.5 0.418,1.934 1.734,3.516 2.922,3.516 2.277,0 2.863,-1.899 1.125,-3.637 -0.571,-0.57 -1.282,-3.285 -1.582,-6.039 -0.301,-2.75 -1.067,-5.387 -1.7,-5.859 -1.992,-1.493 -1.672,-6.325 0.418,-6.325 1.102,0 2.407,-1.054 2.903,-2.343 0.492,-1.285 1.547,-2.34 2.339,-2.34 2.399,0 3.586,5.129 1.485,6.426 -1.078,0.664 -1.414,1.754 -0.746,2.422 0.664,0.664 1.941,0.175 2.832,-1.086 1.277,-1.805 1.402,-1.629 0.582,0.824 -1.262,3.765 -1.274,3.875 -0.84,7.808 0.199,1.844 0.91,0.692 1.738,-2.824 1.051,-4.457 0.805,-7.09 -0.976,-10.535 -2.149,-4.152 -2.137,-4.598 0.097,-4.598 1.36,0 2.086,-0.629 1.61,-1.398 -1.371,-2.215 3.8,-3.465 6.668,-1.609 2.363,1.531 2.347,1.605 -0.153,0.828 -2.312,-0.723 -2.589,-0.18 -1.73,3.394 1.316,5.5 2.141,6.383 2.141,2.301 0,-1.789 0.8,-3.523 1.785,-3.848 1.328,-0.445 1.308,-1.484 -0.071,-4.058 -1.621,-3.035 -1.406,-3.645 1.731,-4.903 1.969,-0.789 2.527,-1.437 1.238,-1.437 -1.289,-0.004 -9.508,4.695 -18.262,10.437 z m 27.629,-4.48 c 0,1.664 0.602,3.398 1.336,3.855 0.735,0.454 1.004,-0.91 0.598,-3.031 -0.879,-4.605 -1.934,-5.055 -1.934,-0.824 z m 24.414,0.871 c -0.492,1.289 -0.218,2.344 0.614,2.344 0.832,0 1.515,-1.055 1.515,-2.344 0,-1.289 -0.277,-2.34 -0.617,-2.34 -0.336,0 -1.016,1.051 -1.512,2.34 z m -10.207,2.602 c -0.086,1.433 -0.785,2.836 -1.55,3.125 -1.907,0.711 1.695,11.054 4.128,11.851 1.071,0.352 1.95,-0.476 1.95,-1.836 0,-1.359 -0.789,-2.297 -1.758,-2.082 -0.965,0.215 -2.11,-0.586 -2.543,-1.777 -0.481,-1.328 -0.106,-1.746 0.976,-1.078 1.989,1.226 2.055,-1.114 0.204,-6.903 -0.754,-2.355 -1.313,-2.871 -1.407,-1.3 z m -16.261,2.472 c -0.372,0.645 -0.114,2.574 0.578,4.293 1.097,2.727 1.269,2.578 1.367,-1.172 0.109,-4.234 -0.621,-5.406 -1.945,-3.121 z m 4.757,3.637 c 0.551,2.113 1.258,2.82 1.649,1.652 0.375,-1.129 -0.059,-2.793 -0.965,-3.699 -1.16,-1.16 -1.363,-0.547 -0.684,2.047 z m -16.73,4.078 c 0.012,0.695 0.703,2.316 1.535,3.606 1.305,2.015 1.52,1.976 1.539,-0.301 0.012,-1.449 -0.68,-3.074 -1.539,-3.606 -0.855,-0.527 -1.547,-0.394 -1.535,0.301 z m 17.277,3.367 c -2.277,4.258 -2.144,4.899 1.043,5.043 1.649,0.074 1.953,0.438 0.77,0.914 -2.113,0.856 -1.141,3.649 1.273,3.649 2.414,0 1.66,-4.711 -0.91,-5.696 -1.859,-0.714 -1.98,-1.398 -0.559,-3.113 1.004,-1.207 1.43,-2.59 0.946,-3.074 -0.481,-0.481 -1.637,0.543 -2.563,2.277 z m -53.992,2.184 c -2.574,1.875 -5.035,3.785 -5.465,4.242 -0.429,0.461 -3.414,2.176 -6.633,3.816 -3.222,1.637 -5.855,3.918 -5.855,5.075 0,3.168 2.652,2.511 5.336,-1.321 1.316,-1.879 3.629,-3.597 5.137,-3.82 1.507,-0.219 2.988,-1.141 3.289,-2.047 0.3,-0.906 1.285,-1.648 2.187,-1.648 1.449,0 7.469,-5.856 7.469,-7.262 0,-0.902 -0.59,-0.582 -5.465,2.965 z m 43.035,1.437 c -0.054,1.434 -0.515,3.895 -1.027,5.465 -0.789,2.434 -0.656,2.512 0.906,0.52 1.488,-1.903 1.66,-1.535 0.899,1.949 -0.704,3.23 -0.34,4.297 1.464,4.297 2.442,0 2.129,-3.988 -0.914,-11.711 -0.964,-2.453 -1.25,-2.567 -1.328,-0.52 z m -11.148,4.813 c -0.067,1.074 -0.356,3.18 -0.641,4.683 -0.289,1.504 0.117,2.735 0.899,2.735 0.781,0 1.421,-2.11 1.421,-4.688 0,-4.472 -1.429,-6.8 -1.679,-2.73 z m -34.699,3.348 c -0.641,1.625 -0.797,3.32 -0.348,3.773 1.426,1.422 2.68,-0.91 2.082,-3.875 l -0.574,-2.856 -1.16,2.958 z m 59.234,1.726 c 0.496,1.289 1.527,2.344 2.293,2.344 0.766,0 1.394,-1.055 1.394,-2.344 0,-1.289 -1.031,-2.344 -2.293,-2.344 -1.394,0 -1.941,0.918 -1.394,2.344 z" /></g></g></svg>